G04 #@! TF.GenerationSoftware,KiCad,Pcbnew,(5.1.0)-1*
G04 #@! TF.CreationDate,2019-07-03T15:35:12-04:00*
G04 #@! TF.ProjectId,snes breakout,736e6573-2062-4726-9561-6b6f75742e6b,rev?*
G04 #@! TF.SameCoordinates,Original*
G04 #@! TF.FileFunction,Copper,L1,Top*
G04 #@! TF.FilePolarity,Positive*
%FSLAX46Y46*%
G04 Gerber Fmt 4.6, Leading zero omitted, Abs format (unit mm)*
G04 Created by KiCad (PCBNEW (5.1.0)-1) date 2019-07-03 15:35:12*
%MOMM*%
%LPD*%
G04 APERTURE LIST*
%ADD10O,2.000000X4.000000*%
%ADD11O,2.200000X4.000000*%
%ADD12C,0.100000*%
%ADD13C,1.600000*%
%ADD14R,1.905000X3.083560*%
%ADD15O,1.700000X3.400000*%
%ADD16O,3.400000X1.700000*%
%ADD17C,1.408000*%
%ADD18R,1.408000X1.408000*%
%ADD19R,1.600000X1.600000*%
%ADD20C,4.000000*%
%ADD21O,3.016000X1.508000*%
%ADD22O,1.508000X3.016000*%
%ADD23C,0.300000*%
%ADD24C,1.150000*%
%ADD25C,0.800000*%
%ADD26C,0.250000*%
%ADD27C,0.254000*%
G04 APERTURE END LIST*
D10*
X168050000Y-57200000D03*
X160550000Y-57200000D03*
X154050000Y-57200000D03*
X146550000Y-57200000D03*
X174550000Y-57200000D03*
X182050000Y-57200000D03*
D11*
X154050000Y-64450000D03*
X168050000Y-64450000D03*
X182050000Y-64450000D03*
D12*
G36*
X165974504Y-45251204D02*
G01*
X165998773Y-45254804D01*
X166022571Y-45260765D01*
X166045671Y-45269030D01*
X166067849Y-45279520D01*
X166088893Y-45292133D01*
X166108598Y-45306747D01*
X166126777Y-45323223D01*
X166143253Y-45341402D01*
X166157867Y-45361107D01*
X166170480Y-45382151D01*
X166180970Y-45404329D01*
X166189235Y-45427429D01*
X166195196Y-45451227D01*
X166198796Y-45475496D01*
X166200000Y-45500000D01*
X166200000Y-48500000D01*
X166198796Y-48524504D01*
X166195196Y-48548773D01*
X166189235Y-48572571D01*
X166180970Y-48595671D01*
X166170480Y-48617849D01*
X166157867Y-48638893D01*
X166143253Y-48658598D01*
X166126777Y-48676777D01*
X166108598Y-48693253D01*
X166088893Y-48707867D01*
X166067849Y-48720480D01*
X166045671Y-48730970D01*
X166022571Y-48739235D01*
X165998773Y-48745196D01*
X165974504Y-48748796D01*
X165950000Y-48750000D01*
X164850000Y-48750000D01*
X164825496Y-48748796D01*
X164801227Y-48745196D01*
X164777429Y-48739235D01*
X164754329Y-48730970D01*
X164732151Y-48720480D01*
X164711107Y-48707867D01*
X164691402Y-48693253D01*
X164673223Y-48676777D01*
X164656747Y-48658598D01*
X164642133Y-48638893D01*
X164629520Y-48617849D01*
X164619030Y-48595671D01*
X164610765Y-48572571D01*
X164604804Y-48548773D01*
X164601204Y-48524504D01*
X164600000Y-48500000D01*
X164600000Y-45500000D01*
X164601204Y-45475496D01*
X164604804Y-45451227D01*
X164610765Y-45427429D01*
X164619030Y-45404329D01*
X164629520Y-45382151D01*
X164642133Y-45361107D01*
X164656747Y-45341402D01*
X164673223Y-45323223D01*
X164691402Y-45306747D01*
X164711107Y-45292133D01*
X164732151Y-45279520D01*
X164754329Y-45269030D01*
X164777429Y-45260765D01*
X164801227Y-45254804D01*
X164825496Y-45251204D01*
X164850000Y-45250000D01*
X165950000Y-45250000D01*
X165974504Y-45251204D01*
X165974504Y-45251204D01*
G37*
D13*
X165400000Y-47000000D03*
D12*
G36*
X165974504Y-50851204D02*
G01*
X165998773Y-50854804D01*
X166022571Y-50860765D01*
X166045671Y-50869030D01*
X166067849Y-50879520D01*
X166088893Y-50892133D01*
X166108598Y-50906747D01*
X166126777Y-50923223D01*
X166143253Y-50941402D01*
X166157867Y-50961107D01*
X166170480Y-50982151D01*
X166180970Y-51004329D01*
X166189235Y-51027429D01*
X166195196Y-51051227D01*
X166198796Y-51075496D01*
X166200000Y-51100000D01*
X166200000Y-54100000D01*
X166198796Y-54124504D01*
X166195196Y-54148773D01*
X166189235Y-54172571D01*
X166180970Y-54195671D01*
X166170480Y-54217849D01*
X166157867Y-54238893D01*
X166143253Y-54258598D01*
X166126777Y-54276777D01*
X166108598Y-54293253D01*
X166088893Y-54307867D01*
X166067849Y-54320480D01*
X166045671Y-54330970D01*
X166022571Y-54339235D01*
X165998773Y-54345196D01*
X165974504Y-54348796D01*
X165950000Y-54350000D01*
X164850000Y-54350000D01*
X164825496Y-54348796D01*
X164801227Y-54345196D01*
X164777429Y-54339235D01*
X164754329Y-54330970D01*
X164732151Y-54320480D01*
X164711107Y-54307867D01*
X164691402Y-54293253D01*
X164673223Y-54276777D01*
X164656747Y-54258598D01*
X164642133Y-54238893D01*
X164629520Y-54217849D01*
X164619030Y-54195671D01*
X164610765Y-54172571D01*
X164604804Y-54148773D01*
X164601204Y-54124504D01*
X164600000Y-54100000D01*
X164600000Y-51100000D01*
X164601204Y-51075496D01*
X164604804Y-51051227D01*
X164610765Y-51027429D01*
X164619030Y-51004329D01*
X164629520Y-50982151D01*
X164642133Y-50961107D01*
X164656747Y-50941402D01*
X164673223Y-50923223D01*
X164691402Y-50906747D01*
X164711107Y-50892133D01*
X164732151Y-50879520D01*
X164754329Y-50869030D01*
X164777429Y-50860765D01*
X164801227Y-50854804D01*
X164825496Y-50851204D01*
X164850000Y-50850000D01*
X165950000Y-50850000D01*
X165974504Y-50851204D01*
X165974504Y-50851204D01*
G37*
D13*
X165400000Y-52600000D03*
D12*
G36*
X173174504Y-50851204D02*
G01*
X173198773Y-50854804D01*
X173222571Y-50860765D01*
X173245671Y-50869030D01*
X173267849Y-50879520D01*
X173288893Y-50892133D01*
X173308598Y-50906747D01*
X173326777Y-50923223D01*
X173343253Y-50941402D01*
X173357867Y-50961107D01*
X173370480Y-50982151D01*
X173380970Y-51004329D01*
X173389235Y-51027429D01*
X173395196Y-51051227D01*
X173398796Y-51075496D01*
X173400000Y-51100000D01*
X173400000Y-54100000D01*
X173398796Y-54124504D01*
X173395196Y-54148773D01*
X173389235Y-54172571D01*
X173380970Y-54195671D01*
X173370480Y-54217849D01*
X173357867Y-54238893D01*
X173343253Y-54258598D01*
X173326777Y-54276777D01*
X173308598Y-54293253D01*
X173288893Y-54307867D01*
X173267849Y-54320480D01*
X173245671Y-54330970D01*
X173222571Y-54339235D01*
X173198773Y-54345196D01*
X173174504Y-54348796D01*
X173150000Y-54350000D01*
X172050000Y-54350000D01*
X172025496Y-54348796D01*
X172001227Y-54345196D01*
X171977429Y-54339235D01*
X171954329Y-54330970D01*
X171932151Y-54320480D01*
X171911107Y-54307867D01*
X171891402Y-54293253D01*
X171873223Y-54276777D01*
X171856747Y-54258598D01*
X171842133Y-54238893D01*
X171829520Y-54217849D01*
X171819030Y-54195671D01*
X171810765Y-54172571D01*
X171804804Y-54148773D01*
X171801204Y-54124504D01*
X171800000Y-54100000D01*
X171800000Y-51100000D01*
X171801204Y-51075496D01*
X171804804Y-51051227D01*
X171810765Y-51027429D01*
X171819030Y-51004329D01*
X171829520Y-50982151D01*
X171842133Y-50961107D01*
X171856747Y-50941402D01*
X171873223Y-50923223D01*
X171891402Y-50906747D01*
X171911107Y-50892133D01*
X171932151Y-50879520D01*
X171954329Y-50869030D01*
X171977429Y-50860765D01*
X172001227Y-50854804D01*
X172025496Y-50851204D01*
X172050000Y-50850000D01*
X173150000Y-50850000D01*
X173174504Y-50851204D01*
X173174504Y-50851204D01*
G37*
D13*
X172600000Y-52600000D03*
D12*
G36*
X173174504Y-45251204D02*
G01*
X173198773Y-45254804D01*
X173222571Y-45260765D01*
X173245671Y-45269030D01*
X173267849Y-45279520D01*
X173288893Y-45292133D01*
X173308598Y-45306747D01*
X173326777Y-45323223D01*
X173343253Y-45341402D01*
X173357867Y-45361107D01*
X173370480Y-45382151D01*
X173380970Y-45404329D01*
X173389235Y-45427429D01*
X173395196Y-45451227D01*
X173398796Y-45475496D01*
X173400000Y-45500000D01*
X173400000Y-48500000D01*
X173398796Y-48524504D01*
X173395196Y-48548773D01*
X173389235Y-48572571D01*
X173380970Y-48595671D01*
X173370480Y-48617849D01*
X173357867Y-48638893D01*
X173343253Y-48658598D01*
X173326777Y-48676777D01*
X173308598Y-48693253D01*
X173288893Y-48707867D01*
X173267849Y-48720480D01*
X173245671Y-48730970D01*
X173222571Y-48739235D01*
X173198773Y-48745196D01*
X173174504Y-48748796D01*
X173150000Y-48750000D01*
X172050000Y-48750000D01*
X172025496Y-48748796D01*
X172001227Y-48745196D01*
X171977429Y-48739235D01*
X171954329Y-48730970D01*
X171932151Y-48720480D01*
X171911107Y-48707867D01*
X171891402Y-48693253D01*
X171873223Y-48676777D01*
X171856747Y-48658598D01*
X171842133Y-48638893D01*
X171829520Y-48617849D01*
X171819030Y-48595671D01*
X171810765Y-48572571D01*
X171804804Y-48548773D01*
X171801204Y-48524504D01*
X171800000Y-48500000D01*
X171800000Y-45500000D01*
X171801204Y-45475496D01*
X171804804Y-45451227D01*
X171810765Y-45427429D01*
X171819030Y-45404329D01*
X171829520Y-45382151D01*
X171842133Y-45361107D01*
X171856747Y-45341402D01*
X171873223Y-45323223D01*
X171891402Y-45306747D01*
X171911107Y-45292133D01*
X171932151Y-45279520D01*
X171954329Y-45269030D01*
X171977429Y-45260765D01*
X172001227Y-45254804D01*
X172025496Y-45251204D01*
X172050000Y-45250000D01*
X173150000Y-45250000D01*
X173174504Y-45251204D01*
X173174504Y-45251204D01*
G37*
D13*
X172600000Y-47000000D03*
D12*
G36*
X180374504Y-45251204D02*
G01*
X180398773Y-45254804D01*
X180422571Y-45260765D01*
X180445671Y-45269030D01*
X180467849Y-45279520D01*
X180488893Y-45292133D01*
X180508598Y-45306747D01*
X180526777Y-45323223D01*
X180543253Y-45341402D01*
X180557867Y-45361107D01*
X180570480Y-45382151D01*
X180580970Y-45404329D01*
X180589235Y-45427429D01*
X180595196Y-45451227D01*
X180598796Y-45475496D01*
X180600000Y-45500000D01*
X180600000Y-48500000D01*
X180598796Y-48524504D01*
X180595196Y-48548773D01*
X180589235Y-48572571D01*
X180580970Y-48595671D01*
X180570480Y-48617849D01*
X180557867Y-48638893D01*
X180543253Y-48658598D01*
X180526777Y-48676777D01*
X180508598Y-48693253D01*
X180488893Y-48707867D01*
X180467849Y-48720480D01*
X180445671Y-48730970D01*
X180422571Y-48739235D01*
X180398773Y-48745196D01*
X180374504Y-48748796D01*
X180350000Y-48750000D01*
X179250000Y-48750000D01*
X179225496Y-48748796D01*
X179201227Y-48745196D01*
X179177429Y-48739235D01*
X179154329Y-48730970D01*
X179132151Y-48720480D01*
X179111107Y-48707867D01*
X179091402Y-48693253D01*
X179073223Y-48676777D01*
X179056747Y-48658598D01*
X179042133Y-48638893D01*
X179029520Y-48617849D01*
X179019030Y-48595671D01*
X179010765Y-48572571D01*
X179004804Y-48548773D01*
X179001204Y-48524504D01*
X179000000Y-48500000D01*
X179000000Y-45500000D01*
X179001204Y-45475496D01*
X179004804Y-45451227D01*
X179010765Y-45427429D01*
X179019030Y-45404329D01*
X179029520Y-45382151D01*
X179042133Y-45361107D01*
X179056747Y-45341402D01*
X179073223Y-45323223D01*
X179091402Y-45306747D01*
X179111107Y-45292133D01*
X179132151Y-45279520D01*
X179154329Y-45269030D01*
X179177429Y-45260765D01*
X179201227Y-45254804D01*
X179225496Y-45251204D01*
X179250000Y-45250000D01*
X180350000Y-45250000D01*
X180374504Y-45251204D01*
X180374504Y-45251204D01*
G37*
D13*
X179800000Y-47000000D03*
D12*
G36*
X180374504Y-50851204D02*
G01*
X180398773Y-50854804D01*
X180422571Y-50860765D01*
X180445671Y-50869030D01*
X180467849Y-50879520D01*
X180488893Y-50892133D01*
X180508598Y-50906747D01*
X180526777Y-50923223D01*
X180543253Y-50941402D01*
X180557867Y-50961107D01*
X180570480Y-50982151D01*
X180580970Y-51004329D01*
X180589235Y-51027429D01*
X180595196Y-51051227D01*
X180598796Y-51075496D01*
X180600000Y-51100000D01*
X180600000Y-54100000D01*
X180598796Y-54124504D01*
X180595196Y-54148773D01*
X180589235Y-54172571D01*
X180580970Y-54195671D01*
X180570480Y-54217849D01*
X180557867Y-54238893D01*
X180543253Y-54258598D01*
X180526777Y-54276777D01*
X180508598Y-54293253D01*
X180488893Y-54307867D01*
X180467849Y-54320480D01*
X180445671Y-54330970D01*
X180422571Y-54339235D01*
X180398773Y-54345196D01*
X180374504Y-54348796D01*
X180350000Y-54350000D01*
X179250000Y-54350000D01*
X179225496Y-54348796D01*
X179201227Y-54345196D01*
X179177429Y-54339235D01*
X179154329Y-54330970D01*
X179132151Y-54320480D01*
X179111107Y-54307867D01*
X179091402Y-54293253D01*
X179073223Y-54276777D01*
X179056747Y-54258598D01*
X179042133Y-54238893D01*
X179029520Y-54217849D01*
X179019030Y-54195671D01*
X179010765Y-54172571D01*
X179004804Y-54148773D01*
X179001204Y-54124504D01*
X179000000Y-54100000D01*
X179000000Y-51100000D01*
X179001204Y-51075496D01*
X179004804Y-51051227D01*
X179010765Y-51027429D01*
X179019030Y-51004329D01*
X179029520Y-50982151D01*
X179042133Y-50961107D01*
X179056747Y-50941402D01*
X179073223Y-50923223D01*
X179091402Y-50906747D01*
X179111107Y-50892133D01*
X179132151Y-50879520D01*
X179154329Y-50869030D01*
X179177429Y-50860765D01*
X179201227Y-50854804D01*
X179225496Y-50851204D01*
X179250000Y-50850000D01*
X180350000Y-50850000D01*
X180374504Y-50851204D01*
X180374504Y-50851204D01*
G37*
D13*
X179800000Y-52600000D03*
D14*
X167750000Y-27300000D03*
X170290000Y-27300000D03*
X172830000Y-27300000D03*
X175370000Y-27300000D03*
X177910000Y-27300000D03*
X180450000Y-27300000D03*
D15*
X141700000Y-64200000D03*
D16*
X135200000Y-65100000D03*
D15*
X128700000Y-64200000D03*
D17*
X138600000Y-58700000D03*
D18*
X138600000Y-61200000D03*
D17*
X131800000Y-61200000D03*
X131800000Y-58700000D03*
D19*
X103800000Y-55700000D03*
D13*
X101510000Y-55700000D03*
X99220000Y-55700000D03*
X96930000Y-55700000D03*
X94640000Y-55700000D03*
X104945000Y-58240000D03*
X102655000Y-58240000D03*
X100365000Y-58240000D03*
X98075000Y-58240000D03*
X95785000Y-58240000D03*
X103800000Y-60780000D03*
X101510000Y-60780000D03*
X99220000Y-60780000D03*
X96930000Y-60780000D03*
X94640000Y-60780000D03*
D20*
X86985000Y-58240000D03*
X111985000Y-58240000D03*
D21*
X120600000Y-60500000D03*
X120600000Y-66000000D03*
X122600000Y-68500000D03*
X122600000Y-62400000D03*
X122600000Y-56900000D03*
D22*
X118150000Y-58600000D03*
X126750000Y-58600000D03*
X126750000Y-67500000D03*
D23*
X102075000Y-47600000D03*
D12*
G36*
X101575000Y-46850000D02*
G01*
X102725000Y-46850000D01*
X102225000Y-47600000D01*
X102725000Y-48350000D01*
X101575000Y-48350000D01*
X101575000Y-46850000D01*
X101575000Y-46850000D01*
G37*
D23*
X103525000Y-47600000D03*
D12*
G36*
X102525000Y-47600000D02*
G01*
X103025000Y-46850000D01*
X104025000Y-46850000D01*
X104025000Y-48350000D01*
X103025000Y-48350000D01*
X102525000Y-47600000D01*
X102525000Y-47600000D01*
G37*
G36*
X102099505Y-49201204D02*
G01*
X102123773Y-49204804D01*
X102147572Y-49210765D01*
X102170671Y-49219030D01*
X102192850Y-49229520D01*
X102213893Y-49242132D01*
X102233599Y-49256747D01*
X102251777Y-49273223D01*
X102268253Y-49291401D01*
X102282868Y-49311107D01*
X102295480Y-49332150D01*
X102305970Y-49354329D01*
X102314235Y-49377428D01*
X102320196Y-49401227D01*
X102323796Y-49425495D01*
X102325000Y-49449999D01*
X102325000Y-50350001D01*
X102323796Y-50374505D01*
X102320196Y-50398773D01*
X102314235Y-50422572D01*
X102305970Y-50445671D01*
X102295480Y-50467850D01*
X102282868Y-50488893D01*
X102268253Y-50508599D01*
X102251777Y-50526777D01*
X102233599Y-50543253D01*
X102213893Y-50557868D01*
X102192850Y-50570480D01*
X102170671Y-50580970D01*
X102147572Y-50589235D01*
X102123773Y-50595196D01*
X102099505Y-50598796D01*
X102075001Y-50600000D01*
X101424999Y-50600000D01*
X101400495Y-50598796D01*
X101376227Y-50595196D01*
X101352428Y-50589235D01*
X101329329Y-50580970D01*
X101307150Y-50570480D01*
X101286107Y-50557868D01*
X101266401Y-50543253D01*
X101248223Y-50526777D01*
X101231747Y-50508599D01*
X101217132Y-50488893D01*
X101204520Y-50467850D01*
X101194030Y-50445671D01*
X101185765Y-50422572D01*
X101179804Y-50398773D01*
X101176204Y-50374505D01*
X101175000Y-50350001D01*
X101175000Y-49449999D01*
X101176204Y-49425495D01*
X101179804Y-49401227D01*
X101185765Y-49377428D01*
X101194030Y-49354329D01*
X101204520Y-49332150D01*
X101217132Y-49311107D01*
X101231747Y-49291401D01*
X101248223Y-49273223D01*
X101266401Y-49256747D01*
X101286107Y-49242132D01*
X101307150Y-49229520D01*
X101329329Y-49219030D01*
X101352428Y-49210765D01*
X101376227Y-49204804D01*
X101400495Y-49201204D01*
X101424999Y-49200000D01*
X102075001Y-49200000D01*
X102099505Y-49201204D01*
X102099505Y-49201204D01*
G37*
D24*
X101750000Y-49900000D03*
D12*
G36*
X104149505Y-49201204D02*
G01*
X104173773Y-49204804D01*
X104197572Y-49210765D01*
X104220671Y-49219030D01*
X104242850Y-49229520D01*
X104263893Y-49242132D01*
X104283599Y-49256747D01*
X104301777Y-49273223D01*
X104318253Y-49291401D01*
X104332868Y-49311107D01*
X104345480Y-49332150D01*
X104355970Y-49354329D01*
X104364235Y-49377428D01*
X104370196Y-49401227D01*
X104373796Y-49425495D01*
X104375000Y-49449999D01*
X104375000Y-50350001D01*
X104373796Y-50374505D01*
X104370196Y-50398773D01*
X104364235Y-50422572D01*
X104355970Y-50445671D01*
X104345480Y-50467850D01*
X104332868Y-50488893D01*
X104318253Y-50508599D01*
X104301777Y-50526777D01*
X104283599Y-50543253D01*
X104263893Y-50557868D01*
X104242850Y-50570480D01*
X104220671Y-50580970D01*
X104197572Y-50589235D01*
X104173773Y-50595196D01*
X104149505Y-50598796D01*
X104125001Y-50600000D01*
X103474999Y-50600000D01*
X103450495Y-50598796D01*
X103426227Y-50595196D01*
X103402428Y-50589235D01*
X103379329Y-50580970D01*
X103357150Y-50570480D01*
X103336107Y-50557868D01*
X103316401Y-50543253D01*
X103298223Y-50526777D01*
X103281747Y-50508599D01*
X103267132Y-50488893D01*
X103254520Y-50467850D01*
X103244030Y-50445671D01*
X103235765Y-50422572D01*
X103229804Y-50398773D01*
X103226204Y-50374505D01*
X103225000Y-50350001D01*
X103225000Y-49449999D01*
X103226204Y-49425495D01*
X103229804Y-49401227D01*
X103235765Y-49377428D01*
X103244030Y-49354329D01*
X103254520Y-49332150D01*
X103267132Y-49311107D01*
X103281747Y-49291401D01*
X103298223Y-49273223D01*
X103316401Y-49256747D01*
X103336107Y-49242132D01*
X103357150Y-49229520D01*
X103379329Y-49219030D01*
X103402428Y-49210765D01*
X103426227Y-49204804D01*
X103450495Y-49201204D01*
X103474999Y-49200000D01*
X104125001Y-49200000D01*
X104149505Y-49201204D01*
X104149505Y-49201204D01*
G37*
D24*
X103800000Y-49900000D03*
D25*
X172500000Y-44500000D03*
X178505238Y-43069442D03*
X163200000Y-55800000D03*
X143600000Y-56300000D03*
X150000000Y-58000000D03*
X157600000Y-57100000D03*
X163500000Y-53700000D03*
X166000000Y-58500000D03*
X170700000Y-55400000D03*
X172300000Y-58500000D03*
X178700000Y-56800000D03*
X182400000Y-49100000D03*
X177500000Y-47600000D03*
X175000000Y-43700000D03*
X170300000Y-48000000D03*
X168800000Y-44700000D03*
X169100000Y-36600000D03*
X172400000Y-39100000D03*
X166300000Y-35900000D03*
X178800000Y-36700000D03*
X179300000Y-30500000D03*
X85000000Y-65000000D03*
X90000000Y-65000000D03*
X95000000Y-65000000D03*
X100000000Y-65000000D03*
X105000000Y-65000000D03*
X110000000Y-65000000D03*
X115000000Y-65000000D03*
X85000000Y-55000000D03*
X90000000Y-55000000D03*
X95000000Y-50000000D03*
X85000000Y-50000000D03*
X110000000Y-50000000D03*
X115000000Y-50000000D03*
X120000000Y-50000000D03*
X125000000Y-50000000D03*
X140000000Y-50000000D03*
X145000000Y-50000000D03*
X150000000Y-50000000D03*
X160000000Y-50000000D03*
X125000000Y-65000000D03*
X145000000Y-65000000D03*
X150000000Y-65000000D03*
X160000000Y-65000000D03*
X165000000Y-65000000D03*
X170000000Y-65000000D03*
X175000000Y-65000000D03*
X180000000Y-65000000D03*
X157100000Y-63900000D03*
D26*
X167750000Y-44650000D02*
X165400000Y-47000000D01*
X167750000Y-27300000D02*
X167750000Y-44650000D01*
X169124969Y-49975031D02*
X181224969Y-49975031D01*
X165400000Y-52600000D02*
X166500000Y-52600000D01*
X166500000Y-52600000D02*
X169124969Y-49975031D01*
X182050000Y-50800062D02*
X182050000Y-57200000D01*
X181224969Y-49975031D02*
X182050000Y-50800062D01*
X104850000Y-55700000D02*
X103800000Y-55700000D01*
X126129950Y-55700000D02*
X104850000Y-55700000D01*
X180800000Y-57200000D02*
X178024980Y-59975020D01*
X182050000Y-57200000D02*
X180800000Y-57200000D01*
X130158951Y-59729001D02*
X126129950Y-55700000D01*
X146336735Y-59975020D02*
X144261715Y-57900000D01*
X178024980Y-59975020D02*
X146336735Y-59975020D01*
X144261715Y-57900000D02*
X140922922Y-57900000D01*
X139093921Y-59729001D02*
X130158951Y-59729001D01*
X140922922Y-57900000D02*
X139093921Y-59729001D01*
X172600000Y-55523847D02*
X168598837Y-59525010D01*
X172600000Y-52600000D02*
X172600000Y-55523847D01*
X155300000Y-57200000D02*
X154050000Y-57200000D01*
X168598837Y-59525010D02*
X157625010Y-59525010D01*
X157625010Y-59525010D02*
X155300000Y-57200000D01*
X172500000Y-46900000D02*
X172600000Y-47000000D01*
X172500000Y-44500000D02*
X172500000Y-46900000D01*
X179800000Y-47000000D02*
X179800000Y-44364204D01*
X178905237Y-43469441D02*
X178505238Y-43069442D01*
X179800000Y-44364204D02*
X178905237Y-43469441D01*
X168050000Y-54950000D02*
X168050000Y-57200000D01*
X168050000Y-54286810D02*
X168050000Y-54950000D01*
X171911769Y-50425041D02*
X168050000Y-54286810D01*
X177625041Y-50425041D02*
X171911769Y-50425041D01*
X179800000Y-52600000D02*
X177625041Y-50425041D01*
X168050000Y-57200000D02*
X168050000Y-57850000D01*
X168050000Y-57200000D02*
X164600000Y-57200000D01*
X164600000Y-57200000D02*
X163200000Y-55800000D01*
X103525000Y-49625000D02*
X103800000Y-49900000D01*
X103525000Y-47600000D02*
X103525000Y-49625000D01*
X104095710Y-48170710D02*
X103525000Y-47600000D01*
X170290000Y-44973190D02*
X166188180Y-49075010D01*
X170290000Y-27300000D02*
X170290000Y-44973190D01*
X166188180Y-49075010D02*
X163824990Y-49075010D01*
X163824990Y-49075010D02*
X159300000Y-53600000D01*
X159300000Y-53600000D02*
X109525000Y-53600000D01*
X109525000Y-53600000D02*
X104095710Y-48170710D01*
X164274979Y-49525021D02*
X159600000Y-54200000D01*
X139303999Y-57996001D02*
X138600000Y-58700000D01*
X159600000Y-54200000D02*
X143100000Y-54200000D01*
X175370000Y-27300000D02*
X175370000Y-40529600D01*
X175370000Y-40529600D02*
X166374580Y-49525021D01*
X143100000Y-54200000D02*
X139303999Y-57996001D01*
X166374580Y-49525021D02*
X164274979Y-49525021D01*
X171686799Y-48949989D02*
X167586022Y-48949989D01*
X177910000Y-42591676D02*
X177780236Y-42721440D01*
X167586022Y-48949989D02*
X166560980Y-49975031D01*
X150349989Y-54650011D02*
X147800000Y-57200000D01*
X166560980Y-49975031D02*
X164525369Y-49975031D01*
X164525369Y-49975031D02*
X159850389Y-54650011D01*
X159850389Y-54650011D02*
X150349989Y-54650011D01*
X173388180Y-49075010D02*
X171811820Y-49075010D01*
X177780236Y-44682954D02*
X173388180Y-49075010D01*
X177780236Y-42721440D02*
X177780236Y-44682954D01*
X147800000Y-57200000D02*
X146550000Y-57200000D01*
X177910000Y-27300000D02*
X177910000Y-42591676D01*
X171811820Y-49075010D02*
X171686799Y-48949989D01*
X160550000Y-54586810D02*
X160550000Y-54950000D01*
X164711769Y-50425042D02*
X160550000Y-54586810D01*
X166747380Y-50425042D02*
X164711769Y-50425042D01*
X171500399Y-49400000D02*
X167772422Y-49400000D01*
X171625420Y-49525021D02*
X171500399Y-49400000D01*
X167772422Y-49400000D02*
X166747380Y-50425042D01*
X173574580Y-49525021D02*
X171625420Y-49525021D01*
X173699601Y-49400000D02*
X173574580Y-49525021D01*
X174872821Y-49400000D02*
X173699601Y-49400000D01*
X175172821Y-49100000D02*
X174872821Y-49400000D01*
X160550000Y-54950000D02*
X160550000Y-57200000D01*
X180925010Y-29566790D02*
X180925010Y-48738180D01*
X180450000Y-29091780D02*
X180925010Y-29566790D01*
X180450000Y-27300000D02*
X180450000Y-29091780D01*
X180563190Y-49100000D02*
X175172821Y-49100000D01*
X180925010Y-48738180D02*
X180563190Y-49100000D01*
X133786725Y-66775010D02*
X154790675Y-66775010D01*
X120600000Y-60500000D02*
X127511715Y-60500000D01*
X154790675Y-66775010D02*
X157100000Y-64465685D01*
X157100000Y-64465685D02*
X157100000Y-63900000D01*
X127511715Y-60500000D02*
X133786725Y-66775010D01*
X102075000Y-49575000D02*
X101750000Y-49900000D01*
X102075000Y-47600000D02*
X102075000Y-49575000D01*
X98420001Y-61579999D02*
X99220000Y-60780000D01*
X98094999Y-61905001D02*
X98420001Y-61579999D01*
X94099999Y-61905001D02*
X98094999Y-61905001D01*
X93514999Y-55159999D02*
X93514999Y-61320001D01*
X93514999Y-61320001D02*
X94099999Y-61905001D01*
X98774998Y-49900000D02*
X93514999Y-55159999D01*
X101750000Y-49900000D02*
X98774998Y-49900000D01*
D27*
G36*
X163961928Y-45500000D02*
G01*
X163961928Y-48315010D01*
X163862312Y-48315010D01*
X163824989Y-48311334D01*
X163787666Y-48315010D01*
X163787657Y-48315010D01*
X163676004Y-48326007D01*
X163532743Y-48369464D01*
X163400714Y-48440036D01*
X163284989Y-48535009D01*
X163261191Y-48564007D01*
X158985199Y-52840000D01*
X135106222Y-52840000D01*
X135203399Y-52799748D01*
X135757812Y-52429302D01*
X136229302Y-51957812D01*
X136599748Y-51403399D01*
X136854917Y-50787368D01*
X136985000Y-50133393D01*
X136985000Y-49579872D01*
X153565000Y-49579872D01*
X153565000Y-50020128D01*
X153650890Y-50451925D01*
X153819369Y-50858669D01*
X154063962Y-51224729D01*
X154375271Y-51536038D01*
X154741331Y-51780631D01*
X155148075Y-51949110D01*
X155579872Y-52035000D01*
X156020128Y-52035000D01*
X156451925Y-51949110D01*
X156858669Y-51780631D01*
X157224729Y-51536038D01*
X157536038Y-51224729D01*
X157780631Y-50858669D01*
X157949110Y-50451925D01*
X158035000Y-50020128D01*
X158035000Y-49579872D01*
X157949110Y-49148075D01*
X157780631Y-48741331D01*
X157536038Y-48375271D01*
X157224729Y-48063962D01*
X156858669Y-47819369D01*
X156451925Y-47650890D01*
X156020128Y-47565000D01*
X155579872Y-47565000D01*
X155148075Y-47650890D01*
X154741331Y-47819369D01*
X154375271Y-48063962D01*
X154063962Y-48375271D01*
X153819369Y-48741331D01*
X153650890Y-49148075D01*
X153565000Y-49579872D01*
X136985000Y-49579872D01*
X136985000Y-49466607D01*
X136854917Y-48812632D01*
X136599748Y-48196601D01*
X136229302Y-47642188D01*
X135757812Y-47170698D01*
X135203399Y-46800252D01*
X134587368Y-46545083D01*
X133933393Y-46415000D01*
X133266607Y-46415000D01*
X132612632Y-46545083D01*
X131996601Y-46800252D01*
X131442188Y-47170698D01*
X130970698Y-47642188D01*
X130600252Y-48196601D01*
X130345083Y-48812632D01*
X130215000Y-49466607D01*
X130215000Y-50133393D01*
X130345083Y-50787368D01*
X130600252Y-51403399D01*
X130970698Y-51957812D01*
X131442188Y-52429302D01*
X131996601Y-52799748D01*
X132093778Y-52840000D01*
X109839802Y-52840000D01*
X104663072Y-47663271D01*
X104663072Y-46850000D01*
X104650812Y-46725518D01*
X104614502Y-46605820D01*
X104555537Y-46495506D01*
X104476185Y-46398815D01*
X104379494Y-46319463D01*
X104269180Y-46260498D01*
X104149482Y-46224188D01*
X104025000Y-46211928D01*
X103025000Y-46211928D01*
X102899864Y-46224319D01*
X102874936Y-46231909D01*
X102849482Y-46224188D01*
X102725000Y-46211928D01*
X101575000Y-46211928D01*
X101450518Y-46224188D01*
X101330820Y-46260498D01*
X101220506Y-46319463D01*
X101123815Y-46398815D01*
X101044463Y-46495506D01*
X100985498Y-46605820D01*
X100949188Y-46725518D01*
X100936928Y-46850000D01*
X100936928Y-48350000D01*
X100949188Y-48474482D01*
X100985498Y-48594180D01*
X101022338Y-48663101D01*
X100931613Y-48711595D01*
X100797038Y-48822038D01*
X100686595Y-48956613D01*
X100604528Y-49110149D01*
X100595473Y-49140000D01*
X98812321Y-49140000D01*
X98774998Y-49136324D01*
X98737675Y-49140000D01*
X98737665Y-49140000D01*
X98626012Y-49150997D01*
X98482751Y-49194454D01*
X98350721Y-49265026D01*
X98329120Y-49282754D01*
X98234997Y-49359999D01*
X98211199Y-49388997D01*
X93004002Y-54596195D01*
X92974998Y-54619998D01*
X92945600Y-54655820D01*
X92880025Y-54735723D01*
X92843116Y-54804774D01*
X92809453Y-54867753D01*
X92765996Y-55011014D01*
X92754999Y-55122667D01*
X92754999Y-55122677D01*
X92751323Y-55159999D01*
X92754999Y-55197322D01*
X92755000Y-61282669D01*
X92751323Y-61320001D01*
X92755000Y-61357334D01*
X92765997Y-61468987D01*
X92769558Y-61480725D01*
X92809453Y-61612247D01*
X92880025Y-61744277D01*
X92951200Y-61831003D01*
X92974999Y-61860002D01*
X93003997Y-61883800D01*
X93536199Y-62416003D01*
X93559998Y-62445002D01*
X93588996Y-62468800D01*
X93675722Y-62539975D01*
X93807752Y-62610547D01*
X93951013Y-62654004D01*
X94062666Y-62665001D01*
X94062676Y-62665001D01*
X94099999Y-62668677D01*
X94137322Y-62665001D01*
X98057677Y-62665001D01*
X98094999Y-62668677D01*
X98132321Y-62665001D01*
X98132332Y-62665001D01*
X98243985Y-62654004D01*
X98387246Y-62610547D01*
X98519275Y-62539975D01*
X98635000Y-62445002D01*
X98658803Y-62415998D01*
X98896113Y-62178688D01*
X99078665Y-62215000D01*
X99361335Y-62215000D01*
X99638574Y-62159853D01*
X99899727Y-62051680D01*
X100134759Y-61894637D01*
X100334637Y-61694759D01*
X100365000Y-61649317D01*
X100395363Y-61694759D01*
X100595241Y-61894637D01*
X100830273Y-62051680D01*
X101091426Y-62159853D01*
X101368665Y-62215000D01*
X101651335Y-62215000D01*
X101928574Y-62159853D01*
X102189727Y-62051680D01*
X102424759Y-61894637D01*
X102624637Y-61694759D01*
X102655000Y-61649317D01*
X102685363Y-61694759D01*
X102885241Y-61894637D01*
X103120273Y-62051680D01*
X103381426Y-62159853D01*
X103658665Y-62215000D01*
X103941335Y-62215000D01*
X104218574Y-62159853D01*
X104479727Y-62051680D01*
X104714759Y-61894637D01*
X104914637Y-61694759D01*
X105071680Y-61459727D01*
X105179853Y-61198574D01*
X105235000Y-60921335D01*
X105235000Y-60638665D01*
X105179853Y-60361426D01*
X105071680Y-60100273D01*
X105063145Y-60087499D01*
X110317106Y-60087499D01*
X110533228Y-60454258D01*
X110993105Y-60694938D01*
X111491098Y-60841275D01*
X112008071Y-60887648D01*
X112524159Y-60832273D01*
X113019526Y-60677279D01*
X113436772Y-60454258D01*
X113652894Y-60087499D01*
X111985000Y-58419605D01*
X110317106Y-60087499D01*
X105063145Y-60087499D01*
X104914637Y-59865241D01*
X104714759Y-59665363D01*
X104705941Y-59659471D01*
X104733184Y-59666300D01*
X105015512Y-59680217D01*
X105295130Y-59638787D01*
X105561292Y-59543603D01*
X105686514Y-59476671D01*
X105758097Y-59232702D01*
X104945000Y-58419605D01*
X104131903Y-59232702D01*
X104178706Y-59392217D01*
X103941335Y-59345000D01*
X103658665Y-59345000D01*
X103421294Y-59392217D01*
X103468097Y-59232702D01*
X102655000Y-58419605D01*
X101841903Y-59232702D01*
X101888706Y-59392217D01*
X101651335Y-59345000D01*
X101368665Y-59345000D01*
X101131294Y-59392217D01*
X101178097Y-59232702D01*
X100365000Y-58419605D01*
X99551903Y-59232702D01*
X99598706Y-59392217D01*
X99361335Y-59345000D01*
X99078665Y-59345000D01*
X98972609Y-59366096D01*
X98989759Y-59354637D01*
X99189637Y-59154759D01*
X99276372Y-59024951D01*
X99372298Y-59053097D01*
X100185395Y-58240000D01*
X100544605Y-58240000D01*
X101357702Y-59053097D01*
X101510000Y-59008411D01*
X101662298Y-59053097D01*
X102475395Y-58240000D01*
X102834605Y-58240000D01*
X103647702Y-59053097D01*
X103800000Y-59008411D01*
X103952298Y-59053097D01*
X104765395Y-58240000D01*
X105124605Y-58240000D01*
X105937702Y-59053097D01*
X106181671Y-58981514D01*
X106302571Y-58726004D01*
X106371300Y-58451816D01*
X106385217Y-58169488D01*
X106343787Y-57889870D01*
X106248603Y-57623708D01*
X106181671Y-57498486D01*
X105937702Y-57426903D01*
X105124605Y-58240000D01*
X104765395Y-58240000D01*
X103952298Y-57426903D01*
X103800000Y-57471589D01*
X103647702Y-57426903D01*
X102834605Y-58240000D01*
X102475395Y-58240000D01*
X101662298Y-57426903D01*
X101510000Y-57471589D01*
X101357702Y-57426903D01*
X100544605Y-58240000D01*
X100185395Y-58240000D01*
X99372298Y-57426903D01*
X99276372Y-57455049D01*
X99189637Y-57325241D01*
X98989759Y-57125363D01*
X98972609Y-57113904D01*
X99078665Y-57135000D01*
X99361335Y-57135000D01*
X99598706Y-57087783D01*
X99551903Y-57247298D01*
X100365000Y-58060395D01*
X101178097Y-57247298D01*
X101131294Y-57087783D01*
X101368665Y-57135000D01*
X101651335Y-57135000D01*
X101888706Y-57087783D01*
X101841903Y-57247298D01*
X102655000Y-58060395D01*
X103468097Y-57247298D01*
X103436049Y-57138072D01*
X104163951Y-57138072D01*
X104131903Y-57247298D01*
X104945000Y-58060395D01*
X105758097Y-57247298D01*
X105686514Y-57003329D01*
X105431004Y-56882429D01*
X105156816Y-56813700D01*
X105152457Y-56813485D01*
X105189502Y-56744180D01*
X105225812Y-56624482D01*
X105238072Y-56500000D01*
X105238072Y-56460000D01*
X110025392Y-56460000D01*
X110137499Y-56572107D01*
X109770742Y-56788228D01*
X109530062Y-57248105D01*
X109383725Y-57746098D01*
X109337352Y-58263071D01*
X109392727Y-58779159D01*
X109547721Y-59274526D01*
X109770742Y-59691772D01*
X110137501Y-59907894D01*
X111805395Y-58240000D01*
X111791253Y-58225858D01*
X111970858Y-58046253D01*
X111985000Y-58060395D01*
X111999143Y-58046253D01*
X112178748Y-58225858D01*
X112164605Y-58240000D01*
X113832499Y-59907894D01*
X114199258Y-59691772D01*
X114439938Y-59231895D01*
X114586275Y-58733902D01*
X114586894Y-58727000D01*
X116761000Y-58727000D01*
X116761000Y-59481000D01*
X116812466Y-59749540D01*
X116915332Y-60002880D01*
X117065646Y-60231284D01*
X117257631Y-60425974D01*
X117483909Y-60579469D01*
X117735785Y-60685870D01*
X117808186Y-60700286D01*
X118023000Y-60577677D01*
X118023000Y-58727000D01*
X116761000Y-58727000D01*
X114586894Y-58727000D01*
X114632648Y-58216929D01*
X114577273Y-57700841D01*
X114422279Y-57205474D01*
X114199258Y-56788228D01*
X113832501Y-56572107D01*
X113944608Y-56460000D01*
X118022998Y-56460000D01*
X118022998Y-56622322D01*
X117808186Y-56499714D01*
X117735785Y-56514130D01*
X117483909Y-56620531D01*
X117257631Y-56774026D01*
X117065646Y-56968716D01*
X116915332Y-57197120D01*
X116812466Y-57450460D01*
X116761000Y-57719000D01*
X116761000Y-58473000D01*
X118023000Y-58473000D01*
X118023000Y-58453000D01*
X118277000Y-58453000D01*
X118277000Y-58473000D01*
X119539000Y-58473000D01*
X119539000Y-57719000D01*
X119487534Y-57450460D01*
X119384668Y-57197120D01*
X119234354Y-56968716D01*
X119042369Y-56774026D01*
X118816091Y-56620531D01*
X118564215Y-56514130D01*
X118491814Y-56499714D01*
X118277002Y-56622322D01*
X118277002Y-56460000D01*
X120527972Y-56460000D01*
X120477098Y-56627709D01*
X120450280Y-56900000D01*
X120477098Y-57172291D01*
X120556523Y-57434119D01*
X120685501Y-57675420D01*
X120859077Y-57886923D01*
X121070580Y-58060499D01*
X121311881Y-58189477D01*
X121573709Y-58268902D01*
X121777770Y-58289000D01*
X123422230Y-58289000D01*
X123626291Y-58268902D01*
X123888119Y-58189477D01*
X124129420Y-58060499D01*
X124340923Y-57886923D01*
X124514499Y-57675420D01*
X124643477Y-57434119D01*
X124722902Y-57172291D01*
X124749720Y-56900000D01*
X124722902Y-56627709D01*
X124672028Y-56460000D01*
X125815149Y-56460000D01*
X126019423Y-56664275D01*
X125857631Y-56774026D01*
X125665646Y-56968716D01*
X125515332Y-57197120D01*
X125412466Y-57450460D01*
X125361000Y-57719000D01*
X125361000Y-58473000D01*
X126623000Y-58473000D01*
X126623000Y-58453000D01*
X126877000Y-58453000D01*
X126877000Y-58473000D01*
X126897000Y-58473000D01*
X126897000Y-58727000D01*
X126877000Y-58727000D01*
X126877000Y-58747000D01*
X126623000Y-58747000D01*
X126623000Y-58727000D01*
X125361000Y-58727000D01*
X125361000Y-59481000D01*
X125410638Y-59740000D01*
X122522741Y-59740000D01*
X122514499Y-59724580D01*
X122340923Y-59513077D01*
X122129420Y-59339501D01*
X121888119Y-59210523D01*
X121626291Y-59131098D01*
X121422230Y-59111000D01*
X119777770Y-59111000D01*
X119573709Y-59131098D01*
X119539000Y-59141627D01*
X119539000Y-58727000D01*
X118277000Y-58727000D01*
X118277000Y-60577677D01*
X118468707Y-60687097D01*
X118477098Y-60772291D01*
X118556523Y-61034119D01*
X118685501Y-61275420D01*
X118859077Y-61486923D01*
X119070580Y-61660499D01*
X119311881Y-61789477D01*
X119573709Y-61868902D01*
X119777770Y-61889000D01*
X120549510Y-61889000D01*
X120477098Y-62127709D01*
X120450280Y-62400000D01*
X120477098Y-62672291D01*
X120556523Y-62934119D01*
X120685501Y-63175420D01*
X120859077Y-63386923D01*
X121070580Y-63560499D01*
X121311881Y-63689477D01*
X121573709Y-63768902D01*
X121777770Y-63789000D01*
X123422230Y-63789000D01*
X123626291Y-63768902D01*
X123888119Y-63689477D01*
X124129420Y-63560499D01*
X124340923Y-63386923D01*
X124514499Y-63175420D01*
X124643477Y-62934119D01*
X124722902Y-62672291D01*
X124749720Y-62400000D01*
X124722902Y-62127709D01*
X124643477Y-61865881D01*
X124514499Y-61624580D01*
X124340923Y-61413077D01*
X124154398Y-61260000D01*
X127196914Y-61260000D01*
X127981308Y-62044394D01*
X127980574Y-62044709D01*
X127739748Y-62210143D01*
X127535824Y-62419381D01*
X127376639Y-62664382D01*
X127268310Y-62935731D01*
X127215000Y-63223000D01*
X127215000Y-64073000D01*
X128573000Y-64073000D01*
X128573000Y-64053000D01*
X128827000Y-64053000D01*
X128827000Y-64073000D01*
X128847000Y-64073000D01*
X128847000Y-64327000D01*
X128827000Y-64327000D01*
X128827000Y-66370155D01*
X129056890Y-66491476D01*
X129150953Y-66470563D01*
X129419426Y-66355291D01*
X129660252Y-66189857D01*
X129864176Y-65980619D01*
X130023361Y-65735618D01*
X130131690Y-65464269D01*
X130185000Y-65177000D01*
X130185000Y-64248086D01*
X133222926Y-67286013D01*
X133246724Y-67315011D01*
X133362449Y-67409984D01*
X133494478Y-67480556D01*
X133637739Y-67524013D01*
X133749392Y-67535010D01*
X133749401Y-67535010D01*
X133786724Y-67538686D01*
X133824047Y-67535010D01*
X154753353Y-67535010D01*
X154790675Y-67538686D01*
X154827997Y-67535010D01*
X154828008Y-67535010D01*
X154939661Y-67524013D01*
X155082922Y-67480556D01*
X155214951Y-67409984D01*
X155330676Y-67315011D01*
X155354479Y-67286007D01*
X157611004Y-65029483D01*
X157640001Y-65005686D01*
X157734974Y-64889961D01*
X157805546Y-64757932D01*
X157848987Y-64614724D01*
X157886711Y-64577000D01*
X166315000Y-64577000D01*
X166315000Y-65477000D01*
X166373114Y-65813041D01*
X166495670Y-66131288D01*
X166677958Y-66419511D01*
X166912973Y-66666633D01*
X167191683Y-66863157D01*
X167503378Y-67001531D01*
X167653878Y-67039175D01*
X167923000Y-66921125D01*
X167923000Y-64577000D01*
X168177000Y-64577000D01*
X168177000Y-66921125D01*
X168446122Y-67039175D01*
X168596622Y-67001531D01*
X168908317Y-66863157D01*
X169187027Y-66666633D01*
X169422042Y-66419511D01*
X169604330Y-66131288D01*
X169726886Y-65813041D01*
X169785000Y-65477000D01*
X169785000Y-64577000D01*
X180315000Y-64577000D01*
X180315000Y-65477000D01*
X180373114Y-65813041D01*
X180495670Y-66131288D01*
X180677958Y-66419511D01*
X180912973Y-66666633D01*
X181191683Y-66863157D01*
X181503378Y-67001531D01*
X181653878Y-67039175D01*
X181923000Y-66921125D01*
X181923000Y-64577000D01*
X180315000Y-64577000D01*
X169785000Y-64577000D01*
X168177000Y-64577000D01*
X167923000Y-64577000D01*
X166315000Y-64577000D01*
X157886711Y-64577000D01*
X157903937Y-64559774D01*
X158017205Y-64390256D01*
X158095226Y-64201898D01*
X158135000Y-64001939D01*
X158135000Y-63798061D01*
X158095226Y-63598102D01*
X158022696Y-63423000D01*
X166315000Y-63423000D01*
X166315000Y-64323000D01*
X167923000Y-64323000D01*
X167923000Y-61978875D01*
X168177000Y-61978875D01*
X168177000Y-64323000D01*
X169785000Y-64323000D01*
X169785000Y-63423000D01*
X180315000Y-63423000D01*
X180315000Y-64323000D01*
X181923000Y-64323000D01*
X181923000Y-61978875D01*
X181653878Y-61860825D01*
X181503378Y-61898469D01*
X181191683Y-62036843D01*
X180912973Y-62233367D01*
X180677958Y-62480489D01*
X180495670Y-62768712D01*
X180373114Y-63086959D01*
X180315000Y-63423000D01*
X169785000Y-63423000D01*
X169726886Y-63086959D01*
X169604330Y-62768712D01*
X169422042Y-62480489D01*
X169187027Y-62233367D01*
X168908317Y-62036843D01*
X168596622Y-61898469D01*
X168446122Y-61860825D01*
X168177000Y-61978875D01*
X167923000Y-61978875D01*
X167653878Y-61860825D01*
X167503378Y-61898469D01*
X167191683Y-62036843D01*
X166912973Y-62233367D01*
X166677958Y-62480489D01*
X166495670Y-62768712D01*
X166373114Y-63086959D01*
X166315000Y-63423000D01*
X158022696Y-63423000D01*
X158017205Y-63409744D01*
X157903937Y-63240226D01*
X157759774Y-63096063D01*
X157590256Y-62982795D01*
X157401898Y-62904774D01*
X157201939Y-62865000D01*
X156998061Y-62865000D01*
X156798102Y-62904774D01*
X156609744Y-62982795D01*
X156440226Y-63096063D01*
X156296063Y-63240226D01*
X156182795Y-63409744D01*
X156104774Y-63598102D01*
X156065000Y-63798061D01*
X156065000Y-64001939D01*
X156104774Y-64201898D01*
X156158728Y-64332155D01*
X155785000Y-64705883D01*
X155785000Y-64577000D01*
X154177000Y-64577000D01*
X154177000Y-64597000D01*
X153923000Y-64597000D01*
X153923000Y-64577000D01*
X152315000Y-64577000D01*
X152315000Y-65477000D01*
X152373114Y-65813041D01*
X152450892Y-66015010D01*
X142830658Y-66015010D01*
X142864176Y-65980619D01*
X143023361Y-65735618D01*
X143131690Y-65464269D01*
X143185000Y-65177000D01*
X143185000Y-64327000D01*
X141827000Y-64327000D01*
X141827000Y-64347000D01*
X141573000Y-64347000D01*
X141573000Y-64327000D01*
X140215000Y-64327000D01*
X140215000Y-65177000D01*
X140268310Y-65464269D01*
X140376639Y-65735618D01*
X140535824Y-65980619D01*
X140569342Y-66015010D01*
X137220936Y-66015010D01*
X137355291Y-65819426D01*
X137470563Y-65550953D01*
X137491476Y-65456890D01*
X137370155Y-65227000D01*
X135327000Y-65227000D01*
X135327000Y-65247000D01*
X135073000Y-65247000D01*
X135073000Y-65227000D01*
X135053000Y-65227000D01*
X135053000Y-64973000D01*
X135073000Y-64973000D01*
X135073000Y-64953000D01*
X135327000Y-64953000D01*
X135327000Y-64973000D01*
X137370155Y-64973000D01*
X137491476Y-64743110D01*
X137470563Y-64649047D01*
X137355291Y-64380574D01*
X137189857Y-64139748D01*
X136980619Y-63935824D01*
X136735618Y-63776639D01*
X136464269Y-63668310D01*
X136177000Y-63615000D01*
X134223000Y-63615000D01*
X133935731Y-63668310D01*
X133664382Y-63776639D01*
X133419381Y-63935824D01*
X133210143Y-64139748D01*
X133044709Y-64380574D01*
X132929437Y-64649047D01*
X132908524Y-64743110D01*
X132996688Y-64910171D01*
X131309517Y-63223000D01*
X140215000Y-63223000D01*
X140215000Y-64073000D01*
X141573000Y-64073000D01*
X141573000Y-62029845D01*
X141343110Y-61908524D01*
X141249047Y-61929437D01*
X140980574Y-62044709D01*
X140739748Y-62210143D01*
X140535824Y-62419381D01*
X140376639Y-62664382D01*
X140268310Y-62935731D01*
X140215000Y-63223000D01*
X131309517Y-63223000D01*
X130210645Y-62124128D01*
X131055477Y-62124128D01*
X131115423Y-62358305D01*
X131354551Y-62469602D01*
X131610797Y-62532109D01*
X131874314Y-62543425D01*
X132134976Y-62503114D01*
X132382764Y-62412724D01*
X132484577Y-62358305D01*
X132544523Y-62124128D01*
X131800000Y-61379605D01*
X131055477Y-62124128D01*
X130210645Y-62124128D01*
X128075519Y-59989003D01*
X128051716Y-59959999D01*
X128014486Y-59929445D01*
X128087534Y-59749540D01*
X128139000Y-59481000D01*
X128139000Y-58783852D01*
X129595152Y-60240004D01*
X129618950Y-60269002D01*
X129734675Y-60363975D01*
X129866704Y-60434547D01*
X130009965Y-60478004D01*
X130121618Y-60489001D01*
X130121628Y-60489001D01*
X130158951Y-60492677D01*
X130196274Y-60489001D01*
X130744912Y-60489001D01*
X130641695Y-60515423D01*
X130530398Y-60754551D01*
X130467891Y-61010797D01*
X130456575Y-61274314D01*
X130496886Y-61534976D01*
X130587276Y-61782764D01*
X130641695Y-61884577D01*
X130875872Y-61944523D01*
X131620395Y-61200000D01*
X131606253Y-61185858D01*
X131785858Y-61006253D01*
X131800000Y-61020395D01*
X131814143Y-61006253D01*
X131993748Y-61185858D01*
X131979605Y-61200000D01*
X132724128Y-61944523D01*
X132882429Y-61904000D01*
X137257928Y-61904000D01*
X137270188Y-62028482D01*
X137306498Y-62148180D01*
X137365463Y-62258494D01*
X137444815Y-62355185D01*
X137541506Y-62434537D01*
X137651820Y-62493502D01*
X137771518Y-62529812D01*
X137896000Y-62542072D01*
X138314250Y-62539000D01*
X138473000Y-62380250D01*
X138473000Y-61327000D01*
X138727000Y-61327000D01*
X138727000Y-62380250D01*
X138885750Y-62539000D01*
X139304000Y-62542072D01*
X139428482Y-62529812D01*
X139548180Y-62493502D01*
X139658494Y-62434537D01*
X139755185Y-62355185D01*
X139834537Y-62258494D01*
X139893502Y-62148180D01*
X139929812Y-62028482D01*
X139942072Y-61904000D01*
X139939000Y-61485750D01*
X139780250Y-61327000D01*
X138727000Y-61327000D01*
X138473000Y-61327000D01*
X137419750Y-61327000D01*
X137261000Y-61485750D01*
X137257928Y-61904000D01*
X132882429Y-61904000D01*
X132958305Y-61884577D01*
X133069602Y-61645449D01*
X133132109Y-61389203D01*
X133143425Y-61125686D01*
X133103114Y-60865024D01*
X133012724Y-60617236D01*
X132958305Y-60515423D01*
X132855088Y-60489001D01*
X137258617Y-60489001D01*
X137257928Y-60496000D01*
X137261000Y-60914250D01*
X137419750Y-61073000D01*
X138473000Y-61073000D01*
X138473000Y-61053000D01*
X138727000Y-61053000D01*
X138727000Y-61073000D01*
X139780250Y-61073000D01*
X139939000Y-60914250D01*
X139942072Y-60496000D01*
X139929812Y-60371518D01*
X139893502Y-60251820D01*
X139834537Y-60141506D01*
X139799234Y-60098489D01*
X141237724Y-58660000D01*
X142888441Y-58660000D01*
X142771401Y-58878967D01*
X142686487Y-59158890D01*
X142665000Y-59377051D01*
X142665001Y-62215016D01*
X142660252Y-62210143D01*
X142419426Y-62044709D01*
X142150953Y-61929437D01*
X142056890Y-61908524D01*
X141827000Y-62029845D01*
X141827000Y-64073000D01*
X143185000Y-64073000D01*
X143185000Y-63579104D01*
X143320987Y-63690706D01*
X143578967Y-63828599D01*
X143858890Y-63913513D01*
X144150000Y-63942185D01*
X144441111Y-63913513D01*
X144721034Y-63828599D01*
X144979014Y-63690706D01*
X145205134Y-63505134D01*
X145272539Y-63423000D01*
X152315000Y-63423000D01*
X152315000Y-64323000D01*
X153923000Y-64323000D01*
X153923000Y-61978875D01*
X154177000Y-61978875D01*
X154177000Y-64323000D01*
X155785000Y-64323000D01*
X155785000Y-63423000D01*
X155726886Y-63086959D01*
X155604330Y-62768712D01*
X155422042Y-62480489D01*
X155187027Y-62233367D01*
X154908317Y-62036843D01*
X154596622Y-61898469D01*
X154446122Y-61860825D01*
X154177000Y-61978875D01*
X153923000Y-61978875D01*
X153653878Y-61860825D01*
X153503378Y-61898469D01*
X153191683Y-62036843D01*
X152912973Y-62233367D01*
X152677958Y-62480489D01*
X152495670Y-62768712D01*
X152373114Y-63086959D01*
X152315000Y-63423000D01*
X145272539Y-63423000D01*
X145390706Y-63279014D01*
X145528599Y-63021034D01*
X145613513Y-62741111D01*
X145635000Y-62522950D01*
X145635000Y-60348088D01*
X145772940Y-60486028D01*
X145796734Y-60515021D01*
X145825727Y-60538815D01*
X145825731Y-60538819D01*
X145875264Y-60579469D01*
X145912459Y-60609994D01*
X146044488Y-60680566D01*
X146187749Y-60724023D01*
X146299402Y-60735020D01*
X146299411Y-60735020D01*
X146336734Y-60738696D01*
X146374057Y-60735020D01*
X177987658Y-60735020D01*
X178024980Y-60738696D01*
X178062302Y-60735020D01*
X178062313Y-60735020D01*
X178173966Y-60724023D01*
X178317227Y-60680566D01*
X178449256Y-60609994D01*
X178564981Y-60515021D01*
X178588784Y-60486017D01*
X180465570Y-58609232D01*
X180532149Y-58828715D01*
X180683970Y-59112752D01*
X180888287Y-59361714D01*
X181137249Y-59566031D01*
X181421286Y-59717852D01*
X181729485Y-59811343D01*
X182050000Y-59842911D01*
X182370516Y-59811343D01*
X182678715Y-59717852D01*
X182940001Y-59578192D01*
X182940001Y-62059184D01*
X182908317Y-62036843D01*
X182596622Y-61898469D01*
X182446122Y-61860825D01*
X182177000Y-61978875D01*
X182177000Y-64323000D01*
X182197000Y-64323000D01*
X182197000Y-64577000D01*
X182177000Y-64577000D01*
X182177000Y-66921125D01*
X182446122Y-67039175D01*
X182596622Y-67001531D01*
X182908317Y-66863157D01*
X182940001Y-66840816D01*
X182940001Y-69040000D01*
X127894429Y-69040000D01*
X127984668Y-68902880D01*
X128087534Y-68649540D01*
X128139000Y-68381000D01*
X128139000Y-67627000D01*
X126877000Y-67627000D01*
X126877000Y-67647000D01*
X126623000Y-67647000D01*
X126623000Y-67627000D01*
X125361000Y-67627000D01*
X125361000Y-68381000D01*
X125412466Y-68649540D01*
X125515332Y-68902880D01*
X125605571Y-69040000D01*
X124632734Y-69040000D01*
X124685870Y-68914215D01*
X124700286Y-68841814D01*
X124577677Y-68627000D01*
X122727000Y-68627000D01*
X122727000Y-68647000D01*
X122473000Y-68647000D01*
X122473000Y-68627000D01*
X120622323Y-68627000D01*
X120499714Y-68841814D01*
X120514130Y-68914215D01*
X120567266Y-69040000D01*
X84260000Y-69040000D01*
X84260000Y-66000000D01*
X118450280Y-66000000D01*
X118477098Y-66272291D01*
X118556523Y-66534119D01*
X118685501Y-66775420D01*
X118859077Y-66986923D01*
X119070580Y-67160499D01*
X119311881Y-67289477D01*
X119573709Y-67368902D01*
X119777770Y-67389000D01*
X121009205Y-67389000D01*
X120968716Y-67415646D01*
X120774026Y-67607631D01*
X120620531Y-67833909D01*
X120514130Y-68085785D01*
X120499714Y-68158186D01*
X120622323Y-68373000D01*
X122473000Y-68373000D01*
X122473000Y-68353000D01*
X122727000Y-68353000D01*
X122727000Y-68373000D01*
X124577677Y-68373000D01*
X124700286Y-68158186D01*
X124685870Y-68085785D01*
X124579469Y-67833909D01*
X124425974Y-67607631D01*
X124231284Y-67415646D01*
X124002880Y-67265332D01*
X123749540Y-67162466D01*
X123481000Y-67111000D01*
X122189735Y-67111000D01*
X122340923Y-66986923D01*
X122514499Y-66775420D01*
X122598107Y-66619000D01*
X125361000Y-66619000D01*
X125361000Y-67373000D01*
X126623000Y-67373000D01*
X126623000Y-65522323D01*
X126877000Y-65522323D01*
X126877000Y-67373000D01*
X128139000Y-67373000D01*
X128139000Y-66619000D01*
X128098134Y-66405767D01*
X128249047Y-66470563D01*
X128343110Y-66491476D01*
X128573000Y-66370155D01*
X128573000Y-64327000D01*
X127215000Y-64327000D01*
X127215000Y-65177000D01*
X127267068Y-65457579D01*
X127164215Y-65414130D01*
X127091814Y-65399714D01*
X126877000Y-65522323D01*
X126623000Y-65522323D01*
X126408186Y-65399714D01*
X126335785Y-65414130D01*
X126083909Y-65520531D01*
X125857631Y-65674026D01*
X125665646Y-65868716D01*
X125515332Y-66097120D01*
X125412466Y-66350460D01*
X125361000Y-66619000D01*
X122598107Y-66619000D01*
X122643477Y-66534119D01*
X122722902Y-66272291D01*
X122749720Y-66000000D01*
X122722902Y-65727709D01*
X122643477Y-65465881D01*
X122514499Y-65224580D01*
X122340923Y-65013077D01*
X122129420Y-64839501D01*
X121888119Y-64710523D01*
X121626291Y-64631098D01*
X121422230Y-64611000D01*
X119777770Y-64611000D01*
X119573709Y-64631098D01*
X119311881Y-64710523D01*
X119070580Y-64839501D01*
X118859077Y-65013077D01*
X118685501Y-65224580D01*
X118556523Y-65465881D01*
X118477098Y-65727709D01*
X118450280Y-66000000D01*
X84260000Y-66000000D01*
X84260000Y-60087499D01*
X85317106Y-60087499D01*
X85533228Y-60454258D01*
X85993105Y-60694938D01*
X86491098Y-60841275D01*
X87008071Y-60887648D01*
X87524159Y-60832273D01*
X88019526Y-60677279D01*
X88436772Y-60454258D01*
X88652894Y-60087499D01*
X86985000Y-58419605D01*
X85317106Y-60087499D01*
X84260000Y-60087499D01*
X84260000Y-58263071D01*
X84337352Y-58263071D01*
X84392727Y-58779159D01*
X84547721Y-59274526D01*
X84770742Y-59691772D01*
X85137501Y-59907894D01*
X86805395Y-58240000D01*
X87164605Y-58240000D01*
X88832499Y-59907894D01*
X89199258Y-59691772D01*
X89439938Y-59231895D01*
X89586275Y-58733902D01*
X89632648Y-58216929D01*
X89577273Y-57700841D01*
X89422279Y-57205474D01*
X89199258Y-56788228D01*
X88832499Y-56572106D01*
X87164605Y-58240000D01*
X86805395Y-58240000D01*
X85137501Y-56572106D01*
X84770742Y-56788228D01*
X84530062Y-57248105D01*
X84383725Y-57746098D01*
X84337352Y-58263071D01*
X84260000Y-58263071D01*
X84260000Y-56392501D01*
X85317106Y-56392501D01*
X86985000Y-58060395D01*
X88652894Y-56392501D01*
X88436772Y-56025742D01*
X87976895Y-55785062D01*
X87478902Y-55638725D01*
X86961929Y-55592352D01*
X86445841Y-55647727D01*
X85950474Y-55802721D01*
X85533228Y-56025742D01*
X85317106Y-56392501D01*
X84260000Y-56392501D01*
X84260000Y-49579872D01*
X86365000Y-49579872D01*
X86365000Y-50020128D01*
X86450890Y-50451925D01*
X86619369Y-50858669D01*
X86863962Y-51224729D01*
X87175271Y-51536038D01*
X87541331Y-51780631D01*
X87948075Y-51949110D01*
X88379872Y-52035000D01*
X88820128Y-52035000D01*
X89251925Y-51949110D01*
X89658669Y-51780631D01*
X90024729Y-51536038D01*
X90336038Y-51224729D01*
X90580631Y-50858669D01*
X90749110Y-50451925D01*
X90835000Y-50020128D01*
X90835000Y-49579872D01*
X90749110Y-49148075D01*
X90580631Y-48741331D01*
X90336038Y-48375271D01*
X90024729Y-48063962D01*
X89658669Y-47819369D01*
X89251925Y-47650890D01*
X88820128Y-47565000D01*
X88379872Y-47565000D01*
X87948075Y-47650890D01*
X87541331Y-47819369D01*
X87175271Y-48063962D01*
X86863962Y-48375271D01*
X86619369Y-48741331D01*
X86450890Y-49148075D01*
X86365000Y-49579872D01*
X84260000Y-49579872D01*
X84260000Y-45460000D01*
X163965868Y-45460000D01*
X163961928Y-45500000D01*
X163961928Y-45500000D01*
G37*
X163961928Y-45500000D02*
X163961928Y-48315010D01*
X163862312Y-48315010D01*
X163824989Y-48311334D01*
X163787666Y-48315010D01*
X163787657Y-48315010D01*
X163676004Y-48326007D01*
X163532743Y-48369464D01*
X163400714Y-48440036D01*
X163284989Y-48535009D01*
X163261191Y-48564007D01*
X158985199Y-52840000D01*
X135106222Y-52840000D01*
X135203399Y-52799748D01*
X135757812Y-52429302D01*
X136229302Y-51957812D01*
X136599748Y-51403399D01*
X136854917Y-50787368D01*
X136985000Y-50133393D01*
X136985000Y-49579872D01*
X153565000Y-49579872D01*
X153565000Y-50020128D01*
X153650890Y-50451925D01*
X153819369Y-50858669D01*
X154063962Y-51224729D01*
X154375271Y-51536038D01*
X154741331Y-51780631D01*
X155148075Y-51949110D01*
X155579872Y-52035000D01*
X156020128Y-52035000D01*
X156451925Y-51949110D01*
X156858669Y-51780631D01*
X157224729Y-51536038D01*
X157536038Y-51224729D01*
X157780631Y-50858669D01*
X157949110Y-50451925D01*
X158035000Y-50020128D01*
X158035000Y-49579872D01*
X157949110Y-49148075D01*
X157780631Y-48741331D01*
X157536038Y-48375271D01*
X157224729Y-48063962D01*
X156858669Y-47819369D01*
X156451925Y-47650890D01*
X156020128Y-47565000D01*
X155579872Y-47565000D01*
X155148075Y-47650890D01*
X154741331Y-47819369D01*
X154375271Y-48063962D01*
X154063962Y-48375271D01*
X153819369Y-48741331D01*
X153650890Y-49148075D01*
X153565000Y-49579872D01*
X136985000Y-49579872D01*
X136985000Y-49466607D01*
X136854917Y-48812632D01*
X136599748Y-48196601D01*
X136229302Y-47642188D01*
X135757812Y-47170698D01*
X135203399Y-46800252D01*
X134587368Y-46545083D01*
X133933393Y-46415000D01*
X133266607Y-46415000D01*
X132612632Y-46545083D01*
X131996601Y-46800252D01*
X131442188Y-47170698D01*
X130970698Y-47642188D01*
X130600252Y-48196601D01*
X130345083Y-48812632D01*
X130215000Y-49466607D01*
X130215000Y-50133393D01*
X130345083Y-50787368D01*
X130600252Y-51403399D01*
X130970698Y-51957812D01*
X131442188Y-52429302D01*
X131996601Y-52799748D01*
X132093778Y-52840000D01*
X109839802Y-52840000D01*
X104663072Y-47663271D01*
X104663072Y-46850000D01*
X104650812Y-46725518D01*
X104614502Y-46605820D01*
X104555537Y-46495506D01*
X104476185Y-46398815D01*
X104379494Y-46319463D01*
X104269180Y-46260498D01*
X104149482Y-46224188D01*
X104025000Y-46211928D01*
X103025000Y-46211928D01*
X102899864Y-46224319D01*
X102874936Y-46231909D01*
X102849482Y-46224188D01*
X102725000Y-46211928D01*
X101575000Y-46211928D01*
X101450518Y-46224188D01*
X101330820Y-46260498D01*
X101220506Y-46319463D01*
X101123815Y-46398815D01*
X101044463Y-46495506D01*
X100985498Y-46605820D01*
X100949188Y-46725518D01*
X100936928Y-46850000D01*
X100936928Y-48350000D01*
X100949188Y-48474482D01*
X100985498Y-48594180D01*
X101022338Y-48663101D01*
X100931613Y-48711595D01*
X100797038Y-48822038D01*
X100686595Y-48956613D01*
X100604528Y-49110149D01*
X100595473Y-49140000D01*
X98812321Y-49140000D01*
X98774998Y-49136324D01*
X98737675Y-49140000D01*
X98737665Y-49140000D01*
X98626012Y-49150997D01*
X98482751Y-49194454D01*
X98350721Y-49265026D01*
X98329120Y-49282754D01*
X98234997Y-49359999D01*
X98211199Y-49388997D01*
X93004002Y-54596195D01*
X92974998Y-54619998D01*
X92945600Y-54655820D01*
X92880025Y-54735723D01*
X92843116Y-54804774D01*
X92809453Y-54867753D01*
X92765996Y-55011014D01*
X92754999Y-55122667D01*
X92754999Y-55122677D01*
X92751323Y-55159999D01*
X92754999Y-55197322D01*
X92755000Y-61282669D01*
X92751323Y-61320001D01*
X92755000Y-61357334D01*
X92765997Y-61468987D01*
X92769558Y-61480725D01*
X92809453Y-61612247D01*
X92880025Y-61744277D01*
X92951200Y-61831003D01*
X92974999Y-61860002D01*
X93003997Y-61883800D01*
X93536199Y-62416003D01*
X93559998Y-62445002D01*
X93588996Y-62468800D01*
X93675722Y-62539975D01*
X93807752Y-62610547D01*
X93951013Y-62654004D01*
X94062666Y-62665001D01*
X94062676Y-62665001D01*
X94099999Y-62668677D01*
X94137322Y-62665001D01*
X98057677Y-62665001D01*
X98094999Y-62668677D01*
X98132321Y-62665001D01*
X98132332Y-62665001D01*
X98243985Y-62654004D01*
X98387246Y-62610547D01*
X98519275Y-62539975D01*
X98635000Y-62445002D01*
X98658803Y-62415998D01*
X98896113Y-62178688D01*
X99078665Y-62215000D01*
X99361335Y-62215000D01*
X99638574Y-62159853D01*
X99899727Y-62051680D01*
X100134759Y-61894637D01*
X100334637Y-61694759D01*
X100365000Y-61649317D01*
X100395363Y-61694759D01*
X100595241Y-61894637D01*
X100830273Y-62051680D01*
X101091426Y-62159853D01*
X101368665Y-62215000D01*
X101651335Y-62215000D01*
X101928574Y-62159853D01*
X102189727Y-62051680D01*
X102424759Y-61894637D01*
X102624637Y-61694759D01*
X102655000Y-61649317D01*
X102685363Y-61694759D01*
X102885241Y-61894637D01*
X103120273Y-62051680D01*
X103381426Y-62159853D01*
X103658665Y-62215000D01*
X103941335Y-62215000D01*
X104218574Y-62159853D01*
X104479727Y-62051680D01*
X104714759Y-61894637D01*
X104914637Y-61694759D01*
X105071680Y-61459727D01*
X105179853Y-61198574D01*
X105235000Y-60921335D01*
X105235000Y-60638665D01*
X105179853Y-60361426D01*
X105071680Y-60100273D01*
X105063145Y-60087499D01*
X110317106Y-60087499D01*
X110533228Y-60454258D01*
X110993105Y-60694938D01*
X111491098Y-60841275D01*
X112008071Y-60887648D01*
X112524159Y-60832273D01*
X113019526Y-60677279D01*
X113436772Y-60454258D01*
X113652894Y-60087499D01*
X111985000Y-58419605D01*
X110317106Y-60087499D01*
X105063145Y-60087499D01*
X104914637Y-59865241D01*
X104714759Y-59665363D01*
X104705941Y-59659471D01*
X104733184Y-59666300D01*
X105015512Y-59680217D01*
X105295130Y-59638787D01*
X105561292Y-59543603D01*
X105686514Y-59476671D01*
X105758097Y-59232702D01*
X104945000Y-58419605D01*
X104131903Y-59232702D01*
X104178706Y-59392217D01*
X103941335Y-59345000D01*
X103658665Y-59345000D01*
X103421294Y-59392217D01*
X103468097Y-59232702D01*
X102655000Y-58419605D01*
X101841903Y-59232702D01*
X101888706Y-59392217D01*
X101651335Y-59345000D01*
X101368665Y-59345000D01*
X101131294Y-59392217D01*
X101178097Y-59232702D01*
X100365000Y-58419605D01*
X99551903Y-59232702D01*
X99598706Y-59392217D01*
X99361335Y-59345000D01*
X99078665Y-59345000D01*
X98972609Y-59366096D01*
X98989759Y-59354637D01*
X99189637Y-59154759D01*
X99276372Y-59024951D01*
X99372298Y-59053097D01*
X100185395Y-58240000D01*
X100544605Y-58240000D01*
X101357702Y-59053097D01*
X101510000Y-59008411D01*
X101662298Y-59053097D01*
X102475395Y-58240000D01*
X102834605Y-58240000D01*
X103647702Y-59053097D01*
X103800000Y-59008411D01*
X103952298Y-59053097D01*
X104765395Y-58240000D01*
X105124605Y-58240000D01*
X105937702Y-59053097D01*
X106181671Y-58981514D01*
X106302571Y-58726004D01*
X106371300Y-58451816D01*
X106385217Y-58169488D01*
X106343787Y-57889870D01*
X106248603Y-57623708D01*
X106181671Y-57498486D01*
X105937702Y-57426903D01*
X105124605Y-58240000D01*
X104765395Y-58240000D01*
X103952298Y-57426903D01*
X103800000Y-57471589D01*
X103647702Y-57426903D01*
X102834605Y-58240000D01*
X102475395Y-58240000D01*
X101662298Y-57426903D01*
X101510000Y-57471589D01*
X101357702Y-57426903D01*
X100544605Y-58240000D01*
X100185395Y-58240000D01*
X99372298Y-57426903D01*
X99276372Y-57455049D01*
X99189637Y-57325241D01*
X98989759Y-57125363D01*
X98972609Y-57113904D01*
X99078665Y-57135000D01*
X99361335Y-57135000D01*
X99598706Y-57087783D01*
X99551903Y-57247298D01*
X100365000Y-58060395D01*
X101178097Y-57247298D01*
X101131294Y-57087783D01*
X101368665Y-57135000D01*
X101651335Y-57135000D01*
X101888706Y-57087783D01*
X101841903Y-57247298D01*
X102655000Y-58060395D01*
X103468097Y-57247298D01*
X103436049Y-57138072D01*
X104163951Y-57138072D01*
X104131903Y-57247298D01*
X104945000Y-58060395D01*
X105758097Y-57247298D01*
X105686514Y-57003329D01*
X105431004Y-56882429D01*
X105156816Y-56813700D01*
X105152457Y-56813485D01*
X105189502Y-56744180D01*
X105225812Y-56624482D01*
X105238072Y-56500000D01*
X105238072Y-56460000D01*
X110025392Y-56460000D01*
X110137499Y-56572107D01*
X109770742Y-56788228D01*
X109530062Y-57248105D01*
X109383725Y-57746098D01*
X109337352Y-58263071D01*
X109392727Y-58779159D01*
X109547721Y-59274526D01*
X109770742Y-59691772D01*
X110137501Y-59907894D01*
X111805395Y-58240000D01*
X111791253Y-58225858D01*
X111970858Y-58046253D01*
X111985000Y-58060395D01*
X111999143Y-58046253D01*
X112178748Y-58225858D01*
X112164605Y-58240000D01*
X113832499Y-59907894D01*
X114199258Y-59691772D01*
X114439938Y-59231895D01*
X114586275Y-58733902D01*
X114586894Y-58727000D01*
X116761000Y-58727000D01*
X116761000Y-59481000D01*
X116812466Y-59749540D01*
X116915332Y-60002880D01*
X117065646Y-60231284D01*
X117257631Y-60425974D01*
X117483909Y-60579469D01*
X117735785Y-60685870D01*
X117808186Y-60700286D01*
X118023000Y-60577677D01*
X118023000Y-58727000D01*
X116761000Y-58727000D01*
X114586894Y-58727000D01*
X114632648Y-58216929D01*
X114577273Y-57700841D01*
X114422279Y-57205474D01*
X114199258Y-56788228D01*
X113832501Y-56572107D01*
X113944608Y-56460000D01*
X118022998Y-56460000D01*
X118022998Y-56622322D01*
X117808186Y-56499714D01*
X117735785Y-56514130D01*
X117483909Y-56620531D01*
X117257631Y-56774026D01*
X117065646Y-56968716D01*
X116915332Y-57197120D01*
X116812466Y-57450460D01*
X116761000Y-57719000D01*
X116761000Y-58473000D01*
X118023000Y-58473000D01*
X118023000Y-58453000D01*
X118277000Y-58453000D01*
X118277000Y-58473000D01*
X119539000Y-58473000D01*
X119539000Y-57719000D01*
X119487534Y-57450460D01*
X119384668Y-57197120D01*
X119234354Y-56968716D01*
X119042369Y-56774026D01*
X118816091Y-56620531D01*
X118564215Y-56514130D01*
X118491814Y-56499714D01*
X118277002Y-56622322D01*
X118277002Y-56460000D01*
X120527972Y-56460000D01*
X120477098Y-56627709D01*
X120450280Y-56900000D01*
X120477098Y-57172291D01*
X120556523Y-57434119D01*
X120685501Y-57675420D01*
X120859077Y-57886923D01*
X121070580Y-58060499D01*
X121311881Y-58189477D01*
X121573709Y-58268902D01*
X121777770Y-58289000D01*
X123422230Y-58289000D01*
X123626291Y-58268902D01*
X123888119Y-58189477D01*
X124129420Y-58060499D01*
X124340923Y-57886923D01*
X124514499Y-57675420D01*
X124643477Y-57434119D01*
X124722902Y-57172291D01*
X124749720Y-56900000D01*
X124722902Y-56627709D01*
X124672028Y-56460000D01*
X125815149Y-56460000D01*
X126019423Y-56664275D01*
X125857631Y-56774026D01*
X125665646Y-56968716D01*
X125515332Y-57197120D01*
X125412466Y-57450460D01*
X125361000Y-57719000D01*
X125361000Y-58473000D01*
X126623000Y-58473000D01*
X126623000Y-58453000D01*
X126877000Y-58453000D01*
X126877000Y-58473000D01*
X126897000Y-58473000D01*
X126897000Y-58727000D01*
X126877000Y-58727000D01*
X126877000Y-58747000D01*
X126623000Y-58747000D01*
X126623000Y-58727000D01*
X125361000Y-58727000D01*
X125361000Y-59481000D01*
X125410638Y-59740000D01*
X122522741Y-59740000D01*
X122514499Y-59724580D01*
X122340923Y-59513077D01*
X122129420Y-59339501D01*
X121888119Y-59210523D01*
X121626291Y-59131098D01*
X121422230Y-59111000D01*
X119777770Y-59111000D01*
X119573709Y-59131098D01*
X119539000Y-59141627D01*
X119539000Y-58727000D01*
X118277000Y-58727000D01*
X118277000Y-60577677D01*
X118468707Y-60687097D01*
X118477098Y-60772291D01*
X118556523Y-61034119D01*
X118685501Y-61275420D01*
X118859077Y-61486923D01*
X119070580Y-61660499D01*
X119311881Y-61789477D01*
X119573709Y-61868902D01*
X119777770Y-61889000D01*
X120549510Y-61889000D01*
X120477098Y-62127709D01*
X120450280Y-62400000D01*
X120477098Y-62672291D01*
X120556523Y-62934119D01*
X120685501Y-63175420D01*
X120859077Y-63386923D01*
X121070580Y-63560499D01*
X121311881Y-63689477D01*
X121573709Y-63768902D01*
X121777770Y-63789000D01*
X123422230Y-63789000D01*
X123626291Y-63768902D01*
X123888119Y-63689477D01*
X124129420Y-63560499D01*
X124340923Y-63386923D01*
X124514499Y-63175420D01*
X124643477Y-62934119D01*
X124722902Y-62672291D01*
X124749720Y-62400000D01*
X124722902Y-62127709D01*
X124643477Y-61865881D01*
X124514499Y-61624580D01*
X124340923Y-61413077D01*
X124154398Y-61260000D01*
X127196914Y-61260000D01*
X127981308Y-62044394D01*
X127980574Y-62044709D01*
X127739748Y-62210143D01*
X127535824Y-62419381D01*
X127376639Y-62664382D01*
X127268310Y-62935731D01*
X127215000Y-63223000D01*
X127215000Y-64073000D01*
X128573000Y-64073000D01*
X128573000Y-64053000D01*
X128827000Y-64053000D01*
X128827000Y-64073000D01*
X128847000Y-64073000D01*
X128847000Y-64327000D01*
X128827000Y-64327000D01*
X128827000Y-66370155D01*
X129056890Y-66491476D01*
X129150953Y-66470563D01*
X129419426Y-66355291D01*
X129660252Y-66189857D01*
X129864176Y-65980619D01*
X130023361Y-65735618D01*
X130131690Y-65464269D01*
X130185000Y-65177000D01*
X130185000Y-64248086D01*
X133222926Y-67286013D01*
X133246724Y-67315011D01*
X133362449Y-67409984D01*
X133494478Y-67480556D01*
X133637739Y-67524013D01*
X133749392Y-67535010D01*
X133749401Y-67535010D01*
X133786724Y-67538686D01*
X133824047Y-67535010D01*
X154753353Y-67535010D01*
X154790675Y-67538686D01*
X154827997Y-67535010D01*
X154828008Y-67535010D01*
X154939661Y-67524013D01*
X155082922Y-67480556D01*
X155214951Y-67409984D01*
X155330676Y-67315011D01*
X155354479Y-67286007D01*
X157611004Y-65029483D01*
X157640001Y-65005686D01*
X157734974Y-64889961D01*
X157805546Y-64757932D01*
X157848987Y-64614724D01*
X157886711Y-64577000D01*
X166315000Y-64577000D01*
X166315000Y-65477000D01*
X166373114Y-65813041D01*
X166495670Y-66131288D01*
X166677958Y-66419511D01*
X166912973Y-66666633D01*
X167191683Y-66863157D01*
X167503378Y-67001531D01*
X167653878Y-67039175D01*
X167923000Y-66921125D01*
X167923000Y-64577000D01*
X168177000Y-64577000D01*
X168177000Y-66921125D01*
X168446122Y-67039175D01*
X168596622Y-67001531D01*
X168908317Y-66863157D01*
X169187027Y-66666633D01*
X169422042Y-66419511D01*
X169604330Y-66131288D01*
X169726886Y-65813041D01*
X169785000Y-65477000D01*
X169785000Y-64577000D01*
X180315000Y-64577000D01*
X180315000Y-65477000D01*
X180373114Y-65813041D01*
X180495670Y-66131288D01*
X180677958Y-66419511D01*
X180912973Y-66666633D01*
X181191683Y-66863157D01*
X181503378Y-67001531D01*
X181653878Y-67039175D01*
X181923000Y-66921125D01*
X181923000Y-64577000D01*
X180315000Y-64577000D01*
X169785000Y-64577000D01*
X168177000Y-64577000D01*
X167923000Y-64577000D01*
X166315000Y-64577000D01*
X157886711Y-64577000D01*
X157903937Y-64559774D01*
X158017205Y-64390256D01*
X158095226Y-64201898D01*
X158135000Y-64001939D01*
X158135000Y-63798061D01*
X158095226Y-63598102D01*
X158022696Y-63423000D01*
X166315000Y-63423000D01*
X166315000Y-64323000D01*
X167923000Y-64323000D01*
X167923000Y-61978875D01*
X168177000Y-61978875D01*
X168177000Y-64323000D01*
X169785000Y-64323000D01*
X169785000Y-63423000D01*
X180315000Y-63423000D01*
X180315000Y-64323000D01*
X181923000Y-64323000D01*
X181923000Y-61978875D01*
X181653878Y-61860825D01*
X181503378Y-61898469D01*
X181191683Y-62036843D01*
X180912973Y-62233367D01*
X180677958Y-62480489D01*
X180495670Y-62768712D01*
X180373114Y-63086959D01*
X180315000Y-63423000D01*
X169785000Y-63423000D01*
X169726886Y-63086959D01*
X169604330Y-62768712D01*
X169422042Y-62480489D01*
X169187027Y-62233367D01*
X168908317Y-62036843D01*
X168596622Y-61898469D01*
X168446122Y-61860825D01*
X168177000Y-61978875D01*
X167923000Y-61978875D01*
X167653878Y-61860825D01*
X167503378Y-61898469D01*
X167191683Y-62036843D01*
X166912973Y-62233367D01*
X166677958Y-62480489D01*
X166495670Y-62768712D01*
X166373114Y-63086959D01*
X166315000Y-63423000D01*
X158022696Y-63423000D01*
X158017205Y-63409744D01*
X157903937Y-63240226D01*
X157759774Y-63096063D01*
X157590256Y-62982795D01*
X157401898Y-62904774D01*
X157201939Y-62865000D01*
X156998061Y-62865000D01*
X156798102Y-62904774D01*
X156609744Y-62982795D01*
X156440226Y-63096063D01*
X156296063Y-63240226D01*
X156182795Y-63409744D01*
X156104774Y-63598102D01*
X156065000Y-63798061D01*
X156065000Y-64001939D01*
X156104774Y-64201898D01*
X156158728Y-64332155D01*
X155785000Y-64705883D01*
X155785000Y-64577000D01*
X154177000Y-64577000D01*
X154177000Y-64597000D01*
X153923000Y-64597000D01*
X153923000Y-64577000D01*
X152315000Y-64577000D01*
X152315000Y-65477000D01*
X152373114Y-65813041D01*
X152450892Y-66015010D01*
X142830658Y-66015010D01*
X142864176Y-65980619D01*
X143023361Y-65735618D01*
X143131690Y-65464269D01*
X143185000Y-65177000D01*
X143185000Y-64327000D01*
X141827000Y-64327000D01*
X141827000Y-64347000D01*
X141573000Y-64347000D01*
X141573000Y-64327000D01*
X140215000Y-64327000D01*
X140215000Y-65177000D01*
X140268310Y-65464269D01*
X140376639Y-65735618D01*
X140535824Y-65980619D01*
X140569342Y-66015010D01*
X137220936Y-66015010D01*
X137355291Y-65819426D01*
X137470563Y-65550953D01*
X137491476Y-65456890D01*
X137370155Y-65227000D01*
X135327000Y-65227000D01*
X135327000Y-65247000D01*
X135073000Y-65247000D01*
X135073000Y-65227000D01*
X135053000Y-65227000D01*
X135053000Y-64973000D01*
X135073000Y-64973000D01*
X135073000Y-64953000D01*
X135327000Y-64953000D01*
X135327000Y-64973000D01*
X137370155Y-64973000D01*
X137491476Y-64743110D01*
X137470563Y-64649047D01*
X137355291Y-64380574D01*
X137189857Y-64139748D01*
X136980619Y-63935824D01*
X136735618Y-63776639D01*
X136464269Y-63668310D01*
X136177000Y-63615000D01*
X134223000Y-63615000D01*
X133935731Y-63668310D01*
X133664382Y-63776639D01*
X133419381Y-63935824D01*
X133210143Y-64139748D01*
X133044709Y-64380574D01*
X132929437Y-64649047D01*
X132908524Y-64743110D01*
X132996688Y-64910171D01*
X131309517Y-63223000D01*
X140215000Y-63223000D01*
X140215000Y-64073000D01*
X141573000Y-64073000D01*
X141573000Y-62029845D01*
X141343110Y-61908524D01*
X141249047Y-61929437D01*
X140980574Y-62044709D01*
X140739748Y-62210143D01*
X140535824Y-62419381D01*
X140376639Y-62664382D01*
X140268310Y-62935731D01*
X140215000Y-63223000D01*
X131309517Y-63223000D01*
X130210645Y-62124128D01*
X131055477Y-62124128D01*
X131115423Y-62358305D01*
X131354551Y-62469602D01*
X131610797Y-62532109D01*
X131874314Y-62543425D01*
X132134976Y-62503114D01*
X132382764Y-62412724D01*
X132484577Y-62358305D01*
X132544523Y-62124128D01*
X131800000Y-61379605D01*
X131055477Y-62124128D01*
X130210645Y-62124128D01*
X128075519Y-59989003D01*
X128051716Y-59959999D01*
X128014486Y-59929445D01*
X128087534Y-59749540D01*
X128139000Y-59481000D01*
X128139000Y-58783852D01*
X129595152Y-60240004D01*
X129618950Y-60269002D01*
X129734675Y-60363975D01*
X129866704Y-60434547D01*
X130009965Y-60478004D01*
X130121618Y-60489001D01*
X130121628Y-60489001D01*
X130158951Y-60492677D01*
X130196274Y-60489001D01*
X130744912Y-60489001D01*
X130641695Y-60515423D01*
X130530398Y-60754551D01*
X130467891Y-61010797D01*
X130456575Y-61274314D01*
X130496886Y-61534976D01*
X130587276Y-61782764D01*
X130641695Y-61884577D01*
X130875872Y-61944523D01*
X131620395Y-61200000D01*
X131606253Y-61185858D01*
X131785858Y-61006253D01*
X131800000Y-61020395D01*
X131814143Y-61006253D01*
X131993748Y-61185858D01*
X131979605Y-61200000D01*
X132724128Y-61944523D01*
X132882429Y-61904000D01*
X137257928Y-61904000D01*
X137270188Y-62028482D01*
X137306498Y-62148180D01*
X137365463Y-62258494D01*
X137444815Y-62355185D01*
X137541506Y-62434537D01*
X137651820Y-62493502D01*
X137771518Y-62529812D01*
X137896000Y-62542072D01*
X138314250Y-62539000D01*
X138473000Y-62380250D01*
X138473000Y-61327000D01*
X138727000Y-61327000D01*
X138727000Y-62380250D01*
X138885750Y-62539000D01*
X139304000Y-62542072D01*
X139428482Y-62529812D01*
X139548180Y-62493502D01*
X139658494Y-62434537D01*
X139755185Y-62355185D01*
X139834537Y-62258494D01*
X139893502Y-62148180D01*
X139929812Y-62028482D01*
X139942072Y-61904000D01*
X139939000Y-61485750D01*
X139780250Y-61327000D01*
X138727000Y-61327000D01*
X138473000Y-61327000D01*
X137419750Y-61327000D01*
X137261000Y-61485750D01*
X137257928Y-61904000D01*
X132882429Y-61904000D01*
X132958305Y-61884577D01*
X133069602Y-61645449D01*
X133132109Y-61389203D01*
X133143425Y-61125686D01*
X133103114Y-60865024D01*
X133012724Y-60617236D01*
X132958305Y-60515423D01*
X132855088Y-60489001D01*
X137258617Y-60489001D01*
X137257928Y-60496000D01*
X137261000Y-60914250D01*
X137419750Y-61073000D01*
X138473000Y-61073000D01*
X138473000Y-61053000D01*
X138727000Y-61053000D01*
X138727000Y-61073000D01*
X139780250Y-61073000D01*
X139939000Y-60914250D01*
X139942072Y-60496000D01*
X139929812Y-60371518D01*
X139893502Y-60251820D01*
X139834537Y-60141506D01*
X139799234Y-60098489D01*
X141237724Y-58660000D01*
X142888441Y-58660000D01*
X142771401Y-58878967D01*
X142686487Y-59158890D01*
X142665000Y-59377051D01*
X142665001Y-62215016D01*
X142660252Y-62210143D01*
X142419426Y-62044709D01*
X142150953Y-61929437D01*
X142056890Y-61908524D01*
X141827000Y-62029845D01*
X141827000Y-64073000D01*
X143185000Y-64073000D01*
X143185000Y-63579104D01*
X143320987Y-63690706D01*
X143578967Y-63828599D01*
X143858890Y-63913513D01*
X144150000Y-63942185D01*
X144441111Y-63913513D01*
X144721034Y-63828599D01*
X144979014Y-63690706D01*
X145205134Y-63505134D01*
X145272539Y-63423000D01*
X152315000Y-63423000D01*
X152315000Y-64323000D01*
X153923000Y-64323000D01*
X153923000Y-61978875D01*
X154177000Y-61978875D01*
X154177000Y-64323000D01*
X155785000Y-64323000D01*
X155785000Y-63423000D01*
X155726886Y-63086959D01*
X155604330Y-62768712D01*
X155422042Y-62480489D01*
X155187027Y-62233367D01*
X154908317Y-62036843D01*
X154596622Y-61898469D01*
X154446122Y-61860825D01*
X154177000Y-61978875D01*
X153923000Y-61978875D01*
X153653878Y-61860825D01*
X153503378Y-61898469D01*
X153191683Y-62036843D01*
X152912973Y-62233367D01*
X152677958Y-62480489D01*
X152495670Y-62768712D01*
X152373114Y-63086959D01*
X152315000Y-63423000D01*
X145272539Y-63423000D01*
X145390706Y-63279014D01*
X145528599Y-63021034D01*
X145613513Y-62741111D01*
X145635000Y-62522950D01*
X145635000Y-60348088D01*
X145772940Y-60486028D01*
X145796734Y-60515021D01*
X145825727Y-60538815D01*
X145825731Y-60538819D01*
X145875264Y-60579469D01*
X145912459Y-60609994D01*
X146044488Y-60680566D01*
X146187749Y-60724023D01*
X146299402Y-60735020D01*
X146299411Y-60735020D01*
X146336734Y-60738696D01*
X146374057Y-60735020D01*
X177987658Y-60735020D01*
X178024980Y-60738696D01*
X178062302Y-60735020D01*
X178062313Y-60735020D01*
X178173966Y-60724023D01*
X178317227Y-60680566D01*
X178449256Y-60609994D01*
X178564981Y-60515021D01*
X178588784Y-60486017D01*
X180465570Y-58609232D01*
X180532149Y-58828715D01*
X180683970Y-59112752D01*
X180888287Y-59361714D01*
X181137249Y-59566031D01*
X181421286Y-59717852D01*
X181729485Y-59811343D01*
X182050000Y-59842911D01*
X182370516Y-59811343D01*
X182678715Y-59717852D01*
X182940001Y-59578192D01*
X182940001Y-62059184D01*
X182908317Y-62036843D01*
X182596622Y-61898469D01*
X182446122Y-61860825D01*
X182177000Y-61978875D01*
X182177000Y-64323000D01*
X182197000Y-64323000D01*
X182197000Y-64577000D01*
X182177000Y-64577000D01*
X182177000Y-66921125D01*
X182446122Y-67039175D01*
X182596622Y-67001531D01*
X182908317Y-66863157D01*
X182940001Y-66840816D01*
X182940001Y-69040000D01*
X127894429Y-69040000D01*
X127984668Y-68902880D01*
X128087534Y-68649540D01*
X128139000Y-68381000D01*
X128139000Y-67627000D01*
X126877000Y-67627000D01*
X126877000Y-67647000D01*
X126623000Y-67647000D01*
X126623000Y-67627000D01*
X125361000Y-67627000D01*
X125361000Y-68381000D01*
X125412466Y-68649540D01*
X125515332Y-68902880D01*
X125605571Y-69040000D01*
X124632734Y-69040000D01*
X124685870Y-68914215D01*
X124700286Y-68841814D01*
X124577677Y-68627000D01*
X122727000Y-68627000D01*
X122727000Y-68647000D01*
X122473000Y-68647000D01*
X122473000Y-68627000D01*
X120622323Y-68627000D01*
X120499714Y-68841814D01*
X120514130Y-68914215D01*
X120567266Y-69040000D01*
X84260000Y-69040000D01*
X84260000Y-66000000D01*
X118450280Y-66000000D01*
X118477098Y-66272291D01*
X118556523Y-66534119D01*
X118685501Y-66775420D01*
X118859077Y-66986923D01*
X119070580Y-67160499D01*
X119311881Y-67289477D01*
X119573709Y-67368902D01*
X119777770Y-67389000D01*
X121009205Y-67389000D01*
X120968716Y-67415646D01*
X120774026Y-67607631D01*
X120620531Y-67833909D01*
X120514130Y-68085785D01*
X120499714Y-68158186D01*
X120622323Y-68373000D01*
X122473000Y-68373000D01*
X122473000Y-68353000D01*
X122727000Y-68353000D01*
X122727000Y-68373000D01*
X124577677Y-68373000D01*
X124700286Y-68158186D01*
X124685870Y-68085785D01*
X124579469Y-67833909D01*
X124425974Y-67607631D01*
X124231284Y-67415646D01*
X124002880Y-67265332D01*
X123749540Y-67162466D01*
X123481000Y-67111000D01*
X122189735Y-67111000D01*
X122340923Y-66986923D01*
X122514499Y-66775420D01*
X122598107Y-66619000D01*
X125361000Y-66619000D01*
X125361000Y-67373000D01*
X126623000Y-67373000D01*
X126623000Y-65522323D01*
X126877000Y-65522323D01*
X126877000Y-67373000D01*
X128139000Y-67373000D01*
X128139000Y-66619000D01*
X128098134Y-66405767D01*
X128249047Y-66470563D01*
X128343110Y-66491476D01*
X128573000Y-66370155D01*
X128573000Y-64327000D01*
X127215000Y-64327000D01*
X127215000Y-65177000D01*
X127267068Y-65457579D01*
X127164215Y-65414130D01*
X127091814Y-65399714D01*
X126877000Y-65522323D01*
X126623000Y-65522323D01*
X126408186Y-65399714D01*
X126335785Y-65414130D01*
X126083909Y-65520531D01*
X125857631Y-65674026D01*
X125665646Y-65868716D01*
X125515332Y-66097120D01*
X125412466Y-66350460D01*
X125361000Y-66619000D01*
X122598107Y-66619000D01*
X122643477Y-66534119D01*
X122722902Y-66272291D01*
X122749720Y-66000000D01*
X122722902Y-65727709D01*
X122643477Y-65465881D01*
X122514499Y-65224580D01*
X122340923Y-65013077D01*
X122129420Y-64839501D01*
X121888119Y-64710523D01*
X121626291Y-64631098D01*
X121422230Y-64611000D01*
X119777770Y-64611000D01*
X119573709Y-64631098D01*
X119311881Y-64710523D01*
X119070580Y-64839501D01*
X118859077Y-65013077D01*
X118685501Y-65224580D01*
X118556523Y-65465881D01*
X118477098Y-65727709D01*
X118450280Y-66000000D01*
X84260000Y-66000000D01*
X84260000Y-60087499D01*
X85317106Y-60087499D01*
X85533228Y-60454258D01*
X85993105Y-60694938D01*
X86491098Y-60841275D01*
X87008071Y-60887648D01*
X87524159Y-60832273D01*
X88019526Y-60677279D01*
X88436772Y-60454258D01*
X88652894Y-60087499D01*
X86985000Y-58419605D01*
X85317106Y-60087499D01*
X84260000Y-60087499D01*
X84260000Y-58263071D01*
X84337352Y-58263071D01*
X84392727Y-58779159D01*
X84547721Y-59274526D01*
X84770742Y-59691772D01*
X85137501Y-59907894D01*
X86805395Y-58240000D01*
X87164605Y-58240000D01*
X88832499Y-59907894D01*
X89199258Y-59691772D01*
X89439938Y-59231895D01*
X89586275Y-58733902D01*
X89632648Y-58216929D01*
X89577273Y-57700841D01*
X89422279Y-57205474D01*
X89199258Y-56788228D01*
X88832499Y-56572106D01*
X87164605Y-58240000D01*
X86805395Y-58240000D01*
X85137501Y-56572106D01*
X84770742Y-56788228D01*
X84530062Y-57248105D01*
X84383725Y-57746098D01*
X84337352Y-58263071D01*
X84260000Y-58263071D01*
X84260000Y-56392501D01*
X85317106Y-56392501D01*
X86985000Y-58060395D01*
X88652894Y-56392501D01*
X88436772Y-56025742D01*
X87976895Y-55785062D01*
X87478902Y-55638725D01*
X86961929Y-55592352D01*
X86445841Y-55647727D01*
X85950474Y-55802721D01*
X85533228Y-56025742D01*
X85317106Y-56392501D01*
X84260000Y-56392501D01*
X84260000Y-49579872D01*
X86365000Y-49579872D01*
X86365000Y-50020128D01*
X86450890Y-50451925D01*
X86619369Y-50858669D01*
X86863962Y-51224729D01*
X87175271Y-51536038D01*
X87541331Y-51780631D01*
X87948075Y-51949110D01*
X88379872Y-52035000D01*
X88820128Y-52035000D01*
X89251925Y-51949110D01*
X89658669Y-51780631D01*
X90024729Y-51536038D01*
X90336038Y-51224729D01*
X90580631Y-50858669D01*
X90749110Y-50451925D01*
X90835000Y-50020128D01*
X90835000Y-49579872D01*
X90749110Y-49148075D01*
X90580631Y-48741331D01*
X90336038Y-48375271D01*
X90024729Y-48063962D01*
X89658669Y-47819369D01*
X89251925Y-47650890D01*
X88820128Y-47565000D01*
X88379872Y-47565000D01*
X87948075Y-47650890D01*
X87541331Y-47819369D01*
X87175271Y-48063962D01*
X86863962Y-48375271D01*
X86619369Y-48741331D01*
X86450890Y-49148075D01*
X86365000Y-49579872D01*
X84260000Y-49579872D01*
X84260000Y-45460000D01*
X163965868Y-45460000D01*
X163961928Y-45500000D01*
G36*
X96788665Y-57135000D02*
G01*
X97071335Y-57135000D01*
X97177391Y-57113904D01*
X97160241Y-57125363D01*
X96960363Y-57325241D01*
X96873628Y-57455049D01*
X96777702Y-57426903D01*
X95964605Y-58240000D01*
X96777702Y-59053097D01*
X96873628Y-59024951D01*
X96960363Y-59154759D01*
X97160241Y-59354637D01*
X97177391Y-59366096D01*
X97071335Y-59345000D01*
X96788665Y-59345000D01*
X96551294Y-59392217D01*
X96598097Y-59232702D01*
X95785000Y-58419605D01*
X94971903Y-59232702D01*
X95018706Y-59392217D01*
X94781335Y-59345000D01*
X94498665Y-59345000D01*
X94274999Y-59389491D01*
X94274999Y-58310512D01*
X94344783Y-58310512D01*
X94386213Y-58590130D01*
X94481397Y-58856292D01*
X94548329Y-58981514D01*
X94792298Y-59053097D01*
X95605395Y-58240000D01*
X94792298Y-57426903D01*
X94548329Y-57498486D01*
X94427429Y-57753996D01*
X94358700Y-58028184D01*
X94344783Y-58310512D01*
X94274999Y-58310512D01*
X94274999Y-57087902D01*
X94428184Y-57126300D01*
X94710512Y-57140217D01*
X94990130Y-57098787D01*
X95018449Y-57088660D01*
X94971903Y-57247298D01*
X95785000Y-58060395D01*
X96598097Y-57247298D01*
X96551294Y-57087783D01*
X96788665Y-57135000D01*
X96788665Y-57135000D01*
G37*
X96788665Y-57135000D02*
X97071335Y-57135000D01*
X97177391Y-57113904D01*
X97160241Y-57125363D01*
X96960363Y-57325241D01*
X96873628Y-57455049D01*
X96777702Y-57426903D01*
X95964605Y-58240000D01*
X96777702Y-59053097D01*
X96873628Y-59024951D01*
X96960363Y-59154759D01*
X97160241Y-59354637D01*
X97177391Y-59366096D01*
X97071335Y-59345000D01*
X96788665Y-59345000D01*
X96551294Y-59392217D01*
X96598097Y-59232702D01*
X95785000Y-58419605D01*
X94971903Y-59232702D01*
X95018706Y-59392217D01*
X94781335Y-59345000D01*
X94498665Y-59345000D01*
X94274999Y-59389491D01*
X94274999Y-58310512D01*
X94344783Y-58310512D01*
X94386213Y-58590130D01*
X94481397Y-58856292D01*
X94548329Y-58981514D01*
X94792298Y-59053097D01*
X95605395Y-58240000D01*
X94792298Y-57426903D01*
X94548329Y-57498486D01*
X94427429Y-57753996D01*
X94358700Y-58028184D01*
X94344783Y-58310512D01*
X94274999Y-58310512D01*
X94274999Y-57087902D01*
X94428184Y-57126300D01*
X94710512Y-57140217D01*
X94990130Y-57098787D01*
X95018449Y-57088660D01*
X94971903Y-57247298D01*
X95785000Y-58060395D01*
X96598097Y-57247298D01*
X96551294Y-57087783D01*
X96788665Y-57135000D01*
G36*
X172915001Y-58280322D02*
G01*
X172938658Y-58520516D01*
X173032149Y-58828715D01*
X173183970Y-59112752D01*
X173267899Y-59215020D01*
X169983628Y-59215020D01*
X172915000Y-56283649D01*
X172915001Y-58280322D01*
X172915001Y-58280322D01*
G37*
X172915001Y-58280322D02*
X172938658Y-58520516D01*
X173032149Y-58828715D01*
X173183970Y-59112752D01*
X173267899Y-59215020D01*
X169983628Y-59215020D01*
X172915000Y-56283649D01*
X172915001Y-58280322D01*
G36*
X152532148Y-55571286D02*
G01*
X152438657Y-55879485D01*
X152415000Y-56119679D01*
X152415001Y-58280322D01*
X152438658Y-58520516D01*
X152532149Y-58828715D01*
X152683970Y-59112752D01*
X152767899Y-59215020D01*
X147832102Y-59215020D01*
X147916031Y-59112752D01*
X148067852Y-58828715D01*
X148161343Y-58520516D01*
X148185000Y-58280322D01*
X148185000Y-57855968D01*
X148224276Y-57834974D01*
X148340001Y-57740001D01*
X148363804Y-57710997D01*
X150664791Y-55410011D01*
X152618351Y-55410011D01*
X152532148Y-55571286D01*
X152532148Y-55571286D01*
G37*
X152532148Y-55571286D02*
X152438657Y-55879485D01*
X152415000Y-56119679D01*
X152415001Y-58280322D01*
X152438658Y-58520516D01*
X152532149Y-58828715D01*
X152683970Y-59112752D01*
X152767899Y-59215020D01*
X147832102Y-59215020D01*
X147916031Y-59112752D01*
X148067852Y-58828715D01*
X148161343Y-58520516D01*
X148185000Y-58280322D01*
X148185000Y-57855968D01*
X148224276Y-57834974D01*
X148340001Y-57740001D01*
X148363804Y-57710997D01*
X150664791Y-55410011D01*
X152618351Y-55410011D01*
X152532148Y-55571286D01*
G36*
X181290000Y-51114864D02*
G01*
X181290001Y-54752321D01*
X181137248Y-54833969D01*
X180888286Y-55038286D01*
X180683969Y-55287249D01*
X180532148Y-55571286D01*
X180438657Y-55879485D01*
X180415000Y-56119679D01*
X180415000Y-56544032D01*
X180375723Y-56565026D01*
X180292083Y-56633668D01*
X180259999Y-56659999D01*
X180236201Y-56688997D01*
X177710179Y-59215020D01*
X175832102Y-59215020D01*
X175916031Y-59112752D01*
X176067852Y-58828715D01*
X176161343Y-58520516D01*
X176185000Y-58280322D01*
X176185000Y-56119678D01*
X176161343Y-55879484D01*
X176067852Y-55571285D01*
X175916031Y-55287248D01*
X175711714Y-55038286D01*
X175462751Y-54833969D01*
X175178714Y-54682148D01*
X174870515Y-54588657D01*
X174550000Y-54557089D01*
X174229484Y-54588657D01*
X173921285Y-54682148D01*
X173670353Y-54816274D01*
X173777962Y-54727962D01*
X173888405Y-54593386D01*
X173970472Y-54439850D01*
X174021008Y-54273254D01*
X174038072Y-54100000D01*
X174038072Y-51185041D01*
X177310240Y-51185041D01*
X178361928Y-52236730D01*
X178361928Y-54100000D01*
X178378992Y-54273254D01*
X178429528Y-54439850D01*
X178511595Y-54593386D01*
X178622038Y-54727962D01*
X178756614Y-54838405D01*
X178910150Y-54920472D01*
X179076746Y-54971008D01*
X179250000Y-54988072D01*
X180350000Y-54988072D01*
X180523254Y-54971008D01*
X180689850Y-54920472D01*
X180843386Y-54838405D01*
X180977962Y-54727962D01*
X181088405Y-54593386D01*
X181170472Y-54439850D01*
X181221008Y-54273254D01*
X181238072Y-54100000D01*
X181238072Y-51100000D01*
X181234023Y-51058886D01*
X181290000Y-51114864D01*
X181290000Y-51114864D01*
G37*
X181290000Y-51114864D02*
X181290001Y-54752321D01*
X181137248Y-54833969D01*
X180888286Y-55038286D01*
X180683969Y-55287249D01*
X180532148Y-55571286D01*
X180438657Y-55879485D01*
X180415000Y-56119679D01*
X180415000Y-56544032D01*
X180375723Y-56565026D01*
X180292083Y-56633668D01*
X180259999Y-56659999D01*
X180236201Y-56688997D01*
X177710179Y-59215020D01*
X175832102Y-59215020D01*
X175916031Y-59112752D01*
X176067852Y-58828715D01*
X176161343Y-58520516D01*
X176185000Y-58280322D01*
X176185000Y-56119678D01*
X176161343Y-55879484D01*
X176067852Y-55571285D01*
X175916031Y-55287248D01*
X175711714Y-55038286D01*
X175462751Y-54833969D01*
X175178714Y-54682148D01*
X174870515Y-54588657D01*
X174550000Y-54557089D01*
X174229484Y-54588657D01*
X173921285Y-54682148D01*
X173670353Y-54816274D01*
X173777962Y-54727962D01*
X173888405Y-54593386D01*
X173970472Y-54439850D01*
X174021008Y-54273254D01*
X174038072Y-54100000D01*
X174038072Y-51185041D01*
X177310240Y-51185041D01*
X178361928Y-52236730D01*
X178361928Y-54100000D01*
X178378992Y-54273254D01*
X178429528Y-54439850D01*
X178511595Y-54593386D01*
X178622038Y-54727962D01*
X178756614Y-54838405D01*
X178910150Y-54920472D01*
X179076746Y-54971008D01*
X179250000Y-54988072D01*
X180350000Y-54988072D01*
X180523254Y-54971008D01*
X180689850Y-54920472D01*
X180843386Y-54838405D01*
X180977962Y-54727962D01*
X181088405Y-54593386D01*
X181170472Y-54439850D01*
X181221008Y-54273254D01*
X181238072Y-54100000D01*
X181238072Y-51100000D01*
X181234023Y-51058886D01*
X181290000Y-51114864D01*
G36*
X108961201Y-54111003D02*
G01*
X108984999Y-54140001D01*
X109013997Y-54163799D01*
X109100724Y-54234974D01*
X109232753Y-54305546D01*
X109376014Y-54349003D01*
X109525000Y-54363677D01*
X109562333Y-54360000D01*
X141865198Y-54360000D01*
X138842246Y-57382953D01*
X138731880Y-57361000D01*
X138468120Y-57361000D01*
X138209428Y-57412457D01*
X137965746Y-57513393D01*
X137746437Y-57659931D01*
X137559931Y-57846437D01*
X137413393Y-58065746D01*
X137312457Y-58309428D01*
X137261000Y-58568120D01*
X137261000Y-58831880D01*
X137288275Y-58969001D01*
X133111725Y-58969001D01*
X133139000Y-58831880D01*
X133139000Y-58568120D01*
X133087543Y-58309428D01*
X132986607Y-58065746D01*
X132840069Y-57846437D01*
X132653563Y-57659931D01*
X132434254Y-57513393D01*
X132190572Y-57412457D01*
X131931880Y-57361000D01*
X131668120Y-57361000D01*
X131409428Y-57412457D01*
X131165746Y-57513393D01*
X130946437Y-57659931D01*
X130759931Y-57846437D01*
X130613393Y-58065746D01*
X130512457Y-58309428D01*
X130461000Y-58568120D01*
X130461000Y-58831880D01*
X130488275Y-58969001D01*
X130473753Y-58969001D01*
X126693754Y-55189003D01*
X126669951Y-55159999D01*
X126554226Y-55065026D01*
X126422197Y-54994454D01*
X126278936Y-54950997D01*
X126167283Y-54940000D01*
X126167272Y-54940000D01*
X126129950Y-54936324D01*
X126092628Y-54940000D01*
X105238072Y-54940000D01*
X105238072Y-54900000D01*
X105225812Y-54775518D01*
X105189502Y-54655820D01*
X105130537Y-54545506D01*
X105051185Y-54448815D01*
X104954494Y-54369463D01*
X104844180Y-54310498D01*
X104724482Y-54274188D01*
X104600000Y-54261928D01*
X103000000Y-54261928D01*
X102875518Y-54274188D01*
X102755820Y-54310498D01*
X102645506Y-54369463D01*
X102548815Y-54448815D01*
X102469463Y-54545506D01*
X102440008Y-54600612D01*
X102424759Y-54585363D01*
X102189727Y-54428320D01*
X101928574Y-54320147D01*
X101651335Y-54265000D01*
X101368665Y-54265000D01*
X101091426Y-54320147D01*
X100830273Y-54428320D01*
X100595241Y-54585363D01*
X100395363Y-54785241D01*
X100365000Y-54830683D01*
X100334637Y-54785241D01*
X100134759Y-54585363D01*
X99899727Y-54428320D01*
X99638574Y-54320147D01*
X99361335Y-54265000D01*
X99078665Y-54265000D01*
X98801426Y-54320147D01*
X98540273Y-54428320D01*
X98305241Y-54585363D01*
X98105363Y-54785241D01*
X98075000Y-54830683D01*
X98044637Y-54785241D01*
X97844759Y-54585363D01*
X97609727Y-54428320D01*
X97348574Y-54320147D01*
X97071335Y-54265000D01*
X96788665Y-54265000D01*
X96511426Y-54320147D01*
X96250273Y-54428320D01*
X96015241Y-54585363D01*
X95815363Y-54785241D01*
X95728628Y-54915049D01*
X95632702Y-54886903D01*
X94819605Y-55700000D01*
X95632702Y-56513097D01*
X95728628Y-56484951D01*
X95815363Y-56614759D01*
X96015241Y-56814637D01*
X96024059Y-56820529D01*
X95996816Y-56813700D01*
X95714488Y-56799783D01*
X95434870Y-56841213D01*
X95406551Y-56851340D01*
X95453097Y-56692702D01*
X94640000Y-55879605D01*
X94625858Y-55893748D01*
X94446253Y-55714143D01*
X94460395Y-55700000D01*
X94446253Y-55685858D01*
X94625858Y-55506253D01*
X94640000Y-55520395D01*
X95453097Y-54707298D01*
X95381514Y-54463329D01*
X95316998Y-54432802D01*
X99089800Y-50660000D01*
X100595473Y-50660000D01*
X100604528Y-50689851D01*
X100686595Y-50843387D01*
X100797038Y-50977962D01*
X100931613Y-51088405D01*
X101085149Y-51170472D01*
X101251745Y-51221008D01*
X101424999Y-51238072D01*
X102075001Y-51238072D01*
X102248255Y-51221008D01*
X102414851Y-51170472D01*
X102568387Y-51088405D01*
X102702962Y-50977962D01*
X102775000Y-50890184D01*
X102847038Y-50977962D01*
X102981613Y-51088405D01*
X103135149Y-51170472D01*
X103301745Y-51221008D01*
X103474999Y-51238072D01*
X104125001Y-51238072D01*
X104298255Y-51221008D01*
X104464851Y-51170472D01*
X104618387Y-51088405D01*
X104752962Y-50977962D01*
X104863405Y-50843387D01*
X104945472Y-50689851D01*
X104996008Y-50523255D01*
X105013072Y-50350001D01*
X105013072Y-50162873D01*
X108961201Y-54111003D01*
X108961201Y-54111003D01*
G37*
X108961201Y-54111003D02*
X108984999Y-54140001D01*
X109013997Y-54163799D01*
X109100724Y-54234974D01*
X109232753Y-54305546D01*
X109376014Y-54349003D01*
X109525000Y-54363677D01*
X109562333Y-54360000D01*
X141865198Y-54360000D01*
X138842246Y-57382953D01*
X138731880Y-57361000D01*
X138468120Y-57361000D01*
X138209428Y-57412457D01*
X137965746Y-57513393D01*
X137746437Y-57659931D01*
X137559931Y-57846437D01*
X137413393Y-58065746D01*
X137312457Y-58309428D01*
X137261000Y-58568120D01*
X137261000Y-58831880D01*
X137288275Y-58969001D01*
X133111725Y-58969001D01*
X133139000Y-58831880D01*
X133139000Y-58568120D01*
X133087543Y-58309428D01*
X132986607Y-58065746D01*
X132840069Y-57846437D01*
X132653563Y-57659931D01*
X132434254Y-57513393D01*
X132190572Y-57412457D01*
X131931880Y-57361000D01*
X131668120Y-57361000D01*
X131409428Y-57412457D01*
X131165746Y-57513393D01*
X130946437Y-57659931D01*
X130759931Y-57846437D01*
X130613393Y-58065746D01*
X130512457Y-58309428D01*
X130461000Y-58568120D01*
X130461000Y-58831880D01*
X130488275Y-58969001D01*
X130473753Y-58969001D01*
X126693754Y-55189003D01*
X126669951Y-55159999D01*
X126554226Y-55065026D01*
X126422197Y-54994454D01*
X126278936Y-54950997D01*
X126167283Y-54940000D01*
X126167272Y-54940000D01*
X126129950Y-54936324D01*
X126092628Y-54940000D01*
X105238072Y-54940000D01*
X105238072Y-54900000D01*
X105225812Y-54775518D01*
X105189502Y-54655820D01*
X105130537Y-54545506D01*
X105051185Y-54448815D01*
X104954494Y-54369463D01*
X104844180Y-54310498D01*
X104724482Y-54274188D01*
X104600000Y-54261928D01*
X103000000Y-54261928D01*
X102875518Y-54274188D01*
X102755820Y-54310498D01*
X102645506Y-54369463D01*
X102548815Y-54448815D01*
X102469463Y-54545506D01*
X102440008Y-54600612D01*
X102424759Y-54585363D01*
X102189727Y-54428320D01*
X101928574Y-54320147D01*
X101651335Y-54265000D01*
X101368665Y-54265000D01*
X101091426Y-54320147D01*
X100830273Y-54428320D01*
X100595241Y-54585363D01*
X100395363Y-54785241D01*
X100365000Y-54830683D01*
X100334637Y-54785241D01*
X100134759Y-54585363D01*
X99899727Y-54428320D01*
X99638574Y-54320147D01*
X99361335Y-54265000D01*
X99078665Y-54265000D01*
X98801426Y-54320147D01*
X98540273Y-54428320D01*
X98305241Y-54585363D01*
X98105363Y-54785241D01*
X98075000Y-54830683D01*
X98044637Y-54785241D01*
X97844759Y-54585363D01*
X97609727Y-54428320D01*
X97348574Y-54320147D01*
X97071335Y-54265000D01*
X96788665Y-54265000D01*
X96511426Y-54320147D01*
X96250273Y-54428320D01*
X96015241Y-54585363D01*
X95815363Y-54785241D01*
X95728628Y-54915049D01*
X95632702Y-54886903D01*
X94819605Y-55700000D01*
X95632702Y-56513097D01*
X95728628Y-56484951D01*
X95815363Y-56614759D01*
X96015241Y-56814637D01*
X96024059Y-56820529D01*
X95996816Y-56813700D01*
X95714488Y-56799783D01*
X95434870Y-56841213D01*
X95406551Y-56851340D01*
X95453097Y-56692702D01*
X94640000Y-55879605D01*
X94625858Y-55893748D01*
X94446253Y-55714143D01*
X94460395Y-55700000D01*
X94446253Y-55685858D01*
X94625858Y-55506253D01*
X94640000Y-55520395D01*
X95453097Y-54707298D01*
X95381514Y-54463329D01*
X95316998Y-54432802D01*
X99089800Y-50660000D01*
X100595473Y-50660000D01*
X100604528Y-50689851D01*
X100686595Y-50843387D01*
X100797038Y-50977962D01*
X100931613Y-51088405D01*
X101085149Y-51170472D01*
X101251745Y-51221008D01*
X101424999Y-51238072D01*
X102075001Y-51238072D01*
X102248255Y-51221008D01*
X102414851Y-51170472D01*
X102568387Y-51088405D01*
X102702962Y-50977962D01*
X102775000Y-50890184D01*
X102847038Y-50977962D01*
X102981613Y-51088405D01*
X103135149Y-51170472D01*
X103301745Y-51221008D01*
X103474999Y-51238072D01*
X104125001Y-51238072D01*
X104298255Y-51221008D01*
X104464851Y-51170472D01*
X104618387Y-51088405D01*
X104752962Y-50977962D01*
X104863405Y-50843387D01*
X104945472Y-50689851D01*
X104996008Y-50523255D01*
X105013072Y-50350001D01*
X105013072Y-50162873D01*
X108961201Y-54111003D01*
G36*
X159032148Y-55571286D02*
G01*
X158938657Y-55879485D01*
X158915000Y-56119679D01*
X158915001Y-58280322D01*
X158938658Y-58520516D01*
X159012824Y-58765010D01*
X157939812Y-58765010D01*
X155863804Y-56689003D01*
X155840001Y-56659999D01*
X155724276Y-56565026D01*
X155685000Y-56544032D01*
X155685000Y-56119678D01*
X155661343Y-55879484D01*
X155567852Y-55571285D01*
X155481649Y-55410011D01*
X159118351Y-55410011D01*
X159032148Y-55571286D01*
X159032148Y-55571286D01*
G37*
X159032148Y-55571286D02*
X158938657Y-55879485D01*
X158915000Y-56119679D01*
X158915001Y-58280322D01*
X158938658Y-58520516D01*
X159012824Y-58765010D01*
X157939812Y-58765010D01*
X155863804Y-56689003D01*
X155840001Y-56659999D01*
X155724276Y-56565026D01*
X155685000Y-56544032D01*
X155685000Y-56119678D01*
X155661343Y-55879484D01*
X155567852Y-55571285D01*
X155481649Y-55410011D01*
X159118351Y-55410011D01*
X159032148Y-55571286D01*
G36*
X167539003Y-53723006D02*
G01*
X167509999Y-53746809D01*
X167454871Y-53813984D01*
X167415026Y-53862534D01*
X167371233Y-53944465D01*
X167344454Y-53994564D01*
X167300997Y-54137825D01*
X167290000Y-54249478D01*
X167290000Y-54249488D01*
X167286324Y-54286810D01*
X167290000Y-54324132D01*
X167290000Y-54752321D01*
X167137248Y-54833969D01*
X166888286Y-55038286D01*
X166683969Y-55287249D01*
X166532148Y-55571286D01*
X166438657Y-55879485D01*
X166415000Y-56119679D01*
X166415000Y-56440000D01*
X164914802Y-56440000D01*
X164235000Y-55760199D01*
X164235000Y-55698061D01*
X164195226Y-55498102D01*
X164117205Y-55309744D01*
X164003937Y-55140226D01*
X163859774Y-54996063D01*
X163690256Y-54882795D01*
X163501898Y-54804774D01*
X163301939Y-54765000D01*
X163098061Y-54765000D01*
X162898102Y-54804774D01*
X162709744Y-54882795D01*
X162540226Y-54996063D01*
X162396063Y-55140226D01*
X162282795Y-55309744D01*
X162204774Y-55498102D01*
X162165000Y-55698061D01*
X162165000Y-55901939D01*
X162204774Y-56101898D01*
X162282795Y-56290256D01*
X162396063Y-56459774D01*
X162540226Y-56603937D01*
X162709744Y-56717205D01*
X162898102Y-56795226D01*
X163098061Y-56835000D01*
X163160199Y-56835000D01*
X164036200Y-57711002D01*
X164059999Y-57740001D01*
X164088997Y-57763799D01*
X164175723Y-57834974D01*
X164297377Y-57900000D01*
X164307753Y-57905546D01*
X164451014Y-57949003D01*
X164562667Y-57960000D01*
X164562677Y-57960000D01*
X164600000Y-57963676D01*
X164637322Y-57960000D01*
X166415001Y-57960000D01*
X166415001Y-58280322D01*
X166438658Y-58520516D01*
X166512824Y-58765010D01*
X162087177Y-58765010D01*
X162161343Y-58520516D01*
X162185000Y-58280322D01*
X162185000Y-56119678D01*
X162161343Y-55879484D01*
X162067852Y-55571285D01*
X161916031Y-55287248D01*
X161711714Y-55038286D01*
X161462751Y-54833969D01*
X161407288Y-54804323D01*
X163961928Y-52249685D01*
X163961928Y-54100000D01*
X163978992Y-54273254D01*
X164029528Y-54439850D01*
X164111595Y-54593386D01*
X164222038Y-54727962D01*
X164356614Y-54838405D01*
X164510150Y-54920472D01*
X164676746Y-54971008D01*
X164850000Y-54988072D01*
X165950000Y-54988072D01*
X166123254Y-54971008D01*
X166289850Y-54920472D01*
X166443386Y-54838405D01*
X166577962Y-54727962D01*
X166688405Y-54593386D01*
X166770472Y-54439850D01*
X166821008Y-54273254D01*
X166838072Y-54100000D01*
X166838072Y-53281052D01*
X166924276Y-53234974D01*
X167040001Y-53140001D01*
X167063804Y-53110997D01*
X169439771Y-50735031D01*
X170526977Y-50735031D01*
X167539003Y-53723006D01*
X167539003Y-53723006D01*
G37*
X167539003Y-53723006D02*
X167509999Y-53746809D01*
X167454871Y-53813984D01*
X167415026Y-53862534D01*
X167371233Y-53944465D01*
X167344454Y-53994564D01*
X167300997Y-54137825D01*
X167290000Y-54249478D01*
X167290000Y-54249488D01*
X167286324Y-54286810D01*
X167290000Y-54324132D01*
X167290000Y-54752321D01*
X167137248Y-54833969D01*
X166888286Y-55038286D01*
X166683969Y-55287249D01*
X166532148Y-55571286D01*
X166438657Y-55879485D01*
X166415000Y-56119679D01*
X166415000Y-56440000D01*
X164914802Y-56440000D01*
X164235000Y-55760199D01*
X164235000Y-55698061D01*
X164195226Y-55498102D01*
X164117205Y-55309744D01*
X164003937Y-55140226D01*
X163859774Y-54996063D01*
X163690256Y-54882795D01*
X163501898Y-54804774D01*
X163301939Y-54765000D01*
X163098061Y-54765000D01*
X162898102Y-54804774D01*
X162709744Y-54882795D01*
X162540226Y-54996063D01*
X162396063Y-55140226D01*
X162282795Y-55309744D01*
X162204774Y-55498102D01*
X162165000Y-55698061D01*
X162165000Y-55901939D01*
X162204774Y-56101898D01*
X162282795Y-56290256D01*
X162396063Y-56459774D01*
X162540226Y-56603937D01*
X162709744Y-56717205D01*
X162898102Y-56795226D01*
X163098061Y-56835000D01*
X163160199Y-56835000D01*
X164036200Y-57711002D01*
X164059999Y-57740001D01*
X164088997Y-57763799D01*
X164175723Y-57834974D01*
X164297377Y-57900000D01*
X164307753Y-57905546D01*
X164451014Y-57949003D01*
X164562667Y-57960000D01*
X164562677Y-57960000D01*
X164600000Y-57963676D01*
X164637322Y-57960000D01*
X166415001Y-57960000D01*
X166415001Y-58280322D01*
X166438658Y-58520516D01*
X166512824Y-58765010D01*
X162087177Y-58765010D01*
X162161343Y-58520516D01*
X162185000Y-58280322D01*
X162185000Y-56119678D01*
X162161343Y-55879484D01*
X162067852Y-55571285D01*
X161916031Y-55287248D01*
X161711714Y-55038286D01*
X161462751Y-54833969D01*
X161407288Y-54804323D01*
X163961928Y-52249685D01*
X163961928Y-54100000D01*
X163978992Y-54273254D01*
X164029528Y-54439850D01*
X164111595Y-54593386D01*
X164222038Y-54727962D01*
X164356614Y-54838405D01*
X164510150Y-54920472D01*
X164676746Y-54971008D01*
X164850000Y-54988072D01*
X165950000Y-54988072D01*
X166123254Y-54971008D01*
X166289850Y-54920472D01*
X166443386Y-54838405D01*
X166577962Y-54727962D01*
X166688405Y-54593386D01*
X166770472Y-54439850D01*
X166821008Y-54273254D01*
X166838072Y-54100000D01*
X166838072Y-53281052D01*
X166924276Y-53234974D01*
X167040001Y-53140001D01*
X167063804Y-53110997D01*
X169439771Y-50735031D01*
X170526977Y-50735031D01*
X167539003Y-53723006D01*
G36*
X145388286Y-55038286D02*
G01*
X145183969Y-55287249D01*
X145032148Y-55571286D01*
X144938657Y-55879485D01*
X144915000Y-56119679D01*
X144915001Y-57478484D01*
X144825519Y-57389002D01*
X144801716Y-57359999D01*
X144685991Y-57265026D01*
X144553962Y-57194454D01*
X144410701Y-57150997D01*
X144299048Y-57140000D01*
X144299037Y-57140000D01*
X144261715Y-57136324D01*
X144224393Y-57140000D01*
X141234801Y-57140000D01*
X143414802Y-54960000D01*
X145483678Y-54960000D01*
X145388286Y-55038286D01*
X145388286Y-55038286D01*
G37*
X145388286Y-55038286D02*
X145183969Y-55287249D01*
X145032148Y-55571286D01*
X144938657Y-55879485D01*
X144915000Y-56119679D01*
X144915001Y-57478484D01*
X144825519Y-57389002D01*
X144801716Y-57359999D01*
X144685991Y-57265026D01*
X144553962Y-57194454D01*
X144410701Y-57150997D01*
X144299048Y-57140000D01*
X144299037Y-57140000D01*
X144261715Y-57136324D01*
X144224393Y-57140000D01*
X141234801Y-57140000D01*
X143414802Y-54960000D01*
X145483678Y-54960000D01*
X145388286Y-55038286D01*
G36*
X171161928Y-54100000D02*
G01*
X171178992Y-54273254D01*
X171229528Y-54439850D01*
X171311595Y-54593386D01*
X171422038Y-54727962D01*
X171556614Y-54838405D01*
X171710150Y-54920472D01*
X171840001Y-54959862D01*
X171840001Y-55209044D01*
X169685000Y-57364046D01*
X169685000Y-56119678D01*
X169661343Y-55879484D01*
X169567852Y-55571285D01*
X169416031Y-55287248D01*
X169211714Y-55038286D01*
X168962751Y-54833969D01*
X168810000Y-54752322D01*
X168810000Y-54601611D01*
X171161928Y-52249684D01*
X171161928Y-54100000D01*
X171161928Y-54100000D01*
G37*
X171161928Y-54100000D02*
X171178992Y-54273254D01*
X171229528Y-54439850D01*
X171311595Y-54593386D01*
X171422038Y-54727962D01*
X171556614Y-54838405D01*
X171710150Y-54920472D01*
X171840001Y-54959862D01*
X171840001Y-55209044D01*
X169685000Y-57364046D01*
X169685000Y-56119678D01*
X169661343Y-55879484D01*
X169567852Y-55571285D01*
X169416031Y-55287248D01*
X169211714Y-55038286D01*
X168962751Y-54833969D01*
X168810000Y-54752322D01*
X168810000Y-54601611D01*
X171161928Y-52249684D01*
X171161928Y-54100000D01*
G36*
X182940001Y-44767572D02*
G01*
X182940000Y-44767582D01*
X182940000Y-54821809D01*
X182810000Y-54752322D01*
X182810000Y-50837384D01*
X182813676Y-50800061D01*
X182810000Y-50762738D01*
X182810000Y-50762729D01*
X182799003Y-50651076D01*
X182755546Y-50507815D01*
X182711303Y-50425043D01*
X182684974Y-50375785D01*
X182613799Y-50289059D01*
X182590001Y-50260061D01*
X182561004Y-50236264D01*
X181788772Y-49464033D01*
X181764970Y-49435030D01*
X181649245Y-49340057D01*
X181517216Y-49269485D01*
X181481131Y-49258539D01*
X181559984Y-49162456D01*
X181630556Y-49030427D01*
X181674013Y-48887166D01*
X181685010Y-48775513D01*
X181685010Y-48775505D01*
X181688686Y-48738180D01*
X181685010Y-48700855D01*
X181685010Y-29604123D01*
X181688687Y-29566790D01*
X181674013Y-29417804D01*
X181673718Y-29416830D01*
X181756994Y-29372317D01*
X181853685Y-29292965D01*
X181933037Y-29196274D01*
X181992002Y-29085960D01*
X182028312Y-28966262D01*
X182040572Y-28841780D01*
X182040572Y-26360000D01*
X182940000Y-26360000D01*
X182940001Y-44767572D01*
X182940001Y-44767572D01*
G37*
X182940001Y-44767572D02*
X182940000Y-44767582D01*
X182940000Y-54821809D01*
X182810000Y-54752322D01*
X182810000Y-50837384D01*
X182813676Y-50800061D01*
X182810000Y-50762738D01*
X182810000Y-50762729D01*
X182799003Y-50651076D01*
X182755546Y-50507815D01*
X182711303Y-50425043D01*
X182684974Y-50375785D01*
X182613799Y-50289059D01*
X182590001Y-50260061D01*
X182561004Y-50236264D01*
X181788772Y-49464033D01*
X181764970Y-49435030D01*
X181649245Y-49340057D01*
X181517216Y-49269485D01*
X181481131Y-49258539D01*
X181559984Y-49162456D01*
X181630556Y-49030427D01*
X181674013Y-48887166D01*
X181685010Y-48775513D01*
X181685010Y-48775505D01*
X181688686Y-48738180D01*
X181685010Y-48700855D01*
X181685010Y-29604123D01*
X181688687Y-29566790D01*
X181674013Y-29417804D01*
X181673718Y-29416830D01*
X181756994Y-29372317D01*
X181853685Y-29292965D01*
X181933037Y-29196274D01*
X181992002Y-29085960D01*
X182028312Y-28966262D01*
X182040572Y-28841780D01*
X182040572Y-26360000D01*
X182940000Y-26360000D01*
X182940001Y-44767572D01*
G36*
X179010179Y-44649185D02*
G01*
X178910150Y-44679528D01*
X178756614Y-44761595D01*
X178622038Y-44872038D01*
X178511595Y-45006614D01*
X178429528Y-45160150D01*
X178378992Y-45326746D01*
X178361928Y-45500000D01*
X178361928Y-48340000D01*
X175210143Y-48340000D01*
X175199081Y-48338910D01*
X178291239Y-45246753D01*
X178320237Y-45222955D01*
X178415210Y-45107230D01*
X178485782Y-44975201D01*
X178529239Y-44831940D01*
X178540236Y-44720287D01*
X178540236Y-44720278D01*
X178543912Y-44682955D01*
X178540236Y-44645632D01*
X178540236Y-44179241D01*
X179010179Y-44649185D01*
X179010179Y-44649185D01*
G37*
X179010179Y-44649185D02*
X178910150Y-44679528D01*
X178756614Y-44761595D01*
X178622038Y-44872038D01*
X178511595Y-45006614D01*
X178429528Y-45160150D01*
X178378992Y-45326746D01*
X178361928Y-45500000D01*
X178361928Y-48340000D01*
X175210143Y-48340000D01*
X175199081Y-48338910D01*
X178291239Y-45246753D01*
X178320237Y-45222955D01*
X178415210Y-45107230D01*
X178485782Y-44975201D01*
X178529239Y-44831940D01*
X178540236Y-44720287D01*
X178540236Y-44720278D01*
X178543912Y-44682955D01*
X178540236Y-44645632D01*
X178540236Y-44179241D01*
X179010179Y-44649185D01*
G36*
X171161928Y-48189989D02*
G01*
X168784413Y-48189989D01*
X171161928Y-45812474D01*
X171161928Y-48189989D01*
X171161928Y-48189989D01*
G37*
X171161928Y-48189989D02*
X168784413Y-48189989D01*
X171161928Y-45812474D01*
X171161928Y-48189989D01*
G36*
X176713320Y-29431282D02*
G01*
X176833018Y-29467592D01*
X176957500Y-29479852D01*
X177150000Y-29479852D01*
X177150001Y-42291390D01*
X177145262Y-42297164D01*
X177132821Y-42320440D01*
X177074690Y-42429194D01*
X177031233Y-42572455D01*
X177020236Y-42684108D01*
X177020236Y-42684118D01*
X177016560Y-42721440D01*
X177020236Y-42758763D01*
X177020237Y-44368151D01*
X174038072Y-47350317D01*
X174038072Y-45500000D01*
X174021008Y-45326746D01*
X173970472Y-45160150D01*
X173888405Y-45006614D01*
X173777962Y-44872038D01*
X173643386Y-44761595D01*
X173516711Y-44693885D01*
X173535000Y-44601939D01*
X173535000Y-44398061D01*
X173495226Y-44198102D01*
X173417205Y-44009744D01*
X173303937Y-43840226D01*
X173219057Y-43755346D01*
X175881003Y-41093399D01*
X175910001Y-41069601D01*
X176004974Y-40953876D01*
X176075546Y-40821847D01*
X176119003Y-40678586D01*
X176130000Y-40566933D01*
X176130000Y-40566925D01*
X176133676Y-40529600D01*
X176130000Y-40492275D01*
X176130000Y-29479852D01*
X176322500Y-29479852D01*
X176446982Y-29467592D01*
X176566680Y-29431282D01*
X176640000Y-29392091D01*
X176713320Y-29431282D01*
X176713320Y-29431282D01*
G37*
X176713320Y-29431282D02*
X176833018Y-29467592D01*
X176957500Y-29479852D01*
X177150000Y-29479852D01*
X177150001Y-42291390D01*
X177145262Y-42297164D01*
X177132821Y-42320440D01*
X177074690Y-42429194D01*
X177031233Y-42572455D01*
X177020236Y-42684108D01*
X177020236Y-42684118D01*
X177016560Y-42721440D01*
X177020236Y-42758763D01*
X177020237Y-44368151D01*
X174038072Y-47350317D01*
X174038072Y-45500000D01*
X174021008Y-45326746D01*
X173970472Y-45160150D01*
X173888405Y-45006614D01*
X173777962Y-44872038D01*
X173643386Y-44761595D01*
X173516711Y-44693885D01*
X173535000Y-44601939D01*
X173535000Y-44398061D01*
X173495226Y-44198102D01*
X173417205Y-44009744D01*
X173303937Y-43840226D01*
X173219057Y-43755346D01*
X175881003Y-41093399D01*
X175910001Y-41069601D01*
X176004974Y-40953876D01*
X176075546Y-40821847D01*
X176119003Y-40678586D01*
X176130000Y-40566933D01*
X176130000Y-40566925D01*
X176133676Y-40529600D01*
X176130000Y-40492275D01*
X176130000Y-29479852D01*
X176322500Y-29479852D01*
X176446982Y-29467592D01*
X176566680Y-29431282D01*
X176640000Y-29392091D01*
X176713320Y-29431282D01*
G36*
X169093320Y-29431282D02*
G01*
X169213018Y-29467592D01*
X169337500Y-29479852D01*
X169530000Y-29479852D01*
X169530001Y-44658386D01*
X166838072Y-47350316D01*
X166838072Y-46636729D01*
X168261003Y-45213799D01*
X168290001Y-45190001D01*
X168384974Y-45074276D01*
X168455546Y-44942247D01*
X168499003Y-44798986D01*
X168510000Y-44687333D01*
X168510000Y-44687323D01*
X168513676Y-44650000D01*
X168510000Y-44612677D01*
X168510000Y-29479852D01*
X168702500Y-29479852D01*
X168826982Y-29467592D01*
X168946680Y-29431282D01*
X169020000Y-29392091D01*
X169093320Y-29431282D01*
X169093320Y-29431282D01*
G37*
X169093320Y-29431282D02*
X169213018Y-29467592D01*
X169337500Y-29479852D01*
X169530000Y-29479852D01*
X169530001Y-44658386D01*
X166838072Y-47350316D01*
X166838072Y-46636729D01*
X168261003Y-45213799D01*
X168290001Y-45190001D01*
X168384974Y-45074276D01*
X168455546Y-44942247D01*
X168499003Y-44798986D01*
X168510000Y-44687333D01*
X168510000Y-44687323D01*
X168513676Y-44650000D01*
X168510000Y-44612677D01*
X168510000Y-29479852D01*
X168702500Y-29479852D01*
X168826982Y-29467592D01*
X168946680Y-29431282D01*
X169020000Y-29392091D01*
X169093320Y-29431282D01*
G36*
X166159428Y-28841780D02*
G01*
X166171688Y-28966262D01*
X166207998Y-29085960D01*
X166266963Y-29196274D01*
X166346315Y-29292965D01*
X166443006Y-29372317D01*
X166553320Y-29431282D01*
X166673018Y-29467592D01*
X166797500Y-29479852D01*
X166990000Y-29479852D01*
X166990001Y-44335197D01*
X166509415Y-44815783D01*
X166443386Y-44761595D01*
X166289850Y-44679528D01*
X166123254Y-44628992D01*
X165950000Y-44611928D01*
X165260000Y-44611928D01*
X165260000Y-26360000D01*
X166159428Y-26360000D01*
X166159428Y-28841780D01*
X166159428Y-28841780D01*
G37*
X166159428Y-28841780D02*
X166171688Y-28966262D01*
X166207998Y-29085960D01*
X166266963Y-29196274D01*
X166346315Y-29292965D01*
X166443006Y-29372317D01*
X166553320Y-29431282D01*
X166673018Y-29467592D01*
X166797500Y-29479852D01*
X166990000Y-29479852D01*
X166990001Y-44335197D01*
X166509415Y-44815783D01*
X166443386Y-44761595D01*
X166289850Y-44679528D01*
X166123254Y-44628992D01*
X165950000Y-44611928D01*
X165260000Y-44611928D01*
X165260000Y-26360000D01*
X166159428Y-26360000D01*
X166159428Y-28841780D01*
G36*
X172957000Y-27173000D02*
G01*
X172977000Y-27173000D01*
X172977000Y-27427000D01*
X172957000Y-27427000D01*
X172957000Y-29318030D01*
X173115750Y-29476780D01*
X173782500Y-29479852D01*
X173906982Y-29467592D01*
X174026680Y-29431282D01*
X174100000Y-29392091D01*
X174173320Y-29431282D01*
X174293018Y-29467592D01*
X174417500Y-29479852D01*
X174610000Y-29479852D01*
X174610001Y-40214797D01*
X171050000Y-43774799D01*
X171050000Y-29479852D01*
X171242500Y-29479852D01*
X171366982Y-29467592D01*
X171486680Y-29431282D01*
X171560000Y-29392091D01*
X171633320Y-29431282D01*
X171753018Y-29467592D01*
X171877500Y-29479852D01*
X172544250Y-29476780D01*
X172703000Y-29318030D01*
X172703000Y-27427000D01*
X172683000Y-27427000D01*
X172683000Y-27173000D01*
X172703000Y-27173000D01*
X172703000Y-27153000D01*
X172957000Y-27153000D01*
X172957000Y-27173000D01*
X172957000Y-27173000D01*
G37*
X172957000Y-27173000D02*
X172977000Y-27173000D01*
X172977000Y-27427000D01*
X172957000Y-27427000D01*
X172957000Y-29318030D01*
X173115750Y-29476780D01*
X173782500Y-29479852D01*
X173906982Y-29467592D01*
X174026680Y-29431282D01*
X174100000Y-29392091D01*
X174173320Y-29431282D01*
X174293018Y-29467592D01*
X174417500Y-29479852D01*
X174610000Y-29479852D01*
X174610001Y-40214797D01*
X171050000Y-43774799D01*
X171050000Y-29479852D01*
X171242500Y-29479852D01*
X171366982Y-29467592D01*
X171486680Y-29431282D01*
X171560000Y-29392091D01*
X171633320Y-29431282D01*
X171753018Y-29467592D01*
X171877500Y-29479852D01*
X172544250Y-29476780D01*
X172703000Y-29318030D01*
X172703000Y-27427000D01*
X172683000Y-27427000D01*
X172683000Y-27173000D01*
X172703000Y-27173000D01*
X172703000Y-27153000D01*
X172957000Y-27153000D01*
X172957000Y-27173000D01*
G36*
X179253320Y-29431282D02*
G01*
X179373018Y-29467592D01*
X179497500Y-29479852D01*
X179795674Y-29479852D01*
X179815026Y-29516056D01*
X179856663Y-29566790D01*
X179910000Y-29631781D01*
X179938998Y-29655579D01*
X180165010Y-29881591D01*
X180165011Y-43654413D01*
X179540238Y-43029641D01*
X179540238Y-42967503D01*
X179500464Y-42767544D01*
X179422443Y-42579186D01*
X179309175Y-42409668D01*
X179165012Y-42265505D01*
X178995494Y-42152237D01*
X178807136Y-42074216D01*
X178670000Y-42046938D01*
X178670000Y-29479852D01*
X178862500Y-29479852D01*
X178986982Y-29467592D01*
X179106680Y-29431282D01*
X179180000Y-29392091D01*
X179253320Y-29431282D01*
X179253320Y-29431282D01*
G37*
X179253320Y-29431282D02*
X179373018Y-29467592D01*
X179497500Y-29479852D01*
X179795674Y-29479852D01*
X179815026Y-29516056D01*
X179856663Y-29566790D01*
X179910000Y-29631781D01*
X179938998Y-29655579D01*
X180165010Y-29881591D01*
X180165011Y-43654413D01*
X179540238Y-43029641D01*
X179540238Y-42967503D01*
X179500464Y-42767544D01*
X179422443Y-42579186D01*
X179309175Y-42409668D01*
X179165012Y-42265505D01*
X178995494Y-42152237D01*
X178807136Y-42074216D01*
X178670000Y-42046938D01*
X178670000Y-29479852D01*
X178862500Y-29479852D01*
X178986982Y-29467592D01*
X179106680Y-29431282D01*
X179180000Y-29392091D01*
X179253320Y-29431282D01*
M02*
