G04 #@! TF.GenerationSoftware,KiCad,Pcbnew,(5.1.0)-1*
G04 #@! TF.CreationDate,2019-08-01T22:20:27-04:00*
G04 #@! TF.ProjectId,snes breakout,736e6573-2062-4726-9561-6b6f75742e6b,rev?*
G04 #@! TF.SameCoordinates,Original*
G04 #@! TF.FileFunction,Paste,Top*
G04 #@! TF.FilePolarity,Positive*
%FSLAX46Y46*%
G04 Gerber Fmt 4.6, Leading zero omitted, Abs format (unit mm)*
G04 Created by KiCad (PCBNEW (5.1.0)-1) date 2019-08-01 22:20:27*
%MOMM*%
%LPD*%
G04 APERTURE LIST*
%ADD10C,0.100000*%
%ADD11C,1.600000*%
%ADD12C,0.950000*%
G04 APERTURE END LIST*
D10*
G36*
X165974504Y-45251204D02*
G01*
X165998773Y-45254804D01*
X166022571Y-45260765D01*
X166045671Y-45269030D01*
X166067849Y-45279520D01*
X166088893Y-45292133D01*
X166108598Y-45306747D01*
X166126777Y-45323223D01*
X166143253Y-45341402D01*
X166157867Y-45361107D01*
X166170480Y-45382151D01*
X166180970Y-45404329D01*
X166189235Y-45427429D01*
X166195196Y-45451227D01*
X166198796Y-45475496D01*
X166200000Y-45500000D01*
X166200000Y-48500000D01*
X166198796Y-48524504D01*
X166195196Y-48548773D01*
X166189235Y-48572571D01*
X166180970Y-48595671D01*
X166170480Y-48617849D01*
X166157867Y-48638893D01*
X166143253Y-48658598D01*
X166126777Y-48676777D01*
X166108598Y-48693253D01*
X166088893Y-48707867D01*
X166067849Y-48720480D01*
X166045671Y-48730970D01*
X166022571Y-48739235D01*
X165998773Y-48745196D01*
X165974504Y-48748796D01*
X165950000Y-48750000D01*
X164850000Y-48750000D01*
X164825496Y-48748796D01*
X164801227Y-48745196D01*
X164777429Y-48739235D01*
X164754329Y-48730970D01*
X164732151Y-48720480D01*
X164711107Y-48707867D01*
X164691402Y-48693253D01*
X164673223Y-48676777D01*
X164656747Y-48658598D01*
X164642133Y-48638893D01*
X164629520Y-48617849D01*
X164619030Y-48595671D01*
X164610765Y-48572571D01*
X164604804Y-48548773D01*
X164601204Y-48524504D01*
X164600000Y-48500000D01*
X164600000Y-45500000D01*
X164601204Y-45475496D01*
X164604804Y-45451227D01*
X164610765Y-45427429D01*
X164619030Y-45404329D01*
X164629520Y-45382151D01*
X164642133Y-45361107D01*
X164656747Y-45341402D01*
X164673223Y-45323223D01*
X164691402Y-45306747D01*
X164711107Y-45292133D01*
X164732151Y-45279520D01*
X164754329Y-45269030D01*
X164777429Y-45260765D01*
X164801227Y-45254804D01*
X164825496Y-45251204D01*
X164850000Y-45250000D01*
X165950000Y-45250000D01*
X165974504Y-45251204D01*
X165974504Y-45251204D01*
G37*
D11*
X165400000Y-47000000D03*
D10*
G36*
X165974504Y-50851204D02*
G01*
X165998773Y-50854804D01*
X166022571Y-50860765D01*
X166045671Y-50869030D01*
X166067849Y-50879520D01*
X166088893Y-50892133D01*
X166108598Y-50906747D01*
X166126777Y-50923223D01*
X166143253Y-50941402D01*
X166157867Y-50961107D01*
X166170480Y-50982151D01*
X166180970Y-51004329D01*
X166189235Y-51027429D01*
X166195196Y-51051227D01*
X166198796Y-51075496D01*
X166200000Y-51100000D01*
X166200000Y-54100000D01*
X166198796Y-54124504D01*
X166195196Y-54148773D01*
X166189235Y-54172571D01*
X166180970Y-54195671D01*
X166170480Y-54217849D01*
X166157867Y-54238893D01*
X166143253Y-54258598D01*
X166126777Y-54276777D01*
X166108598Y-54293253D01*
X166088893Y-54307867D01*
X166067849Y-54320480D01*
X166045671Y-54330970D01*
X166022571Y-54339235D01*
X165998773Y-54345196D01*
X165974504Y-54348796D01*
X165950000Y-54350000D01*
X164850000Y-54350000D01*
X164825496Y-54348796D01*
X164801227Y-54345196D01*
X164777429Y-54339235D01*
X164754329Y-54330970D01*
X164732151Y-54320480D01*
X164711107Y-54307867D01*
X164691402Y-54293253D01*
X164673223Y-54276777D01*
X164656747Y-54258598D01*
X164642133Y-54238893D01*
X164629520Y-54217849D01*
X164619030Y-54195671D01*
X164610765Y-54172571D01*
X164604804Y-54148773D01*
X164601204Y-54124504D01*
X164600000Y-54100000D01*
X164600000Y-51100000D01*
X164601204Y-51075496D01*
X164604804Y-51051227D01*
X164610765Y-51027429D01*
X164619030Y-51004329D01*
X164629520Y-50982151D01*
X164642133Y-50961107D01*
X164656747Y-50941402D01*
X164673223Y-50923223D01*
X164691402Y-50906747D01*
X164711107Y-50892133D01*
X164732151Y-50879520D01*
X164754329Y-50869030D01*
X164777429Y-50860765D01*
X164801227Y-50854804D01*
X164825496Y-50851204D01*
X164850000Y-50850000D01*
X165950000Y-50850000D01*
X165974504Y-50851204D01*
X165974504Y-50851204D01*
G37*
D11*
X165400000Y-52600000D03*
D10*
G36*
X173174504Y-50851204D02*
G01*
X173198773Y-50854804D01*
X173222571Y-50860765D01*
X173245671Y-50869030D01*
X173267849Y-50879520D01*
X173288893Y-50892133D01*
X173308598Y-50906747D01*
X173326777Y-50923223D01*
X173343253Y-50941402D01*
X173357867Y-50961107D01*
X173370480Y-50982151D01*
X173380970Y-51004329D01*
X173389235Y-51027429D01*
X173395196Y-51051227D01*
X173398796Y-51075496D01*
X173400000Y-51100000D01*
X173400000Y-54100000D01*
X173398796Y-54124504D01*
X173395196Y-54148773D01*
X173389235Y-54172571D01*
X173380970Y-54195671D01*
X173370480Y-54217849D01*
X173357867Y-54238893D01*
X173343253Y-54258598D01*
X173326777Y-54276777D01*
X173308598Y-54293253D01*
X173288893Y-54307867D01*
X173267849Y-54320480D01*
X173245671Y-54330970D01*
X173222571Y-54339235D01*
X173198773Y-54345196D01*
X173174504Y-54348796D01*
X173150000Y-54350000D01*
X172050000Y-54350000D01*
X172025496Y-54348796D01*
X172001227Y-54345196D01*
X171977429Y-54339235D01*
X171954329Y-54330970D01*
X171932151Y-54320480D01*
X171911107Y-54307867D01*
X171891402Y-54293253D01*
X171873223Y-54276777D01*
X171856747Y-54258598D01*
X171842133Y-54238893D01*
X171829520Y-54217849D01*
X171819030Y-54195671D01*
X171810765Y-54172571D01*
X171804804Y-54148773D01*
X171801204Y-54124504D01*
X171800000Y-54100000D01*
X171800000Y-51100000D01*
X171801204Y-51075496D01*
X171804804Y-51051227D01*
X171810765Y-51027429D01*
X171819030Y-51004329D01*
X171829520Y-50982151D01*
X171842133Y-50961107D01*
X171856747Y-50941402D01*
X171873223Y-50923223D01*
X171891402Y-50906747D01*
X171911107Y-50892133D01*
X171932151Y-50879520D01*
X171954329Y-50869030D01*
X171977429Y-50860765D01*
X172001227Y-50854804D01*
X172025496Y-50851204D01*
X172050000Y-50850000D01*
X173150000Y-50850000D01*
X173174504Y-50851204D01*
X173174504Y-50851204D01*
G37*
D11*
X172600000Y-52600000D03*
D10*
G36*
X173174504Y-45251204D02*
G01*
X173198773Y-45254804D01*
X173222571Y-45260765D01*
X173245671Y-45269030D01*
X173267849Y-45279520D01*
X173288893Y-45292133D01*
X173308598Y-45306747D01*
X173326777Y-45323223D01*
X173343253Y-45341402D01*
X173357867Y-45361107D01*
X173370480Y-45382151D01*
X173380970Y-45404329D01*
X173389235Y-45427429D01*
X173395196Y-45451227D01*
X173398796Y-45475496D01*
X173400000Y-45500000D01*
X173400000Y-48500000D01*
X173398796Y-48524504D01*
X173395196Y-48548773D01*
X173389235Y-48572571D01*
X173380970Y-48595671D01*
X173370480Y-48617849D01*
X173357867Y-48638893D01*
X173343253Y-48658598D01*
X173326777Y-48676777D01*
X173308598Y-48693253D01*
X173288893Y-48707867D01*
X173267849Y-48720480D01*
X173245671Y-48730970D01*
X173222571Y-48739235D01*
X173198773Y-48745196D01*
X173174504Y-48748796D01*
X173150000Y-48750000D01*
X172050000Y-48750000D01*
X172025496Y-48748796D01*
X172001227Y-48745196D01*
X171977429Y-48739235D01*
X171954329Y-48730970D01*
X171932151Y-48720480D01*
X171911107Y-48707867D01*
X171891402Y-48693253D01*
X171873223Y-48676777D01*
X171856747Y-48658598D01*
X171842133Y-48638893D01*
X171829520Y-48617849D01*
X171819030Y-48595671D01*
X171810765Y-48572571D01*
X171804804Y-48548773D01*
X171801204Y-48524504D01*
X171800000Y-48500000D01*
X171800000Y-45500000D01*
X171801204Y-45475496D01*
X171804804Y-45451227D01*
X171810765Y-45427429D01*
X171819030Y-45404329D01*
X171829520Y-45382151D01*
X171842133Y-45361107D01*
X171856747Y-45341402D01*
X171873223Y-45323223D01*
X171891402Y-45306747D01*
X171911107Y-45292133D01*
X171932151Y-45279520D01*
X171954329Y-45269030D01*
X171977429Y-45260765D01*
X172001227Y-45254804D01*
X172025496Y-45251204D01*
X172050000Y-45250000D01*
X173150000Y-45250000D01*
X173174504Y-45251204D01*
X173174504Y-45251204D01*
G37*
D11*
X172600000Y-47000000D03*
D10*
G36*
X180374504Y-45251204D02*
G01*
X180398773Y-45254804D01*
X180422571Y-45260765D01*
X180445671Y-45269030D01*
X180467849Y-45279520D01*
X180488893Y-45292133D01*
X180508598Y-45306747D01*
X180526777Y-45323223D01*
X180543253Y-45341402D01*
X180557867Y-45361107D01*
X180570480Y-45382151D01*
X180580970Y-45404329D01*
X180589235Y-45427429D01*
X180595196Y-45451227D01*
X180598796Y-45475496D01*
X180600000Y-45500000D01*
X180600000Y-48500000D01*
X180598796Y-48524504D01*
X180595196Y-48548773D01*
X180589235Y-48572571D01*
X180580970Y-48595671D01*
X180570480Y-48617849D01*
X180557867Y-48638893D01*
X180543253Y-48658598D01*
X180526777Y-48676777D01*
X180508598Y-48693253D01*
X180488893Y-48707867D01*
X180467849Y-48720480D01*
X180445671Y-48730970D01*
X180422571Y-48739235D01*
X180398773Y-48745196D01*
X180374504Y-48748796D01*
X180350000Y-48750000D01*
X179250000Y-48750000D01*
X179225496Y-48748796D01*
X179201227Y-48745196D01*
X179177429Y-48739235D01*
X179154329Y-48730970D01*
X179132151Y-48720480D01*
X179111107Y-48707867D01*
X179091402Y-48693253D01*
X179073223Y-48676777D01*
X179056747Y-48658598D01*
X179042133Y-48638893D01*
X179029520Y-48617849D01*
X179019030Y-48595671D01*
X179010765Y-48572571D01*
X179004804Y-48548773D01*
X179001204Y-48524504D01*
X179000000Y-48500000D01*
X179000000Y-45500000D01*
X179001204Y-45475496D01*
X179004804Y-45451227D01*
X179010765Y-45427429D01*
X179019030Y-45404329D01*
X179029520Y-45382151D01*
X179042133Y-45361107D01*
X179056747Y-45341402D01*
X179073223Y-45323223D01*
X179091402Y-45306747D01*
X179111107Y-45292133D01*
X179132151Y-45279520D01*
X179154329Y-45269030D01*
X179177429Y-45260765D01*
X179201227Y-45254804D01*
X179225496Y-45251204D01*
X179250000Y-45250000D01*
X180350000Y-45250000D01*
X180374504Y-45251204D01*
X180374504Y-45251204D01*
G37*
D11*
X179800000Y-47000000D03*
D10*
G36*
X180374504Y-50851204D02*
G01*
X180398773Y-50854804D01*
X180422571Y-50860765D01*
X180445671Y-50869030D01*
X180467849Y-50879520D01*
X180488893Y-50892133D01*
X180508598Y-50906747D01*
X180526777Y-50923223D01*
X180543253Y-50941402D01*
X180557867Y-50961107D01*
X180570480Y-50982151D01*
X180580970Y-51004329D01*
X180589235Y-51027429D01*
X180595196Y-51051227D01*
X180598796Y-51075496D01*
X180600000Y-51100000D01*
X180600000Y-54100000D01*
X180598796Y-54124504D01*
X180595196Y-54148773D01*
X180589235Y-54172571D01*
X180580970Y-54195671D01*
X180570480Y-54217849D01*
X180557867Y-54238893D01*
X180543253Y-54258598D01*
X180526777Y-54276777D01*
X180508598Y-54293253D01*
X180488893Y-54307867D01*
X180467849Y-54320480D01*
X180445671Y-54330970D01*
X180422571Y-54339235D01*
X180398773Y-54345196D01*
X180374504Y-54348796D01*
X180350000Y-54350000D01*
X179250000Y-54350000D01*
X179225496Y-54348796D01*
X179201227Y-54345196D01*
X179177429Y-54339235D01*
X179154329Y-54330970D01*
X179132151Y-54320480D01*
X179111107Y-54307867D01*
X179091402Y-54293253D01*
X179073223Y-54276777D01*
X179056747Y-54258598D01*
X179042133Y-54238893D01*
X179029520Y-54217849D01*
X179019030Y-54195671D01*
X179010765Y-54172571D01*
X179004804Y-54148773D01*
X179001204Y-54124504D01*
X179000000Y-54100000D01*
X179000000Y-51100000D01*
X179001204Y-51075496D01*
X179004804Y-51051227D01*
X179010765Y-51027429D01*
X179019030Y-51004329D01*
X179029520Y-50982151D01*
X179042133Y-50961107D01*
X179056747Y-50941402D01*
X179073223Y-50923223D01*
X179091402Y-50906747D01*
X179111107Y-50892133D01*
X179132151Y-50879520D01*
X179154329Y-50869030D01*
X179177429Y-50860765D01*
X179201227Y-50854804D01*
X179225496Y-50851204D01*
X179250000Y-50850000D01*
X180350000Y-50850000D01*
X180374504Y-50851204D01*
X180374504Y-50851204D01*
G37*
D11*
X179800000Y-52600000D03*
D10*
G36*
X102210779Y-49426144D02*
G01*
X102233834Y-49429563D01*
X102256443Y-49435227D01*
X102278387Y-49443079D01*
X102299457Y-49453044D01*
X102319448Y-49465026D01*
X102338168Y-49478910D01*
X102355438Y-49494562D01*
X102371090Y-49511832D01*
X102384974Y-49530552D01*
X102396956Y-49550543D01*
X102406921Y-49571613D01*
X102414773Y-49593557D01*
X102420437Y-49616166D01*
X102423856Y-49639221D01*
X102425000Y-49662500D01*
X102425000Y-50137500D01*
X102423856Y-50160779D01*
X102420437Y-50183834D01*
X102414773Y-50206443D01*
X102406921Y-50228387D01*
X102396956Y-50249457D01*
X102384974Y-50269448D01*
X102371090Y-50288168D01*
X102355438Y-50305438D01*
X102338168Y-50321090D01*
X102319448Y-50334974D01*
X102299457Y-50346956D01*
X102278387Y-50356921D01*
X102256443Y-50364773D01*
X102233834Y-50370437D01*
X102210779Y-50373856D01*
X102187500Y-50375000D01*
X101612500Y-50375000D01*
X101589221Y-50373856D01*
X101566166Y-50370437D01*
X101543557Y-50364773D01*
X101521613Y-50356921D01*
X101500543Y-50346956D01*
X101480552Y-50334974D01*
X101461832Y-50321090D01*
X101444562Y-50305438D01*
X101428910Y-50288168D01*
X101415026Y-50269448D01*
X101403044Y-50249457D01*
X101393079Y-50228387D01*
X101385227Y-50206443D01*
X101379563Y-50183834D01*
X101376144Y-50160779D01*
X101375000Y-50137500D01*
X101375000Y-49662500D01*
X101376144Y-49639221D01*
X101379563Y-49616166D01*
X101385227Y-49593557D01*
X101393079Y-49571613D01*
X101403044Y-49550543D01*
X101415026Y-49530552D01*
X101428910Y-49511832D01*
X101444562Y-49494562D01*
X101461832Y-49478910D01*
X101480552Y-49465026D01*
X101500543Y-49453044D01*
X101521613Y-49443079D01*
X101543557Y-49435227D01*
X101566166Y-49429563D01*
X101589221Y-49426144D01*
X101612500Y-49425000D01*
X102187500Y-49425000D01*
X102210779Y-49426144D01*
X102210779Y-49426144D01*
G37*
D12*
X101900000Y-49900000D03*
D10*
G36*
X103960779Y-49426144D02*
G01*
X103983834Y-49429563D01*
X104006443Y-49435227D01*
X104028387Y-49443079D01*
X104049457Y-49453044D01*
X104069448Y-49465026D01*
X104088168Y-49478910D01*
X104105438Y-49494562D01*
X104121090Y-49511832D01*
X104134974Y-49530552D01*
X104146956Y-49550543D01*
X104156921Y-49571613D01*
X104164773Y-49593557D01*
X104170437Y-49616166D01*
X104173856Y-49639221D01*
X104175000Y-49662500D01*
X104175000Y-50137500D01*
X104173856Y-50160779D01*
X104170437Y-50183834D01*
X104164773Y-50206443D01*
X104156921Y-50228387D01*
X104146956Y-50249457D01*
X104134974Y-50269448D01*
X104121090Y-50288168D01*
X104105438Y-50305438D01*
X104088168Y-50321090D01*
X104069448Y-50334974D01*
X104049457Y-50346956D01*
X104028387Y-50356921D01*
X104006443Y-50364773D01*
X103983834Y-50370437D01*
X103960779Y-50373856D01*
X103937500Y-50375000D01*
X103362500Y-50375000D01*
X103339221Y-50373856D01*
X103316166Y-50370437D01*
X103293557Y-50364773D01*
X103271613Y-50356921D01*
X103250543Y-50346956D01*
X103230552Y-50334974D01*
X103211832Y-50321090D01*
X103194562Y-50305438D01*
X103178910Y-50288168D01*
X103165026Y-50269448D01*
X103153044Y-50249457D01*
X103143079Y-50228387D01*
X103135227Y-50206443D01*
X103129563Y-50183834D01*
X103126144Y-50160779D01*
X103125000Y-50137500D01*
X103125000Y-49662500D01*
X103126144Y-49639221D01*
X103129563Y-49616166D01*
X103135227Y-49593557D01*
X103143079Y-49571613D01*
X103153044Y-49550543D01*
X103165026Y-49530552D01*
X103178910Y-49511832D01*
X103194562Y-49494562D01*
X103211832Y-49478910D01*
X103230552Y-49465026D01*
X103250543Y-49453044D01*
X103271613Y-49443079D01*
X103293557Y-49435227D01*
X103316166Y-49429563D01*
X103339221Y-49426144D01*
X103362500Y-49425000D01*
X103937500Y-49425000D01*
X103960779Y-49426144D01*
X103960779Y-49426144D01*
G37*
D12*
X103650000Y-49900000D03*
M02*
