G04 #@! TF.GenerationSoftware,KiCad,Pcbnew,(5.1.0)-1*
G04 #@! TF.CreationDate,2019-07-03T15:35:13-04:00*
G04 #@! TF.ProjectId,snes breakout,736e6573-2062-4726-9561-6b6f75742e6b,rev?*
G04 #@! TF.SameCoordinates,Original*
G04 #@! TF.FileFunction,Paste,Top*
G04 #@! TF.FilePolarity,Positive*
%FSLAX46Y46*%
G04 Gerber Fmt 4.6, Leading zero omitted, Abs format (unit mm)*
G04 Created by KiCad (PCBNEW (5.1.0)-1) date 2019-07-03 15:35:13*
%MOMM*%
%LPD*%
G04 APERTURE LIST*
%ADD10C,0.100000*%
%ADD11C,1.600000*%
%ADD12R,1.905000X3.083560*%
%ADD13C,1.150000*%
G04 APERTURE END LIST*
D10*
G36*
X165974504Y-45251204D02*
G01*
X165998773Y-45254804D01*
X166022571Y-45260765D01*
X166045671Y-45269030D01*
X166067849Y-45279520D01*
X166088893Y-45292133D01*
X166108598Y-45306747D01*
X166126777Y-45323223D01*
X166143253Y-45341402D01*
X166157867Y-45361107D01*
X166170480Y-45382151D01*
X166180970Y-45404329D01*
X166189235Y-45427429D01*
X166195196Y-45451227D01*
X166198796Y-45475496D01*
X166200000Y-45500000D01*
X166200000Y-48500000D01*
X166198796Y-48524504D01*
X166195196Y-48548773D01*
X166189235Y-48572571D01*
X166180970Y-48595671D01*
X166170480Y-48617849D01*
X166157867Y-48638893D01*
X166143253Y-48658598D01*
X166126777Y-48676777D01*
X166108598Y-48693253D01*
X166088893Y-48707867D01*
X166067849Y-48720480D01*
X166045671Y-48730970D01*
X166022571Y-48739235D01*
X165998773Y-48745196D01*
X165974504Y-48748796D01*
X165950000Y-48750000D01*
X164850000Y-48750000D01*
X164825496Y-48748796D01*
X164801227Y-48745196D01*
X164777429Y-48739235D01*
X164754329Y-48730970D01*
X164732151Y-48720480D01*
X164711107Y-48707867D01*
X164691402Y-48693253D01*
X164673223Y-48676777D01*
X164656747Y-48658598D01*
X164642133Y-48638893D01*
X164629520Y-48617849D01*
X164619030Y-48595671D01*
X164610765Y-48572571D01*
X164604804Y-48548773D01*
X164601204Y-48524504D01*
X164600000Y-48500000D01*
X164600000Y-45500000D01*
X164601204Y-45475496D01*
X164604804Y-45451227D01*
X164610765Y-45427429D01*
X164619030Y-45404329D01*
X164629520Y-45382151D01*
X164642133Y-45361107D01*
X164656747Y-45341402D01*
X164673223Y-45323223D01*
X164691402Y-45306747D01*
X164711107Y-45292133D01*
X164732151Y-45279520D01*
X164754329Y-45269030D01*
X164777429Y-45260765D01*
X164801227Y-45254804D01*
X164825496Y-45251204D01*
X164850000Y-45250000D01*
X165950000Y-45250000D01*
X165974504Y-45251204D01*
X165974504Y-45251204D01*
G37*
D11*
X165400000Y-47000000D03*
D10*
G36*
X165974504Y-50851204D02*
G01*
X165998773Y-50854804D01*
X166022571Y-50860765D01*
X166045671Y-50869030D01*
X166067849Y-50879520D01*
X166088893Y-50892133D01*
X166108598Y-50906747D01*
X166126777Y-50923223D01*
X166143253Y-50941402D01*
X166157867Y-50961107D01*
X166170480Y-50982151D01*
X166180970Y-51004329D01*
X166189235Y-51027429D01*
X166195196Y-51051227D01*
X166198796Y-51075496D01*
X166200000Y-51100000D01*
X166200000Y-54100000D01*
X166198796Y-54124504D01*
X166195196Y-54148773D01*
X166189235Y-54172571D01*
X166180970Y-54195671D01*
X166170480Y-54217849D01*
X166157867Y-54238893D01*
X166143253Y-54258598D01*
X166126777Y-54276777D01*
X166108598Y-54293253D01*
X166088893Y-54307867D01*
X166067849Y-54320480D01*
X166045671Y-54330970D01*
X166022571Y-54339235D01*
X165998773Y-54345196D01*
X165974504Y-54348796D01*
X165950000Y-54350000D01*
X164850000Y-54350000D01*
X164825496Y-54348796D01*
X164801227Y-54345196D01*
X164777429Y-54339235D01*
X164754329Y-54330970D01*
X164732151Y-54320480D01*
X164711107Y-54307867D01*
X164691402Y-54293253D01*
X164673223Y-54276777D01*
X164656747Y-54258598D01*
X164642133Y-54238893D01*
X164629520Y-54217849D01*
X164619030Y-54195671D01*
X164610765Y-54172571D01*
X164604804Y-54148773D01*
X164601204Y-54124504D01*
X164600000Y-54100000D01*
X164600000Y-51100000D01*
X164601204Y-51075496D01*
X164604804Y-51051227D01*
X164610765Y-51027429D01*
X164619030Y-51004329D01*
X164629520Y-50982151D01*
X164642133Y-50961107D01*
X164656747Y-50941402D01*
X164673223Y-50923223D01*
X164691402Y-50906747D01*
X164711107Y-50892133D01*
X164732151Y-50879520D01*
X164754329Y-50869030D01*
X164777429Y-50860765D01*
X164801227Y-50854804D01*
X164825496Y-50851204D01*
X164850000Y-50850000D01*
X165950000Y-50850000D01*
X165974504Y-50851204D01*
X165974504Y-50851204D01*
G37*
D11*
X165400000Y-52600000D03*
D10*
G36*
X173174504Y-50851204D02*
G01*
X173198773Y-50854804D01*
X173222571Y-50860765D01*
X173245671Y-50869030D01*
X173267849Y-50879520D01*
X173288893Y-50892133D01*
X173308598Y-50906747D01*
X173326777Y-50923223D01*
X173343253Y-50941402D01*
X173357867Y-50961107D01*
X173370480Y-50982151D01*
X173380970Y-51004329D01*
X173389235Y-51027429D01*
X173395196Y-51051227D01*
X173398796Y-51075496D01*
X173400000Y-51100000D01*
X173400000Y-54100000D01*
X173398796Y-54124504D01*
X173395196Y-54148773D01*
X173389235Y-54172571D01*
X173380970Y-54195671D01*
X173370480Y-54217849D01*
X173357867Y-54238893D01*
X173343253Y-54258598D01*
X173326777Y-54276777D01*
X173308598Y-54293253D01*
X173288893Y-54307867D01*
X173267849Y-54320480D01*
X173245671Y-54330970D01*
X173222571Y-54339235D01*
X173198773Y-54345196D01*
X173174504Y-54348796D01*
X173150000Y-54350000D01*
X172050000Y-54350000D01*
X172025496Y-54348796D01*
X172001227Y-54345196D01*
X171977429Y-54339235D01*
X171954329Y-54330970D01*
X171932151Y-54320480D01*
X171911107Y-54307867D01*
X171891402Y-54293253D01*
X171873223Y-54276777D01*
X171856747Y-54258598D01*
X171842133Y-54238893D01*
X171829520Y-54217849D01*
X171819030Y-54195671D01*
X171810765Y-54172571D01*
X171804804Y-54148773D01*
X171801204Y-54124504D01*
X171800000Y-54100000D01*
X171800000Y-51100000D01*
X171801204Y-51075496D01*
X171804804Y-51051227D01*
X171810765Y-51027429D01*
X171819030Y-51004329D01*
X171829520Y-50982151D01*
X171842133Y-50961107D01*
X171856747Y-50941402D01*
X171873223Y-50923223D01*
X171891402Y-50906747D01*
X171911107Y-50892133D01*
X171932151Y-50879520D01*
X171954329Y-50869030D01*
X171977429Y-50860765D01*
X172001227Y-50854804D01*
X172025496Y-50851204D01*
X172050000Y-50850000D01*
X173150000Y-50850000D01*
X173174504Y-50851204D01*
X173174504Y-50851204D01*
G37*
D11*
X172600000Y-52600000D03*
D10*
G36*
X173174504Y-45251204D02*
G01*
X173198773Y-45254804D01*
X173222571Y-45260765D01*
X173245671Y-45269030D01*
X173267849Y-45279520D01*
X173288893Y-45292133D01*
X173308598Y-45306747D01*
X173326777Y-45323223D01*
X173343253Y-45341402D01*
X173357867Y-45361107D01*
X173370480Y-45382151D01*
X173380970Y-45404329D01*
X173389235Y-45427429D01*
X173395196Y-45451227D01*
X173398796Y-45475496D01*
X173400000Y-45500000D01*
X173400000Y-48500000D01*
X173398796Y-48524504D01*
X173395196Y-48548773D01*
X173389235Y-48572571D01*
X173380970Y-48595671D01*
X173370480Y-48617849D01*
X173357867Y-48638893D01*
X173343253Y-48658598D01*
X173326777Y-48676777D01*
X173308598Y-48693253D01*
X173288893Y-48707867D01*
X173267849Y-48720480D01*
X173245671Y-48730970D01*
X173222571Y-48739235D01*
X173198773Y-48745196D01*
X173174504Y-48748796D01*
X173150000Y-48750000D01*
X172050000Y-48750000D01*
X172025496Y-48748796D01*
X172001227Y-48745196D01*
X171977429Y-48739235D01*
X171954329Y-48730970D01*
X171932151Y-48720480D01*
X171911107Y-48707867D01*
X171891402Y-48693253D01*
X171873223Y-48676777D01*
X171856747Y-48658598D01*
X171842133Y-48638893D01*
X171829520Y-48617849D01*
X171819030Y-48595671D01*
X171810765Y-48572571D01*
X171804804Y-48548773D01*
X171801204Y-48524504D01*
X171800000Y-48500000D01*
X171800000Y-45500000D01*
X171801204Y-45475496D01*
X171804804Y-45451227D01*
X171810765Y-45427429D01*
X171819030Y-45404329D01*
X171829520Y-45382151D01*
X171842133Y-45361107D01*
X171856747Y-45341402D01*
X171873223Y-45323223D01*
X171891402Y-45306747D01*
X171911107Y-45292133D01*
X171932151Y-45279520D01*
X171954329Y-45269030D01*
X171977429Y-45260765D01*
X172001227Y-45254804D01*
X172025496Y-45251204D01*
X172050000Y-45250000D01*
X173150000Y-45250000D01*
X173174504Y-45251204D01*
X173174504Y-45251204D01*
G37*
D11*
X172600000Y-47000000D03*
D10*
G36*
X180374504Y-45251204D02*
G01*
X180398773Y-45254804D01*
X180422571Y-45260765D01*
X180445671Y-45269030D01*
X180467849Y-45279520D01*
X180488893Y-45292133D01*
X180508598Y-45306747D01*
X180526777Y-45323223D01*
X180543253Y-45341402D01*
X180557867Y-45361107D01*
X180570480Y-45382151D01*
X180580970Y-45404329D01*
X180589235Y-45427429D01*
X180595196Y-45451227D01*
X180598796Y-45475496D01*
X180600000Y-45500000D01*
X180600000Y-48500000D01*
X180598796Y-48524504D01*
X180595196Y-48548773D01*
X180589235Y-48572571D01*
X180580970Y-48595671D01*
X180570480Y-48617849D01*
X180557867Y-48638893D01*
X180543253Y-48658598D01*
X180526777Y-48676777D01*
X180508598Y-48693253D01*
X180488893Y-48707867D01*
X180467849Y-48720480D01*
X180445671Y-48730970D01*
X180422571Y-48739235D01*
X180398773Y-48745196D01*
X180374504Y-48748796D01*
X180350000Y-48750000D01*
X179250000Y-48750000D01*
X179225496Y-48748796D01*
X179201227Y-48745196D01*
X179177429Y-48739235D01*
X179154329Y-48730970D01*
X179132151Y-48720480D01*
X179111107Y-48707867D01*
X179091402Y-48693253D01*
X179073223Y-48676777D01*
X179056747Y-48658598D01*
X179042133Y-48638893D01*
X179029520Y-48617849D01*
X179019030Y-48595671D01*
X179010765Y-48572571D01*
X179004804Y-48548773D01*
X179001204Y-48524504D01*
X179000000Y-48500000D01*
X179000000Y-45500000D01*
X179001204Y-45475496D01*
X179004804Y-45451227D01*
X179010765Y-45427429D01*
X179019030Y-45404329D01*
X179029520Y-45382151D01*
X179042133Y-45361107D01*
X179056747Y-45341402D01*
X179073223Y-45323223D01*
X179091402Y-45306747D01*
X179111107Y-45292133D01*
X179132151Y-45279520D01*
X179154329Y-45269030D01*
X179177429Y-45260765D01*
X179201227Y-45254804D01*
X179225496Y-45251204D01*
X179250000Y-45250000D01*
X180350000Y-45250000D01*
X180374504Y-45251204D01*
X180374504Y-45251204D01*
G37*
D11*
X179800000Y-47000000D03*
D10*
G36*
X180374504Y-50851204D02*
G01*
X180398773Y-50854804D01*
X180422571Y-50860765D01*
X180445671Y-50869030D01*
X180467849Y-50879520D01*
X180488893Y-50892133D01*
X180508598Y-50906747D01*
X180526777Y-50923223D01*
X180543253Y-50941402D01*
X180557867Y-50961107D01*
X180570480Y-50982151D01*
X180580970Y-51004329D01*
X180589235Y-51027429D01*
X180595196Y-51051227D01*
X180598796Y-51075496D01*
X180600000Y-51100000D01*
X180600000Y-54100000D01*
X180598796Y-54124504D01*
X180595196Y-54148773D01*
X180589235Y-54172571D01*
X180580970Y-54195671D01*
X180570480Y-54217849D01*
X180557867Y-54238893D01*
X180543253Y-54258598D01*
X180526777Y-54276777D01*
X180508598Y-54293253D01*
X180488893Y-54307867D01*
X180467849Y-54320480D01*
X180445671Y-54330970D01*
X180422571Y-54339235D01*
X180398773Y-54345196D01*
X180374504Y-54348796D01*
X180350000Y-54350000D01*
X179250000Y-54350000D01*
X179225496Y-54348796D01*
X179201227Y-54345196D01*
X179177429Y-54339235D01*
X179154329Y-54330970D01*
X179132151Y-54320480D01*
X179111107Y-54307867D01*
X179091402Y-54293253D01*
X179073223Y-54276777D01*
X179056747Y-54258598D01*
X179042133Y-54238893D01*
X179029520Y-54217849D01*
X179019030Y-54195671D01*
X179010765Y-54172571D01*
X179004804Y-54148773D01*
X179001204Y-54124504D01*
X179000000Y-54100000D01*
X179000000Y-51100000D01*
X179001204Y-51075496D01*
X179004804Y-51051227D01*
X179010765Y-51027429D01*
X179019030Y-51004329D01*
X179029520Y-50982151D01*
X179042133Y-50961107D01*
X179056747Y-50941402D01*
X179073223Y-50923223D01*
X179091402Y-50906747D01*
X179111107Y-50892133D01*
X179132151Y-50879520D01*
X179154329Y-50869030D01*
X179177429Y-50860765D01*
X179201227Y-50854804D01*
X179225496Y-50851204D01*
X179250000Y-50850000D01*
X180350000Y-50850000D01*
X180374504Y-50851204D01*
X180374504Y-50851204D01*
G37*
D11*
X179800000Y-52600000D03*
D12*
X167750000Y-27300000D03*
X170290000Y-27300000D03*
X172830000Y-27300000D03*
X175370000Y-27300000D03*
X177910000Y-27300000D03*
X180450000Y-27300000D03*
D10*
G36*
X102099505Y-49201204D02*
G01*
X102123773Y-49204804D01*
X102147572Y-49210765D01*
X102170671Y-49219030D01*
X102192850Y-49229520D01*
X102213893Y-49242132D01*
X102233599Y-49256747D01*
X102251777Y-49273223D01*
X102268253Y-49291401D01*
X102282868Y-49311107D01*
X102295480Y-49332150D01*
X102305970Y-49354329D01*
X102314235Y-49377428D01*
X102320196Y-49401227D01*
X102323796Y-49425495D01*
X102325000Y-49449999D01*
X102325000Y-50350001D01*
X102323796Y-50374505D01*
X102320196Y-50398773D01*
X102314235Y-50422572D01*
X102305970Y-50445671D01*
X102295480Y-50467850D01*
X102282868Y-50488893D01*
X102268253Y-50508599D01*
X102251777Y-50526777D01*
X102233599Y-50543253D01*
X102213893Y-50557868D01*
X102192850Y-50570480D01*
X102170671Y-50580970D01*
X102147572Y-50589235D01*
X102123773Y-50595196D01*
X102099505Y-50598796D01*
X102075001Y-50600000D01*
X101424999Y-50600000D01*
X101400495Y-50598796D01*
X101376227Y-50595196D01*
X101352428Y-50589235D01*
X101329329Y-50580970D01*
X101307150Y-50570480D01*
X101286107Y-50557868D01*
X101266401Y-50543253D01*
X101248223Y-50526777D01*
X101231747Y-50508599D01*
X101217132Y-50488893D01*
X101204520Y-50467850D01*
X101194030Y-50445671D01*
X101185765Y-50422572D01*
X101179804Y-50398773D01*
X101176204Y-50374505D01*
X101175000Y-50350001D01*
X101175000Y-49449999D01*
X101176204Y-49425495D01*
X101179804Y-49401227D01*
X101185765Y-49377428D01*
X101194030Y-49354329D01*
X101204520Y-49332150D01*
X101217132Y-49311107D01*
X101231747Y-49291401D01*
X101248223Y-49273223D01*
X101266401Y-49256747D01*
X101286107Y-49242132D01*
X101307150Y-49229520D01*
X101329329Y-49219030D01*
X101352428Y-49210765D01*
X101376227Y-49204804D01*
X101400495Y-49201204D01*
X101424999Y-49200000D01*
X102075001Y-49200000D01*
X102099505Y-49201204D01*
X102099505Y-49201204D01*
G37*
D13*
X101750000Y-49900000D03*
D10*
G36*
X104149505Y-49201204D02*
G01*
X104173773Y-49204804D01*
X104197572Y-49210765D01*
X104220671Y-49219030D01*
X104242850Y-49229520D01*
X104263893Y-49242132D01*
X104283599Y-49256747D01*
X104301777Y-49273223D01*
X104318253Y-49291401D01*
X104332868Y-49311107D01*
X104345480Y-49332150D01*
X104355970Y-49354329D01*
X104364235Y-49377428D01*
X104370196Y-49401227D01*
X104373796Y-49425495D01*
X104375000Y-49449999D01*
X104375000Y-50350001D01*
X104373796Y-50374505D01*
X104370196Y-50398773D01*
X104364235Y-50422572D01*
X104355970Y-50445671D01*
X104345480Y-50467850D01*
X104332868Y-50488893D01*
X104318253Y-50508599D01*
X104301777Y-50526777D01*
X104283599Y-50543253D01*
X104263893Y-50557868D01*
X104242850Y-50570480D01*
X104220671Y-50580970D01*
X104197572Y-50589235D01*
X104173773Y-50595196D01*
X104149505Y-50598796D01*
X104125001Y-50600000D01*
X103474999Y-50600000D01*
X103450495Y-50598796D01*
X103426227Y-50595196D01*
X103402428Y-50589235D01*
X103379329Y-50580970D01*
X103357150Y-50570480D01*
X103336107Y-50557868D01*
X103316401Y-50543253D01*
X103298223Y-50526777D01*
X103281747Y-50508599D01*
X103267132Y-50488893D01*
X103254520Y-50467850D01*
X103244030Y-50445671D01*
X103235765Y-50422572D01*
X103229804Y-50398773D01*
X103226204Y-50374505D01*
X103225000Y-50350001D01*
X103225000Y-49449999D01*
X103226204Y-49425495D01*
X103229804Y-49401227D01*
X103235765Y-49377428D01*
X103244030Y-49354329D01*
X103254520Y-49332150D01*
X103267132Y-49311107D01*
X103281747Y-49291401D01*
X103298223Y-49273223D01*
X103316401Y-49256747D01*
X103336107Y-49242132D01*
X103357150Y-49229520D01*
X103379329Y-49219030D01*
X103402428Y-49210765D01*
X103426227Y-49204804D01*
X103450495Y-49201204D01*
X103474999Y-49200000D01*
X104125001Y-49200000D01*
X104149505Y-49201204D01*
X104149505Y-49201204D01*
G37*
D13*
X103800000Y-49900000D03*
M02*
