M48
; DRILL file {KiCad (5.1.0)-1} date 8/2/2019 11:21:23 AM
; FORMAT={-:-/ absolute / inch / decimal}
; #@! TF.CreationDate,2019-08-02T11:21:23-04:00
; #@! TF.GenerationSoftware,Kicad,Pcbnew,(5.1.0)-1
FMAT,2
INCH
T1C0.0157
T2C0.0276
T3C0.0335
T4C0.0354
T5C0.0394
T6C0.0512
T7C0.0591
T8C0.1260
T9C0.0669
T10C0.1260
T11C0.2165
%
G90
G05
T1
X3.3465Y-1.9685
X3.3465Y-2.1654
X3.3465Y-2.5591
X3.5433Y-2.1654
X3.5433Y-2.5591
X3.7402Y-1.9685
X3.7402Y-2.5591
X3.937Y-2.5591
X4.1339Y-2.5591
X4.1496Y-1.9685
X4.3228Y-1.9606
X4.3307Y-2.5591
X4.5276Y-2.5591
X4.6417Y-1.9724
X4.9213Y-2.5591
X5.5512Y-1.9528
X5.6535Y-2.2165
X5.7087Y-2.5591
X5.8661Y-1.9567
X5.9055Y-2.2835
X5.9055Y-2.5591
X5.9843Y-2.1535
X6.1772Y-2.1732
X6.185Y-2.5157
X6.2047Y-2.248
X6.2992Y-2.5591
X6.315Y-2.0866
X6.3228Y-1.8661
X6.3937Y-2.0827
X6.4252Y-2.1969
X6.437Y-2.1142
X6.4961Y-2.5591
X6.5276Y-1.6339
X6.5354Y-2.3071
X6.5591Y-1.3189
X6.5669Y-1.6024
X6.6535Y-1.563
X6.6693Y-1.3504
X6.6929Y-2.5591
X6.7047Y-1.8898
X6.7205Y-2.1811
X6.7402Y-1.3583
X6.752Y-1.5354
X6.7835Y-2.3031
X6.8898Y-2.5591
X6.9094Y-1.2677
X6.9882Y-1.874
X7.0079Y-1.4528
X7.0315Y-1.3858
X7.0354Y-2.2362
X7.0472Y-1.2205
X7.0709Y-1.3425
X7.0866Y-2.5591
X7.1811Y-1.9331
T4
X5.189Y-2.311
X5.189Y-2.4094
X5.4567Y-2.311
X5.4567Y-2.4094
T5
X3.726Y-2.1929
X3.726Y-2.3929
X3.7711Y-2.2929
X3.8161Y-2.1929
X3.8161Y-2.3929
X3.8612Y-2.2929
X3.9063Y-2.1929
X3.9063Y-2.3929
X3.9514Y-2.2929
X3.9965Y-2.1929
X3.9965Y-2.3929
X4.0415Y-2.2929
X4.0866Y-2.1929
X4.0866Y-2.3929
X4.1317Y-2.2929
T6
X5.7697Y-2.252
X6.065Y-2.252
X6.3209Y-2.252
X6.6161Y-2.252
X6.872Y-2.252
X7.1673Y-2.252
T7
X6.065Y-2.5374
X6.6161Y-2.5374
X7.1673Y-2.5374
T8
X3.4246Y-2.2929
X4.4089Y-2.2929
T10
X6.1339Y-1.9606
X3.5433Y-1.9606
T11
X5.2598Y-1.9606
T2
G00X5.2933Y-2.563
M15
G01X5.3524Y-2.563
M16
G05
T3
G00X5.0669Y-2.5541
M15
G01X5.0669Y-2.501
M16
G05
G00X5.5787Y-2.501
M15
G01X5.5787Y-2.5541
M16
G05
T5
G00X4.6516Y-2.2874
M15
G01X4.6516Y-2.3268
M16
G05
G00X4.7677Y-2.3819
M15
G01X4.7283Y-2.3819
M16
G05
G00X4.7677Y-2.5984
M15
G01X4.7283Y-2.5984
M16
G05
G00X4.8465Y-2.2402
M15
G01X4.8071Y-2.2402
M16
G05
G00X4.8465Y-2.4567
M15
G01X4.8071Y-2.4567
M16
G05
G00X4.8465Y-2.6969
M15
G01X4.8071Y-2.6969
M16
G05
G00X4.9902Y-2.2874
M15
G01X4.9902Y-2.3268
M16
G05
G00X4.9902Y-2.6378
M15
G01X4.9902Y-2.6772
M16
G05
T9
G00X5.6752Y-2.3406
M15
G01X5.6752Y-2.4587
M16
G05
T0
M30
