G04 #@! TF.GenerationSoftware,KiCad,Pcbnew,(5.1.0)-1*
G04 #@! TF.CreationDate,2019-07-06T13:04:13-04:00*
G04 #@! TF.ProjectId,snes breakout,736e6573-2062-4726-9561-6b6f75742e6b,rev?*
G04 #@! TF.SameCoordinates,Original*
G04 #@! TF.FileFunction,Copper,L2,Bot*
G04 #@! TF.FilePolarity,Positive*
%FSLAX46Y46*%
G04 Gerber Fmt 4.6, Leading zero omitted, Abs format (unit mm)*
G04 Created by KiCad (PCBNEW (5.1.0)-1) date 2019-07-06 13:04:13*
%MOMM*%
%LPD*%
G04 APERTURE LIST*
%ADD10O,2.000000X4.000000*%
%ADD11O,2.200000X4.000000*%
%ADD12R,1.905000X3.083560*%
%ADD13O,1.700000X3.400000*%
%ADD14O,3.400000X1.700000*%
%ADD15C,1.408000*%
%ADD16R,1.408000X1.408000*%
%ADD17R,1.600000X1.600000*%
%ADD18C,1.600000*%
%ADD19C,4.000000*%
%ADD20O,3.016000X1.508000*%
%ADD21O,1.508000X3.016000*%
%ADD22C,0.800000*%
%ADD23C,0.250000*%
%ADD24C,0.254000*%
G04 APERTURE END LIST*
D10*
X168050000Y-57200000D03*
X160550000Y-57200000D03*
X154050000Y-57200000D03*
X146550000Y-57200000D03*
X174550000Y-57200000D03*
X182050000Y-57200000D03*
D11*
X154050000Y-64450000D03*
X168050000Y-64450000D03*
X182050000Y-64450000D03*
D12*
X167750000Y-27300000D03*
X170290000Y-27300000D03*
X172830000Y-27300000D03*
X175370000Y-27300000D03*
X177910000Y-27300000D03*
X180450000Y-27300000D03*
D13*
X141700000Y-64200000D03*
D14*
X135200000Y-65100000D03*
D13*
X128700000Y-64200000D03*
D15*
X138600000Y-58700000D03*
D16*
X138600000Y-61200000D03*
D15*
X131800000Y-61200000D03*
X131800000Y-58700000D03*
D17*
X103800000Y-55700000D03*
D18*
X101510000Y-55700000D03*
X99220000Y-55700000D03*
X96930000Y-55700000D03*
X94640000Y-55700000D03*
X104945000Y-58240000D03*
X102655000Y-58240000D03*
X100365000Y-58240000D03*
X98075000Y-58240000D03*
X95785000Y-58240000D03*
X103800000Y-60780000D03*
X101510000Y-60780000D03*
X99220000Y-60780000D03*
X96930000Y-60780000D03*
X94640000Y-60780000D03*
D19*
X86985000Y-58240000D03*
X111985000Y-58240000D03*
D20*
X120600000Y-60500000D03*
X120600000Y-66000000D03*
X122600000Y-68500000D03*
X122600000Y-62400000D03*
X122600000Y-56900000D03*
D21*
X118150000Y-58600000D03*
X126750000Y-58600000D03*
X126750000Y-67500000D03*
D22*
X172500000Y-44500000D03*
X178505238Y-43069442D03*
X163200000Y-55800000D03*
X143600000Y-56300000D03*
X150000000Y-58000000D03*
X157600000Y-57100000D03*
X163500000Y-53700000D03*
X166000000Y-58500000D03*
X170700000Y-55400000D03*
X172300000Y-58500000D03*
X178700000Y-56800000D03*
X182400000Y-49100000D03*
X177500000Y-47600000D03*
X175000000Y-43700000D03*
X170300000Y-48000000D03*
X168800000Y-44700000D03*
X169100000Y-36600000D03*
X172400000Y-39100000D03*
X166300000Y-35900000D03*
X178800000Y-36700000D03*
X179300000Y-30500000D03*
X85000000Y-65000000D03*
X90000000Y-65000000D03*
X95000000Y-65000000D03*
X100000000Y-65000000D03*
X105000000Y-65000000D03*
X110000000Y-65000000D03*
X115000000Y-65000000D03*
X85000000Y-55000000D03*
X90000000Y-55000000D03*
X95000000Y-50000000D03*
X85000000Y-50000000D03*
X110000000Y-50000000D03*
X115000000Y-50000000D03*
X120000000Y-50000000D03*
X125000000Y-50000000D03*
X140000000Y-50000000D03*
X145000000Y-50000000D03*
X150000000Y-50000000D03*
X160000000Y-50000000D03*
X125000000Y-65000000D03*
X145000000Y-65000000D03*
X150000000Y-65000000D03*
X160000000Y-65000000D03*
X165000000Y-65000000D03*
X170000000Y-65000000D03*
X175000000Y-65000000D03*
X180000000Y-65000000D03*
X157100000Y-63900000D03*
D23*
X102309999Y-54900001D02*
X101510000Y-55700000D01*
X152800000Y-57200000D02*
X149750011Y-54150011D01*
X154050000Y-57200000D02*
X152800000Y-57200000D01*
X149750011Y-54150011D02*
X103059989Y-54150011D01*
X103059989Y-54150011D02*
X102309999Y-54900001D01*
X172500000Y-44000000D02*
X172500000Y-44500000D01*
X167750000Y-27300000D02*
X167750000Y-39250000D01*
X167750000Y-39250000D02*
X172500000Y-44000000D01*
X170290000Y-27300000D02*
X170290000Y-34854204D01*
X170290000Y-34854204D02*
X178105239Y-42669443D01*
X178105239Y-42669443D02*
X178505238Y-43069442D01*
X100019999Y-54900001D02*
X99220000Y-55700000D01*
X101220000Y-53700000D02*
X100019999Y-54900001D01*
X159923847Y-53700000D02*
X101220000Y-53700000D01*
X162023847Y-55800000D02*
X159923847Y-53700000D01*
X163200000Y-55800000D02*
X162023847Y-55800000D01*
X160550000Y-57200000D02*
X160550000Y-58200000D01*
X157499999Y-63500001D02*
X157100000Y-63900000D01*
X160550000Y-60450000D02*
X157499999Y-63500001D01*
X160550000Y-57200000D02*
X160550000Y-60450000D01*
X132503999Y-59403999D02*
X131800000Y-58700000D01*
X140200000Y-67100000D02*
X132503999Y-59403999D01*
X155373002Y-67100000D02*
X140200000Y-67100000D01*
X158025001Y-64351152D02*
X158025001Y-64448001D01*
X158025001Y-64448001D02*
X155373002Y-67100000D01*
X175370000Y-27300000D02*
X175370000Y-29091780D01*
X179900000Y-33621780D02*
X179900000Y-42700000D01*
X179900000Y-42700000D02*
X167800000Y-54800000D01*
X175370000Y-29091780D02*
X179900000Y-33621780D01*
X167800000Y-54800000D02*
X167576153Y-54800000D01*
X167576153Y-54800000D02*
X158025001Y-64351152D01*
X174550000Y-54950000D02*
X174550000Y-57200000D01*
X180675010Y-48824990D02*
X174550000Y-54950000D01*
X180675010Y-29316790D02*
X180675010Y-48824990D01*
X180450000Y-29091780D02*
X180675010Y-29316790D01*
X180450000Y-27300000D02*
X180450000Y-29091780D01*
X125454000Y-61900000D02*
X121354000Y-66000000D01*
X129300000Y-61900000D02*
X125454000Y-61900000D01*
X174550000Y-62250000D02*
X169000000Y-67800000D01*
X174550000Y-57200000D02*
X174550000Y-62250000D01*
X169000000Y-67800000D02*
X132300000Y-67800000D01*
X132300000Y-67800000D02*
X130300000Y-65800000D01*
X130300000Y-65800000D02*
X130300000Y-62900000D01*
X121354000Y-66000000D02*
X120600000Y-66000000D01*
X130300000Y-62900000D02*
X129300000Y-61900000D01*
D24*
G36*
X166159428Y-28841780D02*
G01*
X166171688Y-28966262D01*
X166207998Y-29085960D01*
X166266963Y-29196274D01*
X166346315Y-29292965D01*
X166443006Y-29372317D01*
X166553320Y-29431282D01*
X166673018Y-29467592D01*
X166797500Y-29479852D01*
X166990000Y-29479852D01*
X166990001Y-39212668D01*
X166986324Y-39250000D01*
X167000998Y-39398985D01*
X167044454Y-39542246D01*
X167115026Y-39674276D01*
X167186201Y-39761002D01*
X167210000Y-39790001D01*
X167238998Y-39813799D01*
X171539489Y-44114292D01*
X171504774Y-44198102D01*
X171465000Y-44398061D01*
X171465000Y-44601939D01*
X171504774Y-44801898D01*
X171582795Y-44990256D01*
X171696063Y-45159774D01*
X171840226Y-45303937D01*
X172009744Y-45417205D01*
X172198102Y-45495226D01*
X172398061Y-45535000D01*
X172601939Y-45535000D01*
X172801898Y-45495226D01*
X172990256Y-45417205D01*
X173159774Y-45303937D01*
X173303937Y-45159774D01*
X173417205Y-44990256D01*
X173495226Y-44801898D01*
X173535000Y-44601939D01*
X173535000Y-44398061D01*
X173495226Y-44198102D01*
X173417205Y-44009744D01*
X173303937Y-43840226D01*
X173220386Y-43756675D01*
X173205546Y-43707753D01*
X173134974Y-43575724D01*
X173076747Y-43504774D01*
X173063799Y-43488996D01*
X173063795Y-43488992D01*
X173040001Y-43459999D01*
X173011009Y-43436206D01*
X168510000Y-38935199D01*
X168510000Y-29479852D01*
X168702500Y-29479852D01*
X168826982Y-29467592D01*
X168946680Y-29431282D01*
X169020000Y-29392091D01*
X169093320Y-29431282D01*
X169213018Y-29467592D01*
X169337500Y-29479852D01*
X169530000Y-29479852D01*
X169530001Y-34816872D01*
X169526324Y-34854204D01*
X169540998Y-35003189D01*
X169584454Y-35146450D01*
X169655026Y-35278480D01*
X169726201Y-35365206D01*
X169750000Y-35394205D01*
X169778998Y-35418003D01*
X177470238Y-43109244D01*
X177470238Y-43171381D01*
X177510012Y-43371340D01*
X177588033Y-43559698D01*
X177701301Y-43729216D01*
X177748642Y-43776557D01*
X167479341Y-54045858D01*
X167427167Y-54050997D01*
X167283906Y-54094454D01*
X167151877Y-54165026D01*
X167036152Y-54259999D01*
X167012354Y-54288997D01*
X161310000Y-59991352D01*
X161310000Y-59647679D01*
X161462752Y-59566031D01*
X161711714Y-59361714D01*
X161916031Y-59112752D01*
X162067852Y-58828715D01*
X162161343Y-58520516D01*
X162185000Y-58280322D01*
X162185000Y-56560000D01*
X162496289Y-56560000D01*
X162540226Y-56603937D01*
X162709744Y-56717205D01*
X162898102Y-56795226D01*
X163098061Y-56835000D01*
X163301939Y-56835000D01*
X163501898Y-56795226D01*
X163690256Y-56717205D01*
X163859774Y-56603937D01*
X164003937Y-56459774D01*
X164117205Y-56290256D01*
X164195226Y-56101898D01*
X164235000Y-55901939D01*
X164235000Y-55698061D01*
X164195226Y-55498102D01*
X164117205Y-55309744D01*
X164003937Y-55140226D01*
X163859774Y-54996063D01*
X163690256Y-54882795D01*
X163501898Y-54804774D01*
X163301939Y-54765000D01*
X163098061Y-54765000D01*
X162898102Y-54804774D01*
X162709744Y-54882795D01*
X162540226Y-54996063D01*
X162496289Y-55040000D01*
X162338650Y-55040000D01*
X160487651Y-53189002D01*
X160463848Y-53159999D01*
X160348123Y-53065026D01*
X160216094Y-52994454D01*
X160072833Y-52950997D01*
X159961180Y-52940000D01*
X159961169Y-52940000D01*
X159923847Y-52936324D01*
X159886525Y-52940000D01*
X134864802Y-52940000D01*
X135203399Y-52799748D01*
X135757812Y-52429302D01*
X136229302Y-51957812D01*
X136599748Y-51403399D01*
X136854917Y-50787368D01*
X136985000Y-50133393D01*
X136985000Y-49898061D01*
X138965000Y-49898061D01*
X138965000Y-50101939D01*
X139004774Y-50301898D01*
X139082795Y-50490256D01*
X139196063Y-50659774D01*
X139340226Y-50803937D01*
X139509744Y-50917205D01*
X139698102Y-50995226D01*
X139898061Y-51035000D01*
X140101939Y-51035000D01*
X140301898Y-50995226D01*
X140490256Y-50917205D01*
X140659774Y-50803937D01*
X140803937Y-50659774D01*
X140917205Y-50490256D01*
X140995226Y-50301898D01*
X141035000Y-50101939D01*
X141035000Y-49898061D01*
X140995226Y-49698102D01*
X140946254Y-49579872D01*
X153565000Y-49579872D01*
X153565000Y-50020128D01*
X153650890Y-50451925D01*
X153819369Y-50858669D01*
X154063962Y-51224729D01*
X154375271Y-51536038D01*
X154741331Y-51780631D01*
X155148075Y-51949110D01*
X155579872Y-52035000D01*
X156020128Y-52035000D01*
X156451925Y-51949110D01*
X156858669Y-51780631D01*
X157224729Y-51536038D01*
X157536038Y-51224729D01*
X157780631Y-50858669D01*
X157949110Y-50451925D01*
X158035000Y-50020128D01*
X158035000Y-49579872D01*
X157949110Y-49148075D01*
X157780631Y-48741331D01*
X157536038Y-48375271D01*
X157224729Y-48063962D01*
X156858669Y-47819369D01*
X156451925Y-47650890D01*
X156020128Y-47565000D01*
X155579872Y-47565000D01*
X155148075Y-47650890D01*
X154741331Y-47819369D01*
X154375271Y-48063962D01*
X154063962Y-48375271D01*
X153819369Y-48741331D01*
X153650890Y-49148075D01*
X153565000Y-49579872D01*
X140946254Y-49579872D01*
X140917205Y-49509744D01*
X140803937Y-49340226D01*
X140659774Y-49196063D01*
X140490256Y-49082795D01*
X140301898Y-49004774D01*
X140101939Y-48965000D01*
X139898061Y-48965000D01*
X139698102Y-49004774D01*
X139509744Y-49082795D01*
X139340226Y-49196063D01*
X139196063Y-49340226D01*
X139082795Y-49509744D01*
X139004774Y-49698102D01*
X138965000Y-49898061D01*
X136985000Y-49898061D01*
X136985000Y-49466607D01*
X136854917Y-48812632D01*
X136599748Y-48196601D01*
X136229302Y-47642188D01*
X135757812Y-47170698D01*
X135203399Y-46800252D01*
X134587368Y-46545083D01*
X133933393Y-46415000D01*
X133266607Y-46415000D01*
X132612632Y-46545083D01*
X131996601Y-46800252D01*
X131442188Y-47170698D01*
X130970698Y-47642188D01*
X130600252Y-48196601D01*
X130345083Y-48812632D01*
X130215000Y-49466607D01*
X130215000Y-50133393D01*
X130345083Y-50787368D01*
X130600252Y-51403399D01*
X130970698Y-51957812D01*
X131442188Y-52429302D01*
X131996601Y-52799748D01*
X132335198Y-52940000D01*
X101257325Y-52940000D01*
X101220000Y-52936324D01*
X101182675Y-52940000D01*
X101182667Y-52940000D01*
X101071014Y-52950997D01*
X100927753Y-52994454D01*
X100795724Y-53065026D01*
X100679999Y-53159999D01*
X100656201Y-53188997D01*
X99543887Y-54301312D01*
X99361335Y-54265000D01*
X99078665Y-54265000D01*
X98801426Y-54320147D01*
X98540273Y-54428320D01*
X98305241Y-54585363D01*
X98105363Y-54785241D01*
X98075000Y-54830683D01*
X98044637Y-54785241D01*
X97844759Y-54585363D01*
X97609727Y-54428320D01*
X97348574Y-54320147D01*
X97071335Y-54265000D01*
X96788665Y-54265000D01*
X96511426Y-54320147D01*
X96250273Y-54428320D01*
X96015241Y-54585363D01*
X95815363Y-54785241D01*
X95728628Y-54915049D01*
X95632702Y-54886903D01*
X94819605Y-55700000D01*
X95632702Y-56513097D01*
X95728628Y-56484951D01*
X95815363Y-56614759D01*
X96015241Y-56814637D01*
X96024059Y-56820529D01*
X95996816Y-56813700D01*
X95714488Y-56799783D01*
X95434870Y-56841213D01*
X95406551Y-56851340D01*
X95453097Y-56692702D01*
X94640000Y-55879605D01*
X93826903Y-56692702D01*
X93898486Y-56936671D01*
X94153996Y-57057571D01*
X94428184Y-57126300D01*
X94710512Y-57140217D01*
X94990130Y-57098787D01*
X95018449Y-57088660D01*
X94971903Y-57247298D01*
X95785000Y-58060395D01*
X96598097Y-57247298D01*
X96551294Y-57087783D01*
X96788665Y-57135000D01*
X97071335Y-57135000D01*
X97177391Y-57113904D01*
X97160241Y-57125363D01*
X96960363Y-57325241D01*
X96873628Y-57455049D01*
X96777702Y-57426903D01*
X95964605Y-58240000D01*
X96777702Y-59053097D01*
X96873628Y-59024951D01*
X96960363Y-59154759D01*
X97160241Y-59354637D01*
X97177391Y-59366096D01*
X97071335Y-59345000D01*
X96788665Y-59345000D01*
X96551294Y-59392217D01*
X96598097Y-59232702D01*
X95785000Y-58419605D01*
X94971903Y-59232702D01*
X95018706Y-59392217D01*
X94781335Y-59345000D01*
X94498665Y-59345000D01*
X94221426Y-59400147D01*
X93960273Y-59508320D01*
X93725241Y-59665363D01*
X93525363Y-59865241D01*
X93368320Y-60100273D01*
X93260147Y-60361426D01*
X93205000Y-60638665D01*
X93205000Y-60921335D01*
X93260147Y-61198574D01*
X93368320Y-61459727D01*
X93525363Y-61694759D01*
X93725241Y-61894637D01*
X93960273Y-62051680D01*
X94221426Y-62159853D01*
X94498665Y-62215000D01*
X94781335Y-62215000D01*
X95058574Y-62159853D01*
X95319727Y-62051680D01*
X95554759Y-61894637D01*
X95754637Y-61694759D01*
X95785000Y-61649317D01*
X95815363Y-61694759D01*
X96015241Y-61894637D01*
X96250273Y-62051680D01*
X96511426Y-62159853D01*
X96788665Y-62215000D01*
X97071335Y-62215000D01*
X97348574Y-62159853D01*
X97609727Y-62051680D01*
X97844759Y-61894637D01*
X98044637Y-61694759D01*
X98075000Y-61649317D01*
X98105363Y-61694759D01*
X98305241Y-61894637D01*
X98540273Y-62051680D01*
X98801426Y-62159853D01*
X99078665Y-62215000D01*
X99361335Y-62215000D01*
X99638574Y-62159853D01*
X99899727Y-62051680D01*
X100134759Y-61894637D01*
X100334637Y-61694759D01*
X100365000Y-61649317D01*
X100395363Y-61694759D01*
X100595241Y-61894637D01*
X100830273Y-62051680D01*
X101091426Y-62159853D01*
X101368665Y-62215000D01*
X101651335Y-62215000D01*
X101928574Y-62159853D01*
X102189727Y-62051680D01*
X102424759Y-61894637D01*
X102624637Y-61694759D01*
X102655000Y-61649317D01*
X102685363Y-61694759D01*
X102885241Y-61894637D01*
X103120273Y-62051680D01*
X103381426Y-62159853D01*
X103658665Y-62215000D01*
X103941335Y-62215000D01*
X104218574Y-62159853D01*
X104479727Y-62051680D01*
X104714759Y-61894637D01*
X104914637Y-61694759D01*
X105071680Y-61459727D01*
X105179853Y-61198574D01*
X105235000Y-60921335D01*
X105235000Y-60638665D01*
X105179853Y-60361426D01*
X105071680Y-60100273D01*
X105063145Y-60087499D01*
X110317106Y-60087499D01*
X110533228Y-60454258D01*
X110993105Y-60694938D01*
X111491098Y-60841275D01*
X112008071Y-60887648D01*
X112524159Y-60832273D01*
X113019526Y-60677279D01*
X113436772Y-60454258D01*
X113652894Y-60087499D01*
X111985000Y-58419605D01*
X110317106Y-60087499D01*
X105063145Y-60087499D01*
X104914637Y-59865241D01*
X104714759Y-59665363D01*
X104705941Y-59659471D01*
X104733184Y-59666300D01*
X105015512Y-59680217D01*
X105295130Y-59638787D01*
X105561292Y-59543603D01*
X105686514Y-59476671D01*
X105758097Y-59232702D01*
X104945000Y-58419605D01*
X104131903Y-59232702D01*
X104178706Y-59392217D01*
X103941335Y-59345000D01*
X103658665Y-59345000D01*
X103421294Y-59392217D01*
X103468097Y-59232702D01*
X102655000Y-58419605D01*
X101841903Y-59232702D01*
X101888706Y-59392217D01*
X101651335Y-59345000D01*
X101368665Y-59345000D01*
X101131294Y-59392217D01*
X101178097Y-59232702D01*
X100365000Y-58419605D01*
X99551903Y-59232702D01*
X99598706Y-59392217D01*
X99361335Y-59345000D01*
X99078665Y-59345000D01*
X98972609Y-59366096D01*
X98989759Y-59354637D01*
X99189637Y-59154759D01*
X99276372Y-59024951D01*
X99372298Y-59053097D01*
X100185395Y-58240000D01*
X100544605Y-58240000D01*
X101357702Y-59053097D01*
X101510000Y-59008411D01*
X101662298Y-59053097D01*
X102475395Y-58240000D01*
X102834605Y-58240000D01*
X103647702Y-59053097D01*
X103800000Y-59008411D01*
X103952298Y-59053097D01*
X104765395Y-58240000D01*
X105124605Y-58240000D01*
X105937702Y-59053097D01*
X106181671Y-58981514D01*
X106302571Y-58726004D01*
X106371300Y-58451816D01*
X106380603Y-58263071D01*
X109337352Y-58263071D01*
X109392727Y-58779159D01*
X109547721Y-59274526D01*
X109770742Y-59691772D01*
X110137501Y-59907894D01*
X111805395Y-58240000D01*
X112164605Y-58240000D01*
X113832499Y-59907894D01*
X114199258Y-59691772D01*
X114439938Y-59231895D01*
X114586275Y-58733902D01*
X114586894Y-58727000D01*
X116761000Y-58727000D01*
X116761000Y-59481000D01*
X116812466Y-59749540D01*
X116915332Y-60002880D01*
X117065646Y-60231284D01*
X117257631Y-60425974D01*
X117483909Y-60579469D01*
X117735785Y-60685870D01*
X117808186Y-60700286D01*
X118023000Y-60577677D01*
X118023000Y-58727000D01*
X116761000Y-58727000D01*
X114586894Y-58727000D01*
X114632648Y-58216929D01*
X114579222Y-57719000D01*
X116761000Y-57719000D01*
X116761000Y-58473000D01*
X118023000Y-58473000D01*
X118023000Y-56622323D01*
X118277000Y-56622323D01*
X118277000Y-58473000D01*
X119539000Y-58473000D01*
X119539000Y-57719000D01*
X119487534Y-57450460D01*
X119384668Y-57197120D01*
X119234354Y-56968716D01*
X119166593Y-56900000D01*
X120450280Y-56900000D01*
X120477098Y-57172291D01*
X120556523Y-57434119D01*
X120685501Y-57675420D01*
X120859077Y-57886923D01*
X121070580Y-58060499D01*
X121311881Y-58189477D01*
X121573709Y-58268902D01*
X121777770Y-58289000D01*
X123422230Y-58289000D01*
X123626291Y-58268902D01*
X123888119Y-58189477D01*
X124129420Y-58060499D01*
X124340923Y-57886923D01*
X124478733Y-57719000D01*
X125361000Y-57719000D01*
X125361000Y-58473000D01*
X126623000Y-58473000D01*
X126623000Y-56622323D01*
X126877000Y-56622323D01*
X126877000Y-58473000D01*
X128139000Y-58473000D01*
X128139000Y-57719000D01*
X128087534Y-57450460D01*
X127984668Y-57197120D01*
X127834354Y-56968716D01*
X127642369Y-56774026D01*
X127416091Y-56620531D01*
X127164215Y-56514130D01*
X127091814Y-56499714D01*
X126877000Y-56622323D01*
X126623000Y-56622323D01*
X126408186Y-56499714D01*
X126335785Y-56514130D01*
X126083909Y-56620531D01*
X125857631Y-56774026D01*
X125665646Y-56968716D01*
X125515332Y-57197120D01*
X125412466Y-57450460D01*
X125361000Y-57719000D01*
X124478733Y-57719000D01*
X124514499Y-57675420D01*
X124643477Y-57434119D01*
X124722902Y-57172291D01*
X124749720Y-56900000D01*
X124722902Y-56627709D01*
X124643477Y-56365881D01*
X124514499Y-56124580D01*
X124340923Y-55913077D01*
X124129420Y-55739501D01*
X123888119Y-55610523D01*
X123626291Y-55531098D01*
X123422230Y-55511000D01*
X121777770Y-55511000D01*
X121573709Y-55531098D01*
X121311881Y-55610523D01*
X121070580Y-55739501D01*
X120859077Y-55913077D01*
X120685501Y-56124580D01*
X120556523Y-56365881D01*
X120477098Y-56627709D01*
X120450280Y-56900000D01*
X119166593Y-56900000D01*
X119042369Y-56774026D01*
X118816091Y-56620531D01*
X118564215Y-56514130D01*
X118491814Y-56499714D01*
X118277000Y-56622323D01*
X118023000Y-56622323D01*
X117808186Y-56499714D01*
X117735785Y-56514130D01*
X117483909Y-56620531D01*
X117257631Y-56774026D01*
X117065646Y-56968716D01*
X116915332Y-57197120D01*
X116812466Y-57450460D01*
X116761000Y-57719000D01*
X114579222Y-57719000D01*
X114577273Y-57700841D01*
X114422279Y-57205474D01*
X114199258Y-56788228D01*
X113832499Y-56572106D01*
X112164605Y-58240000D01*
X111805395Y-58240000D01*
X110137501Y-56572106D01*
X109770742Y-56788228D01*
X109530062Y-57248105D01*
X109383725Y-57746098D01*
X109337352Y-58263071D01*
X106380603Y-58263071D01*
X106385217Y-58169488D01*
X106343787Y-57889870D01*
X106248603Y-57623708D01*
X106181671Y-57498486D01*
X105937702Y-57426903D01*
X105124605Y-58240000D01*
X104765395Y-58240000D01*
X103952298Y-57426903D01*
X103800000Y-57471589D01*
X103647702Y-57426903D01*
X102834605Y-58240000D01*
X102475395Y-58240000D01*
X101662298Y-57426903D01*
X101510000Y-57471589D01*
X101357702Y-57426903D01*
X100544605Y-58240000D01*
X100185395Y-58240000D01*
X99372298Y-57426903D01*
X99276372Y-57455049D01*
X99189637Y-57325241D01*
X98989759Y-57125363D01*
X98972609Y-57113904D01*
X99078665Y-57135000D01*
X99361335Y-57135000D01*
X99598706Y-57087783D01*
X99551903Y-57247298D01*
X100365000Y-58060395D01*
X101178097Y-57247298D01*
X101131294Y-57087783D01*
X101368665Y-57135000D01*
X101651335Y-57135000D01*
X101888706Y-57087783D01*
X101841903Y-57247298D01*
X102655000Y-58060395D01*
X103468097Y-57247298D01*
X103436049Y-57138072D01*
X104163951Y-57138072D01*
X104131903Y-57247298D01*
X104945000Y-58060395D01*
X105758097Y-57247298D01*
X105686514Y-57003329D01*
X105431004Y-56882429D01*
X105156816Y-56813700D01*
X105152457Y-56813485D01*
X105189502Y-56744180D01*
X105225812Y-56624482D01*
X105238072Y-56500000D01*
X105238072Y-56392501D01*
X110317106Y-56392501D01*
X111985000Y-58060395D01*
X113652894Y-56392501D01*
X113436772Y-56025742D01*
X112976895Y-55785062D01*
X112478902Y-55638725D01*
X111961929Y-55592352D01*
X111445841Y-55647727D01*
X110950474Y-55802721D01*
X110533228Y-56025742D01*
X110317106Y-56392501D01*
X105238072Y-56392501D01*
X105238072Y-54910011D01*
X145544590Y-54910011D01*
X145388286Y-55038286D01*
X145183969Y-55287249D01*
X145032148Y-55571286D01*
X144938657Y-55879485D01*
X144915000Y-56119679D01*
X144915001Y-58175079D01*
X144721033Y-58071401D01*
X144441110Y-57986487D01*
X144150000Y-57957815D01*
X143858889Y-57986487D01*
X143578966Y-58071401D01*
X143320986Y-58209294D01*
X143094866Y-58394866D01*
X142909294Y-58620987D01*
X142771401Y-58878967D01*
X142686487Y-59158890D01*
X142665000Y-59377051D01*
X142665001Y-62220896D01*
X142529014Y-62109294D01*
X142271034Y-61971401D01*
X141991111Y-61886487D01*
X141700000Y-61857815D01*
X141408890Y-61886487D01*
X141128967Y-61971401D01*
X140870987Y-62109294D01*
X140644867Y-62294866D01*
X140459295Y-62520986D01*
X140321402Y-62778966D01*
X140236488Y-63058889D01*
X140215000Y-63277050D01*
X140215000Y-65122949D01*
X140236487Y-65341110D01*
X140321401Y-65621033D01*
X140459294Y-65879013D01*
X140644866Y-66105134D01*
X140870986Y-66290706D01*
X140963209Y-66340000D01*
X140514802Y-66340000D01*
X136078802Y-61904000D01*
X137257928Y-61904000D01*
X137270188Y-62028482D01*
X137306498Y-62148180D01*
X137365463Y-62258494D01*
X137444815Y-62355185D01*
X137541506Y-62434537D01*
X137651820Y-62493502D01*
X137771518Y-62529812D01*
X137896000Y-62542072D01*
X138314250Y-62539000D01*
X138473000Y-62380250D01*
X138473000Y-61327000D01*
X138727000Y-61327000D01*
X138727000Y-62380250D01*
X138885750Y-62539000D01*
X139304000Y-62542072D01*
X139428482Y-62529812D01*
X139548180Y-62493502D01*
X139658494Y-62434537D01*
X139755185Y-62355185D01*
X139834537Y-62258494D01*
X139893502Y-62148180D01*
X139929812Y-62028482D01*
X139942072Y-61904000D01*
X139939000Y-61485750D01*
X139780250Y-61327000D01*
X138727000Y-61327000D01*
X138473000Y-61327000D01*
X137419750Y-61327000D01*
X137261000Y-61485750D01*
X137257928Y-61904000D01*
X136078802Y-61904000D01*
X134670802Y-60496000D01*
X137257928Y-60496000D01*
X137261000Y-60914250D01*
X137419750Y-61073000D01*
X138473000Y-61073000D01*
X138473000Y-61053000D01*
X138727000Y-61053000D01*
X138727000Y-61073000D01*
X139780250Y-61073000D01*
X139939000Y-60914250D01*
X139942072Y-60496000D01*
X139929812Y-60371518D01*
X139893502Y-60251820D01*
X139834537Y-60141506D01*
X139755185Y-60044815D01*
X139658494Y-59965463D01*
X139548180Y-59906498D01*
X139428482Y-59870188D01*
X139304000Y-59857928D01*
X139276877Y-59858127D01*
X139453563Y-59740069D01*
X139640069Y-59553563D01*
X139786607Y-59334254D01*
X139887543Y-59090572D01*
X139939000Y-58831880D01*
X139939000Y-58568120D01*
X139887543Y-58309428D01*
X139786607Y-58065746D01*
X139640069Y-57846437D01*
X139453563Y-57659931D01*
X139234254Y-57513393D01*
X138990572Y-57412457D01*
X138731880Y-57361000D01*
X138468120Y-57361000D01*
X138209428Y-57412457D01*
X137965746Y-57513393D01*
X137746437Y-57659931D01*
X137559931Y-57846437D01*
X137413393Y-58065746D01*
X137312457Y-58309428D01*
X137261000Y-58568120D01*
X137261000Y-58831880D01*
X137312457Y-59090572D01*
X137413393Y-59334254D01*
X137559931Y-59553563D01*
X137746437Y-59740069D01*
X137923123Y-59858127D01*
X137896000Y-59857928D01*
X137771518Y-59870188D01*
X137651820Y-59906498D01*
X137541506Y-59965463D01*
X137444815Y-60044815D01*
X137365463Y-60141506D01*
X137306498Y-60251820D01*
X137270188Y-60371518D01*
X137257928Y-60496000D01*
X134670802Y-60496000D01*
X133117047Y-58942246D01*
X133139000Y-58831880D01*
X133139000Y-58568120D01*
X133087543Y-58309428D01*
X132986607Y-58065746D01*
X132840069Y-57846437D01*
X132653563Y-57659931D01*
X132434254Y-57513393D01*
X132190572Y-57412457D01*
X131931880Y-57361000D01*
X131668120Y-57361000D01*
X131409428Y-57412457D01*
X131165746Y-57513393D01*
X130946437Y-57659931D01*
X130759931Y-57846437D01*
X130613393Y-58065746D01*
X130512457Y-58309428D01*
X130461000Y-58568120D01*
X130461000Y-58831880D01*
X130512457Y-59090572D01*
X130613393Y-59334254D01*
X130759931Y-59553563D01*
X130946437Y-59740069D01*
X131165746Y-59886607D01*
X131319086Y-59950122D01*
X131217236Y-59987276D01*
X131115423Y-60041695D01*
X131055477Y-60275872D01*
X131800000Y-61020395D01*
X131814143Y-61006253D01*
X131993748Y-61185858D01*
X131979605Y-61200000D01*
X132724128Y-61944523D01*
X132958305Y-61884577D01*
X133069602Y-61645449D01*
X133132109Y-61389203D01*
X133143425Y-61125686D01*
X133142060Y-61116861D01*
X135640199Y-63615000D01*
X134277050Y-63615000D01*
X134058889Y-63636487D01*
X133778966Y-63721401D01*
X133520986Y-63859294D01*
X133294866Y-64044866D01*
X133109294Y-64270986D01*
X132971401Y-64528966D01*
X132886487Y-64808889D01*
X132857815Y-65100000D01*
X132886487Y-65391111D01*
X132971401Y-65671034D01*
X133109294Y-65929014D01*
X133294866Y-66155134D01*
X133520986Y-66340706D01*
X133778966Y-66478599D01*
X134058889Y-66563513D01*
X134277050Y-66585000D01*
X136122950Y-66585000D01*
X136341111Y-66563513D01*
X136621034Y-66478599D01*
X136879014Y-66340706D01*
X137105134Y-66155134D01*
X137290706Y-65929014D01*
X137428599Y-65671034D01*
X137490889Y-65465691D01*
X139065198Y-67040000D01*
X132614802Y-67040000D01*
X131060000Y-65485199D01*
X131060000Y-62937333D01*
X131063677Y-62900000D01*
X131049003Y-62751014D01*
X131005546Y-62607753D01*
X130934974Y-62475724D01*
X130863799Y-62388997D01*
X130840001Y-62359999D01*
X130811003Y-62336201D01*
X130598930Y-62124128D01*
X131055477Y-62124128D01*
X131115423Y-62358305D01*
X131354551Y-62469602D01*
X131610797Y-62532109D01*
X131874314Y-62543425D01*
X132134976Y-62503114D01*
X132382764Y-62412724D01*
X132484577Y-62358305D01*
X132544523Y-62124128D01*
X131800000Y-61379605D01*
X131055477Y-62124128D01*
X130598930Y-62124128D01*
X129863804Y-61389002D01*
X129840001Y-61359999D01*
X129735594Y-61274314D01*
X130456575Y-61274314D01*
X130496886Y-61534976D01*
X130587276Y-61782764D01*
X130641695Y-61884577D01*
X130875872Y-61944523D01*
X131620395Y-61200000D01*
X130875872Y-60455477D01*
X130641695Y-60515423D01*
X130530398Y-60754551D01*
X130467891Y-61010797D01*
X130456575Y-61274314D01*
X129735594Y-61274314D01*
X129724276Y-61265026D01*
X129592247Y-61194454D01*
X129448986Y-61150997D01*
X129337333Y-61140000D01*
X129337322Y-61140000D01*
X129300000Y-61136324D01*
X129262678Y-61140000D01*
X125491333Y-61140000D01*
X125454000Y-61136323D01*
X125416667Y-61140000D01*
X125305014Y-61150997D01*
X125161753Y-61194454D01*
X125029724Y-61265026D01*
X124913999Y-61359999D01*
X124890201Y-61388997D01*
X124563306Y-61715892D01*
X124514499Y-61624580D01*
X124340923Y-61413077D01*
X124129420Y-61239501D01*
X123888119Y-61110523D01*
X123626291Y-61031098D01*
X123422230Y-61011000D01*
X122650490Y-61011000D01*
X122722902Y-60772291D01*
X122749720Y-60500000D01*
X122722902Y-60227709D01*
X122643477Y-59965881D01*
X122514499Y-59724580D01*
X122340923Y-59513077D01*
X122129420Y-59339501D01*
X121888119Y-59210523D01*
X121626291Y-59131098D01*
X121422230Y-59111000D01*
X119777770Y-59111000D01*
X119573709Y-59131098D01*
X119539000Y-59141627D01*
X119539000Y-58727000D01*
X125361000Y-58727000D01*
X125361000Y-59481000D01*
X125412466Y-59749540D01*
X125515332Y-60002880D01*
X125665646Y-60231284D01*
X125857631Y-60425974D01*
X126083909Y-60579469D01*
X126335785Y-60685870D01*
X126408186Y-60700286D01*
X126623000Y-60577677D01*
X126623000Y-58727000D01*
X126877000Y-58727000D01*
X126877000Y-60577677D01*
X127091814Y-60700286D01*
X127164215Y-60685870D01*
X127416091Y-60579469D01*
X127642369Y-60425974D01*
X127834354Y-60231284D01*
X127984668Y-60002880D01*
X128087534Y-59749540D01*
X128139000Y-59481000D01*
X128139000Y-58727000D01*
X126877000Y-58727000D01*
X126623000Y-58727000D01*
X125361000Y-58727000D01*
X119539000Y-58727000D01*
X118277000Y-58727000D01*
X118277000Y-60577677D01*
X118468707Y-60687097D01*
X118477098Y-60772291D01*
X118556523Y-61034119D01*
X118685501Y-61275420D01*
X118859077Y-61486923D01*
X119070580Y-61660499D01*
X119311881Y-61789477D01*
X119573709Y-61868902D01*
X119777770Y-61889000D01*
X120549510Y-61889000D01*
X120477098Y-62127709D01*
X120450280Y-62400000D01*
X120477098Y-62672291D01*
X120556523Y-62934119D01*
X120685501Y-63175420D01*
X120859077Y-63386923D01*
X121070580Y-63560499D01*
X121311881Y-63689477D01*
X121573709Y-63768902D01*
X121777770Y-63789000D01*
X122490199Y-63789000D01*
X121643025Y-64636174D01*
X121626291Y-64631098D01*
X121422230Y-64611000D01*
X119777770Y-64611000D01*
X119573709Y-64631098D01*
X119311881Y-64710523D01*
X119070580Y-64839501D01*
X118859077Y-65013077D01*
X118685501Y-65224580D01*
X118556523Y-65465881D01*
X118477098Y-65727709D01*
X118450280Y-66000000D01*
X118477098Y-66272291D01*
X118556523Y-66534119D01*
X118685501Y-66775420D01*
X118859077Y-66986923D01*
X119070580Y-67160499D01*
X119311881Y-67289477D01*
X119573709Y-67368902D01*
X119777770Y-67389000D01*
X121009205Y-67389000D01*
X120968716Y-67415646D01*
X120774026Y-67607631D01*
X120620531Y-67833909D01*
X120514130Y-68085785D01*
X120499714Y-68158186D01*
X120622323Y-68373000D01*
X122473000Y-68373000D01*
X122473000Y-68353000D01*
X122727000Y-68353000D01*
X122727000Y-68373000D01*
X124577677Y-68373000D01*
X124700286Y-68158186D01*
X124685870Y-68085785D01*
X124579469Y-67833909D01*
X124425974Y-67607631D01*
X124231284Y-67415646D01*
X124002880Y-67265332D01*
X123749540Y-67162466D01*
X123481000Y-67111000D01*
X122189735Y-67111000D01*
X122340923Y-66986923D01*
X122514499Y-66775420D01*
X122598107Y-66619000D01*
X125361000Y-66619000D01*
X125361000Y-67373000D01*
X126623000Y-67373000D01*
X126623000Y-65522323D01*
X126408186Y-65399714D01*
X126335785Y-65414130D01*
X126083909Y-65520531D01*
X125857631Y-65674026D01*
X125665646Y-65868716D01*
X125515332Y-66097120D01*
X125412466Y-66350460D01*
X125361000Y-66619000D01*
X122598107Y-66619000D01*
X122643477Y-66534119D01*
X122722902Y-66272291D01*
X122749720Y-66000000D01*
X122722902Y-65727709D01*
X122717826Y-65710975D01*
X125768802Y-62660000D01*
X127384990Y-62660000D01*
X127321401Y-62778967D01*
X127236487Y-63058890D01*
X127215000Y-63277051D01*
X127215000Y-65122950D01*
X127236488Y-65341111D01*
X127272516Y-65459880D01*
X127164215Y-65414130D01*
X127091814Y-65399714D01*
X126877000Y-65522323D01*
X126877000Y-67373000D01*
X128139000Y-67373000D01*
X128139000Y-66619000D01*
X128099490Y-66412843D01*
X128128967Y-66428599D01*
X128408890Y-66513513D01*
X128700000Y-66542185D01*
X128991111Y-66513513D01*
X129271034Y-66428599D01*
X129529014Y-66290706D01*
X129648235Y-66192863D01*
X129665026Y-66224276D01*
X129704431Y-66272291D01*
X129759999Y-66340001D01*
X129789003Y-66363804D01*
X131736201Y-68311003D01*
X131759999Y-68340001D01*
X131788997Y-68363799D01*
X131875723Y-68434974D01*
X132007753Y-68505546D01*
X132151014Y-68549003D01*
X132262667Y-68560000D01*
X132262676Y-68560000D01*
X132299999Y-68563676D01*
X132337322Y-68560000D01*
X168962678Y-68560000D01*
X169000000Y-68563676D01*
X169037322Y-68560000D01*
X169037333Y-68560000D01*
X169148986Y-68549003D01*
X169292247Y-68505546D01*
X169424276Y-68434974D01*
X169540001Y-68340001D01*
X169563804Y-68310997D01*
X173297801Y-64577000D01*
X180315000Y-64577000D01*
X180315000Y-65477000D01*
X180373114Y-65813041D01*
X180495670Y-66131288D01*
X180677958Y-66419511D01*
X180912973Y-66666633D01*
X181191683Y-66863157D01*
X181503378Y-67001531D01*
X181653878Y-67039175D01*
X181923000Y-66921125D01*
X181923000Y-64577000D01*
X180315000Y-64577000D01*
X173297801Y-64577000D01*
X174451801Y-63423000D01*
X180315000Y-63423000D01*
X180315000Y-64323000D01*
X181923000Y-64323000D01*
X181923000Y-61978875D01*
X181653878Y-61860825D01*
X181503378Y-61898469D01*
X181191683Y-62036843D01*
X180912973Y-62233367D01*
X180677958Y-62480489D01*
X180495670Y-62768712D01*
X180373114Y-63086959D01*
X180315000Y-63423000D01*
X174451801Y-63423000D01*
X175061003Y-62813799D01*
X175090001Y-62790001D01*
X175184974Y-62674276D01*
X175255546Y-62542247D01*
X175299003Y-62398986D01*
X175310000Y-62287333D01*
X175310000Y-62287324D01*
X175313676Y-62250001D01*
X175310000Y-62212678D01*
X175310000Y-59647679D01*
X175462752Y-59566031D01*
X175711714Y-59361714D01*
X175916031Y-59112752D01*
X176067852Y-58828715D01*
X176161343Y-58520516D01*
X176185000Y-58280322D01*
X176185000Y-56119678D01*
X176161343Y-55879484D01*
X176067852Y-55571285D01*
X175916031Y-55287248D01*
X175711714Y-55038286D01*
X175615486Y-54959315D01*
X181186013Y-49388789D01*
X181215011Y-49364991D01*
X181309984Y-49249266D01*
X181380556Y-49117237D01*
X181424013Y-48973976D01*
X181435010Y-48862323D01*
X181435010Y-48862314D01*
X181438686Y-48824991D01*
X181435010Y-48787668D01*
X181435010Y-29476650D01*
X181526982Y-29467592D01*
X181646680Y-29431282D01*
X181756994Y-29372317D01*
X181853685Y-29292965D01*
X181933037Y-29196274D01*
X181992002Y-29085960D01*
X182028312Y-28966262D01*
X182040572Y-28841780D01*
X182040572Y-26360000D01*
X182940000Y-26360000D01*
X182940001Y-44767572D01*
X182940000Y-44767582D01*
X182940000Y-54821809D01*
X182678714Y-54682148D01*
X182370515Y-54588657D01*
X182050000Y-54557089D01*
X181729484Y-54588657D01*
X181421285Y-54682148D01*
X181137248Y-54833969D01*
X180888286Y-55038286D01*
X180683969Y-55287249D01*
X180532148Y-55571286D01*
X180438657Y-55879485D01*
X180415000Y-56119679D01*
X180415001Y-58280322D01*
X180438658Y-58520516D01*
X180532149Y-58828715D01*
X180683970Y-59112752D01*
X180888287Y-59361714D01*
X181137249Y-59566031D01*
X181421286Y-59717852D01*
X181729485Y-59811343D01*
X182050000Y-59842911D01*
X182370516Y-59811343D01*
X182678715Y-59717852D01*
X182940001Y-59578192D01*
X182940001Y-62059184D01*
X182908317Y-62036843D01*
X182596622Y-61898469D01*
X182446122Y-61860825D01*
X182177000Y-61978875D01*
X182177000Y-64323000D01*
X182197000Y-64323000D01*
X182197000Y-64577000D01*
X182177000Y-64577000D01*
X182177000Y-66921125D01*
X182446122Y-67039175D01*
X182596622Y-67001531D01*
X182908317Y-66863157D01*
X182940001Y-66840816D01*
X182940001Y-69040000D01*
X127894429Y-69040000D01*
X127984668Y-68902880D01*
X128087534Y-68649540D01*
X128139000Y-68381000D01*
X128139000Y-67627000D01*
X126877000Y-67627000D01*
X126877000Y-67647000D01*
X126623000Y-67647000D01*
X126623000Y-67627000D01*
X125361000Y-67627000D01*
X125361000Y-68381000D01*
X125412466Y-68649540D01*
X125515332Y-68902880D01*
X125605571Y-69040000D01*
X124632734Y-69040000D01*
X124685870Y-68914215D01*
X124700286Y-68841814D01*
X124577677Y-68627000D01*
X122727000Y-68627000D01*
X122727000Y-68647000D01*
X122473000Y-68647000D01*
X122473000Y-68627000D01*
X120622323Y-68627000D01*
X120499714Y-68841814D01*
X120514130Y-68914215D01*
X120567266Y-69040000D01*
X84260000Y-69040000D01*
X84260000Y-60087499D01*
X85317106Y-60087499D01*
X85533228Y-60454258D01*
X85993105Y-60694938D01*
X86491098Y-60841275D01*
X87008071Y-60887648D01*
X87524159Y-60832273D01*
X88019526Y-60677279D01*
X88436772Y-60454258D01*
X88652894Y-60087499D01*
X86985000Y-58419605D01*
X85317106Y-60087499D01*
X84260000Y-60087499D01*
X84260000Y-58263071D01*
X84337352Y-58263071D01*
X84392727Y-58779159D01*
X84547721Y-59274526D01*
X84770742Y-59691772D01*
X85137501Y-59907894D01*
X86805395Y-58240000D01*
X87164605Y-58240000D01*
X88832499Y-59907894D01*
X89199258Y-59691772D01*
X89439938Y-59231895D01*
X89586275Y-58733902D01*
X89624253Y-58310512D01*
X94344783Y-58310512D01*
X94386213Y-58590130D01*
X94481397Y-58856292D01*
X94548329Y-58981514D01*
X94792298Y-59053097D01*
X95605395Y-58240000D01*
X94792298Y-57426903D01*
X94548329Y-57498486D01*
X94427429Y-57753996D01*
X94358700Y-58028184D01*
X94344783Y-58310512D01*
X89624253Y-58310512D01*
X89632648Y-58216929D01*
X89577273Y-57700841D01*
X89422279Y-57205474D01*
X89199258Y-56788228D01*
X88832499Y-56572106D01*
X87164605Y-58240000D01*
X86805395Y-58240000D01*
X85137501Y-56572106D01*
X84770742Y-56788228D01*
X84530062Y-57248105D01*
X84383725Y-57746098D01*
X84337352Y-58263071D01*
X84260000Y-58263071D01*
X84260000Y-56392501D01*
X85317106Y-56392501D01*
X86985000Y-58060395D01*
X88652894Y-56392501D01*
X88436772Y-56025742D01*
X87976895Y-55785062D01*
X87927381Y-55770512D01*
X93199783Y-55770512D01*
X93241213Y-56050130D01*
X93336397Y-56316292D01*
X93403329Y-56441514D01*
X93647298Y-56513097D01*
X94460395Y-55700000D01*
X93647298Y-54886903D01*
X93403329Y-54958486D01*
X93282429Y-55213996D01*
X93213700Y-55488184D01*
X93199783Y-55770512D01*
X87927381Y-55770512D01*
X87478902Y-55638725D01*
X86961929Y-55592352D01*
X86445841Y-55647727D01*
X85950474Y-55802721D01*
X85533228Y-56025742D01*
X85317106Y-56392501D01*
X84260000Y-56392501D01*
X84260000Y-54707298D01*
X93826903Y-54707298D01*
X94640000Y-55520395D01*
X95453097Y-54707298D01*
X95381514Y-54463329D01*
X95126004Y-54342429D01*
X94851816Y-54273700D01*
X94569488Y-54259783D01*
X94289870Y-54301213D01*
X94023708Y-54396397D01*
X93898486Y-54463329D01*
X93826903Y-54707298D01*
X84260000Y-54707298D01*
X84260000Y-49579872D01*
X87765000Y-49579872D01*
X87765000Y-50020128D01*
X87850890Y-50451925D01*
X88019369Y-50858669D01*
X88263962Y-51224729D01*
X88575271Y-51536038D01*
X88941331Y-51780631D01*
X89348075Y-51949110D01*
X89779872Y-52035000D01*
X90220128Y-52035000D01*
X90651925Y-51949110D01*
X91058669Y-51780631D01*
X91424729Y-51536038D01*
X91736038Y-51224729D01*
X91980631Y-50858669D01*
X92149110Y-50451925D01*
X92235000Y-50020128D01*
X92235000Y-49579872D01*
X92149110Y-49148075D01*
X91980631Y-48741331D01*
X91736038Y-48375271D01*
X91424729Y-48063962D01*
X91058669Y-47819369D01*
X90651925Y-47650890D01*
X90220128Y-47565000D01*
X89779872Y-47565000D01*
X89348075Y-47650890D01*
X88941331Y-47819369D01*
X88575271Y-48063962D01*
X88263962Y-48375271D01*
X88019369Y-48741331D01*
X87850890Y-49148075D01*
X87765000Y-49579872D01*
X84260000Y-49579872D01*
X84260000Y-45460000D01*
X164567581Y-45460000D01*
X164600000Y-45463193D01*
X164632419Y-45460000D01*
X164729383Y-45450450D01*
X164853793Y-45412710D01*
X164968450Y-45351425D01*
X165068948Y-45268948D01*
X165151425Y-45168450D01*
X165212710Y-45053793D01*
X165250450Y-44929383D01*
X165263193Y-44800000D01*
X165260000Y-44767581D01*
X165260000Y-26360000D01*
X166159428Y-26360000D01*
X166159428Y-28841780D01*
X166159428Y-28841780D01*
G37*
X166159428Y-28841780D02*
X166171688Y-28966262D01*
X166207998Y-29085960D01*
X166266963Y-29196274D01*
X166346315Y-29292965D01*
X166443006Y-29372317D01*
X166553320Y-29431282D01*
X166673018Y-29467592D01*
X166797500Y-29479852D01*
X166990000Y-29479852D01*
X166990001Y-39212668D01*
X166986324Y-39250000D01*
X167000998Y-39398985D01*
X167044454Y-39542246D01*
X167115026Y-39674276D01*
X167186201Y-39761002D01*
X167210000Y-39790001D01*
X167238998Y-39813799D01*
X171539489Y-44114292D01*
X171504774Y-44198102D01*
X171465000Y-44398061D01*
X171465000Y-44601939D01*
X171504774Y-44801898D01*
X171582795Y-44990256D01*
X171696063Y-45159774D01*
X171840226Y-45303937D01*
X172009744Y-45417205D01*
X172198102Y-45495226D01*
X172398061Y-45535000D01*
X172601939Y-45535000D01*
X172801898Y-45495226D01*
X172990256Y-45417205D01*
X173159774Y-45303937D01*
X173303937Y-45159774D01*
X173417205Y-44990256D01*
X173495226Y-44801898D01*
X173535000Y-44601939D01*
X173535000Y-44398061D01*
X173495226Y-44198102D01*
X173417205Y-44009744D01*
X173303937Y-43840226D01*
X173220386Y-43756675D01*
X173205546Y-43707753D01*
X173134974Y-43575724D01*
X173076747Y-43504774D01*
X173063799Y-43488996D01*
X173063795Y-43488992D01*
X173040001Y-43459999D01*
X173011009Y-43436206D01*
X168510000Y-38935199D01*
X168510000Y-29479852D01*
X168702500Y-29479852D01*
X168826982Y-29467592D01*
X168946680Y-29431282D01*
X169020000Y-29392091D01*
X169093320Y-29431282D01*
X169213018Y-29467592D01*
X169337500Y-29479852D01*
X169530000Y-29479852D01*
X169530001Y-34816872D01*
X169526324Y-34854204D01*
X169540998Y-35003189D01*
X169584454Y-35146450D01*
X169655026Y-35278480D01*
X169726201Y-35365206D01*
X169750000Y-35394205D01*
X169778998Y-35418003D01*
X177470238Y-43109244D01*
X177470238Y-43171381D01*
X177510012Y-43371340D01*
X177588033Y-43559698D01*
X177701301Y-43729216D01*
X177748642Y-43776557D01*
X167479341Y-54045858D01*
X167427167Y-54050997D01*
X167283906Y-54094454D01*
X167151877Y-54165026D01*
X167036152Y-54259999D01*
X167012354Y-54288997D01*
X161310000Y-59991352D01*
X161310000Y-59647679D01*
X161462752Y-59566031D01*
X161711714Y-59361714D01*
X161916031Y-59112752D01*
X162067852Y-58828715D01*
X162161343Y-58520516D01*
X162185000Y-58280322D01*
X162185000Y-56560000D01*
X162496289Y-56560000D01*
X162540226Y-56603937D01*
X162709744Y-56717205D01*
X162898102Y-56795226D01*
X163098061Y-56835000D01*
X163301939Y-56835000D01*
X163501898Y-56795226D01*
X163690256Y-56717205D01*
X163859774Y-56603937D01*
X164003937Y-56459774D01*
X164117205Y-56290256D01*
X164195226Y-56101898D01*
X164235000Y-55901939D01*
X164235000Y-55698061D01*
X164195226Y-55498102D01*
X164117205Y-55309744D01*
X164003937Y-55140226D01*
X163859774Y-54996063D01*
X163690256Y-54882795D01*
X163501898Y-54804774D01*
X163301939Y-54765000D01*
X163098061Y-54765000D01*
X162898102Y-54804774D01*
X162709744Y-54882795D01*
X162540226Y-54996063D01*
X162496289Y-55040000D01*
X162338650Y-55040000D01*
X160487651Y-53189002D01*
X160463848Y-53159999D01*
X160348123Y-53065026D01*
X160216094Y-52994454D01*
X160072833Y-52950997D01*
X159961180Y-52940000D01*
X159961169Y-52940000D01*
X159923847Y-52936324D01*
X159886525Y-52940000D01*
X134864802Y-52940000D01*
X135203399Y-52799748D01*
X135757812Y-52429302D01*
X136229302Y-51957812D01*
X136599748Y-51403399D01*
X136854917Y-50787368D01*
X136985000Y-50133393D01*
X136985000Y-49898061D01*
X138965000Y-49898061D01*
X138965000Y-50101939D01*
X139004774Y-50301898D01*
X139082795Y-50490256D01*
X139196063Y-50659774D01*
X139340226Y-50803937D01*
X139509744Y-50917205D01*
X139698102Y-50995226D01*
X139898061Y-51035000D01*
X140101939Y-51035000D01*
X140301898Y-50995226D01*
X140490256Y-50917205D01*
X140659774Y-50803937D01*
X140803937Y-50659774D01*
X140917205Y-50490256D01*
X140995226Y-50301898D01*
X141035000Y-50101939D01*
X141035000Y-49898061D01*
X140995226Y-49698102D01*
X140946254Y-49579872D01*
X153565000Y-49579872D01*
X153565000Y-50020128D01*
X153650890Y-50451925D01*
X153819369Y-50858669D01*
X154063962Y-51224729D01*
X154375271Y-51536038D01*
X154741331Y-51780631D01*
X155148075Y-51949110D01*
X155579872Y-52035000D01*
X156020128Y-52035000D01*
X156451925Y-51949110D01*
X156858669Y-51780631D01*
X157224729Y-51536038D01*
X157536038Y-51224729D01*
X157780631Y-50858669D01*
X157949110Y-50451925D01*
X158035000Y-50020128D01*
X158035000Y-49579872D01*
X157949110Y-49148075D01*
X157780631Y-48741331D01*
X157536038Y-48375271D01*
X157224729Y-48063962D01*
X156858669Y-47819369D01*
X156451925Y-47650890D01*
X156020128Y-47565000D01*
X155579872Y-47565000D01*
X155148075Y-47650890D01*
X154741331Y-47819369D01*
X154375271Y-48063962D01*
X154063962Y-48375271D01*
X153819369Y-48741331D01*
X153650890Y-49148075D01*
X153565000Y-49579872D01*
X140946254Y-49579872D01*
X140917205Y-49509744D01*
X140803937Y-49340226D01*
X140659774Y-49196063D01*
X140490256Y-49082795D01*
X140301898Y-49004774D01*
X140101939Y-48965000D01*
X139898061Y-48965000D01*
X139698102Y-49004774D01*
X139509744Y-49082795D01*
X139340226Y-49196063D01*
X139196063Y-49340226D01*
X139082795Y-49509744D01*
X139004774Y-49698102D01*
X138965000Y-49898061D01*
X136985000Y-49898061D01*
X136985000Y-49466607D01*
X136854917Y-48812632D01*
X136599748Y-48196601D01*
X136229302Y-47642188D01*
X135757812Y-47170698D01*
X135203399Y-46800252D01*
X134587368Y-46545083D01*
X133933393Y-46415000D01*
X133266607Y-46415000D01*
X132612632Y-46545083D01*
X131996601Y-46800252D01*
X131442188Y-47170698D01*
X130970698Y-47642188D01*
X130600252Y-48196601D01*
X130345083Y-48812632D01*
X130215000Y-49466607D01*
X130215000Y-50133393D01*
X130345083Y-50787368D01*
X130600252Y-51403399D01*
X130970698Y-51957812D01*
X131442188Y-52429302D01*
X131996601Y-52799748D01*
X132335198Y-52940000D01*
X101257325Y-52940000D01*
X101220000Y-52936324D01*
X101182675Y-52940000D01*
X101182667Y-52940000D01*
X101071014Y-52950997D01*
X100927753Y-52994454D01*
X100795724Y-53065026D01*
X100679999Y-53159999D01*
X100656201Y-53188997D01*
X99543887Y-54301312D01*
X99361335Y-54265000D01*
X99078665Y-54265000D01*
X98801426Y-54320147D01*
X98540273Y-54428320D01*
X98305241Y-54585363D01*
X98105363Y-54785241D01*
X98075000Y-54830683D01*
X98044637Y-54785241D01*
X97844759Y-54585363D01*
X97609727Y-54428320D01*
X97348574Y-54320147D01*
X97071335Y-54265000D01*
X96788665Y-54265000D01*
X96511426Y-54320147D01*
X96250273Y-54428320D01*
X96015241Y-54585363D01*
X95815363Y-54785241D01*
X95728628Y-54915049D01*
X95632702Y-54886903D01*
X94819605Y-55700000D01*
X95632702Y-56513097D01*
X95728628Y-56484951D01*
X95815363Y-56614759D01*
X96015241Y-56814637D01*
X96024059Y-56820529D01*
X95996816Y-56813700D01*
X95714488Y-56799783D01*
X95434870Y-56841213D01*
X95406551Y-56851340D01*
X95453097Y-56692702D01*
X94640000Y-55879605D01*
X93826903Y-56692702D01*
X93898486Y-56936671D01*
X94153996Y-57057571D01*
X94428184Y-57126300D01*
X94710512Y-57140217D01*
X94990130Y-57098787D01*
X95018449Y-57088660D01*
X94971903Y-57247298D01*
X95785000Y-58060395D01*
X96598097Y-57247298D01*
X96551294Y-57087783D01*
X96788665Y-57135000D01*
X97071335Y-57135000D01*
X97177391Y-57113904D01*
X97160241Y-57125363D01*
X96960363Y-57325241D01*
X96873628Y-57455049D01*
X96777702Y-57426903D01*
X95964605Y-58240000D01*
X96777702Y-59053097D01*
X96873628Y-59024951D01*
X96960363Y-59154759D01*
X97160241Y-59354637D01*
X97177391Y-59366096D01*
X97071335Y-59345000D01*
X96788665Y-59345000D01*
X96551294Y-59392217D01*
X96598097Y-59232702D01*
X95785000Y-58419605D01*
X94971903Y-59232702D01*
X95018706Y-59392217D01*
X94781335Y-59345000D01*
X94498665Y-59345000D01*
X94221426Y-59400147D01*
X93960273Y-59508320D01*
X93725241Y-59665363D01*
X93525363Y-59865241D01*
X93368320Y-60100273D01*
X93260147Y-60361426D01*
X93205000Y-60638665D01*
X93205000Y-60921335D01*
X93260147Y-61198574D01*
X93368320Y-61459727D01*
X93525363Y-61694759D01*
X93725241Y-61894637D01*
X93960273Y-62051680D01*
X94221426Y-62159853D01*
X94498665Y-62215000D01*
X94781335Y-62215000D01*
X95058574Y-62159853D01*
X95319727Y-62051680D01*
X95554759Y-61894637D01*
X95754637Y-61694759D01*
X95785000Y-61649317D01*
X95815363Y-61694759D01*
X96015241Y-61894637D01*
X96250273Y-62051680D01*
X96511426Y-62159853D01*
X96788665Y-62215000D01*
X97071335Y-62215000D01*
X97348574Y-62159853D01*
X97609727Y-62051680D01*
X97844759Y-61894637D01*
X98044637Y-61694759D01*
X98075000Y-61649317D01*
X98105363Y-61694759D01*
X98305241Y-61894637D01*
X98540273Y-62051680D01*
X98801426Y-62159853D01*
X99078665Y-62215000D01*
X99361335Y-62215000D01*
X99638574Y-62159853D01*
X99899727Y-62051680D01*
X100134759Y-61894637D01*
X100334637Y-61694759D01*
X100365000Y-61649317D01*
X100395363Y-61694759D01*
X100595241Y-61894637D01*
X100830273Y-62051680D01*
X101091426Y-62159853D01*
X101368665Y-62215000D01*
X101651335Y-62215000D01*
X101928574Y-62159853D01*
X102189727Y-62051680D01*
X102424759Y-61894637D01*
X102624637Y-61694759D01*
X102655000Y-61649317D01*
X102685363Y-61694759D01*
X102885241Y-61894637D01*
X103120273Y-62051680D01*
X103381426Y-62159853D01*
X103658665Y-62215000D01*
X103941335Y-62215000D01*
X104218574Y-62159853D01*
X104479727Y-62051680D01*
X104714759Y-61894637D01*
X104914637Y-61694759D01*
X105071680Y-61459727D01*
X105179853Y-61198574D01*
X105235000Y-60921335D01*
X105235000Y-60638665D01*
X105179853Y-60361426D01*
X105071680Y-60100273D01*
X105063145Y-60087499D01*
X110317106Y-60087499D01*
X110533228Y-60454258D01*
X110993105Y-60694938D01*
X111491098Y-60841275D01*
X112008071Y-60887648D01*
X112524159Y-60832273D01*
X113019526Y-60677279D01*
X113436772Y-60454258D01*
X113652894Y-60087499D01*
X111985000Y-58419605D01*
X110317106Y-60087499D01*
X105063145Y-60087499D01*
X104914637Y-59865241D01*
X104714759Y-59665363D01*
X104705941Y-59659471D01*
X104733184Y-59666300D01*
X105015512Y-59680217D01*
X105295130Y-59638787D01*
X105561292Y-59543603D01*
X105686514Y-59476671D01*
X105758097Y-59232702D01*
X104945000Y-58419605D01*
X104131903Y-59232702D01*
X104178706Y-59392217D01*
X103941335Y-59345000D01*
X103658665Y-59345000D01*
X103421294Y-59392217D01*
X103468097Y-59232702D01*
X102655000Y-58419605D01*
X101841903Y-59232702D01*
X101888706Y-59392217D01*
X101651335Y-59345000D01*
X101368665Y-59345000D01*
X101131294Y-59392217D01*
X101178097Y-59232702D01*
X100365000Y-58419605D01*
X99551903Y-59232702D01*
X99598706Y-59392217D01*
X99361335Y-59345000D01*
X99078665Y-59345000D01*
X98972609Y-59366096D01*
X98989759Y-59354637D01*
X99189637Y-59154759D01*
X99276372Y-59024951D01*
X99372298Y-59053097D01*
X100185395Y-58240000D01*
X100544605Y-58240000D01*
X101357702Y-59053097D01*
X101510000Y-59008411D01*
X101662298Y-59053097D01*
X102475395Y-58240000D01*
X102834605Y-58240000D01*
X103647702Y-59053097D01*
X103800000Y-59008411D01*
X103952298Y-59053097D01*
X104765395Y-58240000D01*
X105124605Y-58240000D01*
X105937702Y-59053097D01*
X106181671Y-58981514D01*
X106302571Y-58726004D01*
X106371300Y-58451816D01*
X106380603Y-58263071D01*
X109337352Y-58263071D01*
X109392727Y-58779159D01*
X109547721Y-59274526D01*
X109770742Y-59691772D01*
X110137501Y-59907894D01*
X111805395Y-58240000D01*
X112164605Y-58240000D01*
X113832499Y-59907894D01*
X114199258Y-59691772D01*
X114439938Y-59231895D01*
X114586275Y-58733902D01*
X114586894Y-58727000D01*
X116761000Y-58727000D01*
X116761000Y-59481000D01*
X116812466Y-59749540D01*
X116915332Y-60002880D01*
X117065646Y-60231284D01*
X117257631Y-60425974D01*
X117483909Y-60579469D01*
X117735785Y-60685870D01*
X117808186Y-60700286D01*
X118023000Y-60577677D01*
X118023000Y-58727000D01*
X116761000Y-58727000D01*
X114586894Y-58727000D01*
X114632648Y-58216929D01*
X114579222Y-57719000D01*
X116761000Y-57719000D01*
X116761000Y-58473000D01*
X118023000Y-58473000D01*
X118023000Y-56622323D01*
X118277000Y-56622323D01*
X118277000Y-58473000D01*
X119539000Y-58473000D01*
X119539000Y-57719000D01*
X119487534Y-57450460D01*
X119384668Y-57197120D01*
X119234354Y-56968716D01*
X119166593Y-56900000D01*
X120450280Y-56900000D01*
X120477098Y-57172291D01*
X120556523Y-57434119D01*
X120685501Y-57675420D01*
X120859077Y-57886923D01*
X121070580Y-58060499D01*
X121311881Y-58189477D01*
X121573709Y-58268902D01*
X121777770Y-58289000D01*
X123422230Y-58289000D01*
X123626291Y-58268902D01*
X123888119Y-58189477D01*
X124129420Y-58060499D01*
X124340923Y-57886923D01*
X124478733Y-57719000D01*
X125361000Y-57719000D01*
X125361000Y-58473000D01*
X126623000Y-58473000D01*
X126623000Y-56622323D01*
X126877000Y-56622323D01*
X126877000Y-58473000D01*
X128139000Y-58473000D01*
X128139000Y-57719000D01*
X128087534Y-57450460D01*
X127984668Y-57197120D01*
X127834354Y-56968716D01*
X127642369Y-56774026D01*
X127416091Y-56620531D01*
X127164215Y-56514130D01*
X127091814Y-56499714D01*
X126877000Y-56622323D01*
X126623000Y-56622323D01*
X126408186Y-56499714D01*
X126335785Y-56514130D01*
X126083909Y-56620531D01*
X125857631Y-56774026D01*
X125665646Y-56968716D01*
X125515332Y-57197120D01*
X125412466Y-57450460D01*
X125361000Y-57719000D01*
X124478733Y-57719000D01*
X124514499Y-57675420D01*
X124643477Y-57434119D01*
X124722902Y-57172291D01*
X124749720Y-56900000D01*
X124722902Y-56627709D01*
X124643477Y-56365881D01*
X124514499Y-56124580D01*
X124340923Y-55913077D01*
X124129420Y-55739501D01*
X123888119Y-55610523D01*
X123626291Y-55531098D01*
X123422230Y-55511000D01*
X121777770Y-55511000D01*
X121573709Y-55531098D01*
X121311881Y-55610523D01*
X121070580Y-55739501D01*
X120859077Y-55913077D01*
X120685501Y-56124580D01*
X120556523Y-56365881D01*
X120477098Y-56627709D01*
X120450280Y-56900000D01*
X119166593Y-56900000D01*
X119042369Y-56774026D01*
X118816091Y-56620531D01*
X118564215Y-56514130D01*
X118491814Y-56499714D01*
X118277000Y-56622323D01*
X118023000Y-56622323D01*
X117808186Y-56499714D01*
X117735785Y-56514130D01*
X117483909Y-56620531D01*
X117257631Y-56774026D01*
X117065646Y-56968716D01*
X116915332Y-57197120D01*
X116812466Y-57450460D01*
X116761000Y-57719000D01*
X114579222Y-57719000D01*
X114577273Y-57700841D01*
X114422279Y-57205474D01*
X114199258Y-56788228D01*
X113832499Y-56572106D01*
X112164605Y-58240000D01*
X111805395Y-58240000D01*
X110137501Y-56572106D01*
X109770742Y-56788228D01*
X109530062Y-57248105D01*
X109383725Y-57746098D01*
X109337352Y-58263071D01*
X106380603Y-58263071D01*
X106385217Y-58169488D01*
X106343787Y-57889870D01*
X106248603Y-57623708D01*
X106181671Y-57498486D01*
X105937702Y-57426903D01*
X105124605Y-58240000D01*
X104765395Y-58240000D01*
X103952298Y-57426903D01*
X103800000Y-57471589D01*
X103647702Y-57426903D01*
X102834605Y-58240000D01*
X102475395Y-58240000D01*
X101662298Y-57426903D01*
X101510000Y-57471589D01*
X101357702Y-57426903D01*
X100544605Y-58240000D01*
X100185395Y-58240000D01*
X99372298Y-57426903D01*
X99276372Y-57455049D01*
X99189637Y-57325241D01*
X98989759Y-57125363D01*
X98972609Y-57113904D01*
X99078665Y-57135000D01*
X99361335Y-57135000D01*
X99598706Y-57087783D01*
X99551903Y-57247298D01*
X100365000Y-58060395D01*
X101178097Y-57247298D01*
X101131294Y-57087783D01*
X101368665Y-57135000D01*
X101651335Y-57135000D01*
X101888706Y-57087783D01*
X101841903Y-57247298D01*
X102655000Y-58060395D01*
X103468097Y-57247298D01*
X103436049Y-57138072D01*
X104163951Y-57138072D01*
X104131903Y-57247298D01*
X104945000Y-58060395D01*
X105758097Y-57247298D01*
X105686514Y-57003329D01*
X105431004Y-56882429D01*
X105156816Y-56813700D01*
X105152457Y-56813485D01*
X105189502Y-56744180D01*
X105225812Y-56624482D01*
X105238072Y-56500000D01*
X105238072Y-56392501D01*
X110317106Y-56392501D01*
X111985000Y-58060395D01*
X113652894Y-56392501D01*
X113436772Y-56025742D01*
X112976895Y-55785062D01*
X112478902Y-55638725D01*
X111961929Y-55592352D01*
X111445841Y-55647727D01*
X110950474Y-55802721D01*
X110533228Y-56025742D01*
X110317106Y-56392501D01*
X105238072Y-56392501D01*
X105238072Y-54910011D01*
X145544590Y-54910011D01*
X145388286Y-55038286D01*
X145183969Y-55287249D01*
X145032148Y-55571286D01*
X144938657Y-55879485D01*
X144915000Y-56119679D01*
X144915001Y-58175079D01*
X144721033Y-58071401D01*
X144441110Y-57986487D01*
X144150000Y-57957815D01*
X143858889Y-57986487D01*
X143578966Y-58071401D01*
X143320986Y-58209294D01*
X143094866Y-58394866D01*
X142909294Y-58620987D01*
X142771401Y-58878967D01*
X142686487Y-59158890D01*
X142665000Y-59377051D01*
X142665001Y-62220896D01*
X142529014Y-62109294D01*
X142271034Y-61971401D01*
X141991111Y-61886487D01*
X141700000Y-61857815D01*
X141408890Y-61886487D01*
X141128967Y-61971401D01*
X140870987Y-62109294D01*
X140644867Y-62294866D01*
X140459295Y-62520986D01*
X140321402Y-62778966D01*
X140236488Y-63058889D01*
X140215000Y-63277050D01*
X140215000Y-65122949D01*
X140236487Y-65341110D01*
X140321401Y-65621033D01*
X140459294Y-65879013D01*
X140644866Y-66105134D01*
X140870986Y-66290706D01*
X140963209Y-66340000D01*
X140514802Y-66340000D01*
X136078802Y-61904000D01*
X137257928Y-61904000D01*
X137270188Y-62028482D01*
X137306498Y-62148180D01*
X137365463Y-62258494D01*
X137444815Y-62355185D01*
X137541506Y-62434537D01*
X137651820Y-62493502D01*
X137771518Y-62529812D01*
X137896000Y-62542072D01*
X138314250Y-62539000D01*
X138473000Y-62380250D01*
X138473000Y-61327000D01*
X138727000Y-61327000D01*
X138727000Y-62380250D01*
X138885750Y-62539000D01*
X139304000Y-62542072D01*
X139428482Y-62529812D01*
X139548180Y-62493502D01*
X139658494Y-62434537D01*
X139755185Y-62355185D01*
X139834537Y-62258494D01*
X139893502Y-62148180D01*
X139929812Y-62028482D01*
X139942072Y-61904000D01*
X139939000Y-61485750D01*
X139780250Y-61327000D01*
X138727000Y-61327000D01*
X138473000Y-61327000D01*
X137419750Y-61327000D01*
X137261000Y-61485750D01*
X137257928Y-61904000D01*
X136078802Y-61904000D01*
X134670802Y-60496000D01*
X137257928Y-60496000D01*
X137261000Y-60914250D01*
X137419750Y-61073000D01*
X138473000Y-61073000D01*
X138473000Y-61053000D01*
X138727000Y-61053000D01*
X138727000Y-61073000D01*
X139780250Y-61073000D01*
X139939000Y-60914250D01*
X139942072Y-60496000D01*
X139929812Y-60371518D01*
X139893502Y-60251820D01*
X139834537Y-60141506D01*
X139755185Y-60044815D01*
X139658494Y-59965463D01*
X139548180Y-59906498D01*
X139428482Y-59870188D01*
X139304000Y-59857928D01*
X139276877Y-59858127D01*
X139453563Y-59740069D01*
X139640069Y-59553563D01*
X139786607Y-59334254D01*
X139887543Y-59090572D01*
X139939000Y-58831880D01*
X139939000Y-58568120D01*
X139887543Y-58309428D01*
X139786607Y-58065746D01*
X139640069Y-57846437D01*
X139453563Y-57659931D01*
X139234254Y-57513393D01*
X138990572Y-57412457D01*
X138731880Y-57361000D01*
X138468120Y-57361000D01*
X138209428Y-57412457D01*
X137965746Y-57513393D01*
X137746437Y-57659931D01*
X137559931Y-57846437D01*
X137413393Y-58065746D01*
X137312457Y-58309428D01*
X137261000Y-58568120D01*
X137261000Y-58831880D01*
X137312457Y-59090572D01*
X137413393Y-59334254D01*
X137559931Y-59553563D01*
X137746437Y-59740069D01*
X137923123Y-59858127D01*
X137896000Y-59857928D01*
X137771518Y-59870188D01*
X137651820Y-59906498D01*
X137541506Y-59965463D01*
X137444815Y-60044815D01*
X137365463Y-60141506D01*
X137306498Y-60251820D01*
X137270188Y-60371518D01*
X137257928Y-60496000D01*
X134670802Y-60496000D01*
X133117047Y-58942246D01*
X133139000Y-58831880D01*
X133139000Y-58568120D01*
X133087543Y-58309428D01*
X132986607Y-58065746D01*
X132840069Y-57846437D01*
X132653563Y-57659931D01*
X132434254Y-57513393D01*
X132190572Y-57412457D01*
X131931880Y-57361000D01*
X131668120Y-57361000D01*
X131409428Y-57412457D01*
X131165746Y-57513393D01*
X130946437Y-57659931D01*
X130759931Y-57846437D01*
X130613393Y-58065746D01*
X130512457Y-58309428D01*
X130461000Y-58568120D01*
X130461000Y-58831880D01*
X130512457Y-59090572D01*
X130613393Y-59334254D01*
X130759931Y-59553563D01*
X130946437Y-59740069D01*
X131165746Y-59886607D01*
X131319086Y-59950122D01*
X131217236Y-59987276D01*
X131115423Y-60041695D01*
X131055477Y-60275872D01*
X131800000Y-61020395D01*
X131814143Y-61006253D01*
X131993748Y-61185858D01*
X131979605Y-61200000D01*
X132724128Y-61944523D01*
X132958305Y-61884577D01*
X133069602Y-61645449D01*
X133132109Y-61389203D01*
X133143425Y-61125686D01*
X133142060Y-61116861D01*
X135640199Y-63615000D01*
X134277050Y-63615000D01*
X134058889Y-63636487D01*
X133778966Y-63721401D01*
X133520986Y-63859294D01*
X133294866Y-64044866D01*
X133109294Y-64270986D01*
X132971401Y-64528966D01*
X132886487Y-64808889D01*
X132857815Y-65100000D01*
X132886487Y-65391111D01*
X132971401Y-65671034D01*
X133109294Y-65929014D01*
X133294866Y-66155134D01*
X133520986Y-66340706D01*
X133778966Y-66478599D01*
X134058889Y-66563513D01*
X134277050Y-66585000D01*
X136122950Y-66585000D01*
X136341111Y-66563513D01*
X136621034Y-66478599D01*
X136879014Y-66340706D01*
X137105134Y-66155134D01*
X137290706Y-65929014D01*
X137428599Y-65671034D01*
X137490889Y-65465691D01*
X139065198Y-67040000D01*
X132614802Y-67040000D01*
X131060000Y-65485199D01*
X131060000Y-62937333D01*
X131063677Y-62900000D01*
X131049003Y-62751014D01*
X131005546Y-62607753D01*
X130934974Y-62475724D01*
X130863799Y-62388997D01*
X130840001Y-62359999D01*
X130811003Y-62336201D01*
X130598930Y-62124128D01*
X131055477Y-62124128D01*
X131115423Y-62358305D01*
X131354551Y-62469602D01*
X131610797Y-62532109D01*
X131874314Y-62543425D01*
X132134976Y-62503114D01*
X132382764Y-62412724D01*
X132484577Y-62358305D01*
X132544523Y-62124128D01*
X131800000Y-61379605D01*
X131055477Y-62124128D01*
X130598930Y-62124128D01*
X129863804Y-61389002D01*
X129840001Y-61359999D01*
X129735594Y-61274314D01*
X130456575Y-61274314D01*
X130496886Y-61534976D01*
X130587276Y-61782764D01*
X130641695Y-61884577D01*
X130875872Y-61944523D01*
X131620395Y-61200000D01*
X130875872Y-60455477D01*
X130641695Y-60515423D01*
X130530398Y-60754551D01*
X130467891Y-61010797D01*
X130456575Y-61274314D01*
X129735594Y-61274314D01*
X129724276Y-61265026D01*
X129592247Y-61194454D01*
X129448986Y-61150997D01*
X129337333Y-61140000D01*
X129337322Y-61140000D01*
X129300000Y-61136324D01*
X129262678Y-61140000D01*
X125491333Y-61140000D01*
X125454000Y-61136323D01*
X125416667Y-61140000D01*
X125305014Y-61150997D01*
X125161753Y-61194454D01*
X125029724Y-61265026D01*
X124913999Y-61359999D01*
X124890201Y-61388997D01*
X124563306Y-61715892D01*
X124514499Y-61624580D01*
X124340923Y-61413077D01*
X124129420Y-61239501D01*
X123888119Y-61110523D01*
X123626291Y-61031098D01*
X123422230Y-61011000D01*
X122650490Y-61011000D01*
X122722902Y-60772291D01*
X122749720Y-60500000D01*
X122722902Y-60227709D01*
X122643477Y-59965881D01*
X122514499Y-59724580D01*
X122340923Y-59513077D01*
X122129420Y-59339501D01*
X121888119Y-59210523D01*
X121626291Y-59131098D01*
X121422230Y-59111000D01*
X119777770Y-59111000D01*
X119573709Y-59131098D01*
X119539000Y-59141627D01*
X119539000Y-58727000D01*
X125361000Y-58727000D01*
X125361000Y-59481000D01*
X125412466Y-59749540D01*
X125515332Y-60002880D01*
X125665646Y-60231284D01*
X125857631Y-60425974D01*
X126083909Y-60579469D01*
X126335785Y-60685870D01*
X126408186Y-60700286D01*
X126623000Y-60577677D01*
X126623000Y-58727000D01*
X126877000Y-58727000D01*
X126877000Y-60577677D01*
X127091814Y-60700286D01*
X127164215Y-60685870D01*
X127416091Y-60579469D01*
X127642369Y-60425974D01*
X127834354Y-60231284D01*
X127984668Y-60002880D01*
X128087534Y-59749540D01*
X128139000Y-59481000D01*
X128139000Y-58727000D01*
X126877000Y-58727000D01*
X126623000Y-58727000D01*
X125361000Y-58727000D01*
X119539000Y-58727000D01*
X118277000Y-58727000D01*
X118277000Y-60577677D01*
X118468707Y-60687097D01*
X118477098Y-60772291D01*
X118556523Y-61034119D01*
X118685501Y-61275420D01*
X118859077Y-61486923D01*
X119070580Y-61660499D01*
X119311881Y-61789477D01*
X119573709Y-61868902D01*
X119777770Y-61889000D01*
X120549510Y-61889000D01*
X120477098Y-62127709D01*
X120450280Y-62400000D01*
X120477098Y-62672291D01*
X120556523Y-62934119D01*
X120685501Y-63175420D01*
X120859077Y-63386923D01*
X121070580Y-63560499D01*
X121311881Y-63689477D01*
X121573709Y-63768902D01*
X121777770Y-63789000D01*
X122490199Y-63789000D01*
X121643025Y-64636174D01*
X121626291Y-64631098D01*
X121422230Y-64611000D01*
X119777770Y-64611000D01*
X119573709Y-64631098D01*
X119311881Y-64710523D01*
X119070580Y-64839501D01*
X118859077Y-65013077D01*
X118685501Y-65224580D01*
X118556523Y-65465881D01*
X118477098Y-65727709D01*
X118450280Y-66000000D01*
X118477098Y-66272291D01*
X118556523Y-66534119D01*
X118685501Y-66775420D01*
X118859077Y-66986923D01*
X119070580Y-67160499D01*
X119311881Y-67289477D01*
X119573709Y-67368902D01*
X119777770Y-67389000D01*
X121009205Y-67389000D01*
X120968716Y-67415646D01*
X120774026Y-67607631D01*
X120620531Y-67833909D01*
X120514130Y-68085785D01*
X120499714Y-68158186D01*
X120622323Y-68373000D01*
X122473000Y-68373000D01*
X122473000Y-68353000D01*
X122727000Y-68353000D01*
X122727000Y-68373000D01*
X124577677Y-68373000D01*
X124700286Y-68158186D01*
X124685870Y-68085785D01*
X124579469Y-67833909D01*
X124425974Y-67607631D01*
X124231284Y-67415646D01*
X124002880Y-67265332D01*
X123749540Y-67162466D01*
X123481000Y-67111000D01*
X122189735Y-67111000D01*
X122340923Y-66986923D01*
X122514499Y-66775420D01*
X122598107Y-66619000D01*
X125361000Y-66619000D01*
X125361000Y-67373000D01*
X126623000Y-67373000D01*
X126623000Y-65522323D01*
X126408186Y-65399714D01*
X126335785Y-65414130D01*
X126083909Y-65520531D01*
X125857631Y-65674026D01*
X125665646Y-65868716D01*
X125515332Y-66097120D01*
X125412466Y-66350460D01*
X125361000Y-66619000D01*
X122598107Y-66619000D01*
X122643477Y-66534119D01*
X122722902Y-66272291D01*
X122749720Y-66000000D01*
X122722902Y-65727709D01*
X122717826Y-65710975D01*
X125768802Y-62660000D01*
X127384990Y-62660000D01*
X127321401Y-62778967D01*
X127236487Y-63058890D01*
X127215000Y-63277051D01*
X127215000Y-65122950D01*
X127236488Y-65341111D01*
X127272516Y-65459880D01*
X127164215Y-65414130D01*
X127091814Y-65399714D01*
X126877000Y-65522323D01*
X126877000Y-67373000D01*
X128139000Y-67373000D01*
X128139000Y-66619000D01*
X128099490Y-66412843D01*
X128128967Y-66428599D01*
X128408890Y-66513513D01*
X128700000Y-66542185D01*
X128991111Y-66513513D01*
X129271034Y-66428599D01*
X129529014Y-66290706D01*
X129648235Y-66192863D01*
X129665026Y-66224276D01*
X129704431Y-66272291D01*
X129759999Y-66340001D01*
X129789003Y-66363804D01*
X131736201Y-68311003D01*
X131759999Y-68340001D01*
X131788997Y-68363799D01*
X131875723Y-68434974D01*
X132007753Y-68505546D01*
X132151014Y-68549003D01*
X132262667Y-68560000D01*
X132262676Y-68560000D01*
X132299999Y-68563676D01*
X132337322Y-68560000D01*
X168962678Y-68560000D01*
X169000000Y-68563676D01*
X169037322Y-68560000D01*
X169037333Y-68560000D01*
X169148986Y-68549003D01*
X169292247Y-68505546D01*
X169424276Y-68434974D01*
X169540001Y-68340001D01*
X169563804Y-68310997D01*
X173297801Y-64577000D01*
X180315000Y-64577000D01*
X180315000Y-65477000D01*
X180373114Y-65813041D01*
X180495670Y-66131288D01*
X180677958Y-66419511D01*
X180912973Y-66666633D01*
X181191683Y-66863157D01*
X181503378Y-67001531D01*
X181653878Y-67039175D01*
X181923000Y-66921125D01*
X181923000Y-64577000D01*
X180315000Y-64577000D01*
X173297801Y-64577000D01*
X174451801Y-63423000D01*
X180315000Y-63423000D01*
X180315000Y-64323000D01*
X181923000Y-64323000D01*
X181923000Y-61978875D01*
X181653878Y-61860825D01*
X181503378Y-61898469D01*
X181191683Y-62036843D01*
X180912973Y-62233367D01*
X180677958Y-62480489D01*
X180495670Y-62768712D01*
X180373114Y-63086959D01*
X180315000Y-63423000D01*
X174451801Y-63423000D01*
X175061003Y-62813799D01*
X175090001Y-62790001D01*
X175184974Y-62674276D01*
X175255546Y-62542247D01*
X175299003Y-62398986D01*
X175310000Y-62287333D01*
X175310000Y-62287324D01*
X175313676Y-62250001D01*
X175310000Y-62212678D01*
X175310000Y-59647679D01*
X175462752Y-59566031D01*
X175711714Y-59361714D01*
X175916031Y-59112752D01*
X176067852Y-58828715D01*
X176161343Y-58520516D01*
X176185000Y-58280322D01*
X176185000Y-56119678D01*
X176161343Y-55879484D01*
X176067852Y-55571285D01*
X175916031Y-55287248D01*
X175711714Y-55038286D01*
X175615486Y-54959315D01*
X181186013Y-49388789D01*
X181215011Y-49364991D01*
X181309984Y-49249266D01*
X181380556Y-49117237D01*
X181424013Y-48973976D01*
X181435010Y-48862323D01*
X181435010Y-48862314D01*
X181438686Y-48824991D01*
X181435010Y-48787668D01*
X181435010Y-29476650D01*
X181526982Y-29467592D01*
X181646680Y-29431282D01*
X181756994Y-29372317D01*
X181853685Y-29292965D01*
X181933037Y-29196274D01*
X181992002Y-29085960D01*
X182028312Y-28966262D01*
X182040572Y-28841780D01*
X182040572Y-26360000D01*
X182940000Y-26360000D01*
X182940001Y-44767572D01*
X182940000Y-44767582D01*
X182940000Y-54821809D01*
X182678714Y-54682148D01*
X182370515Y-54588657D01*
X182050000Y-54557089D01*
X181729484Y-54588657D01*
X181421285Y-54682148D01*
X181137248Y-54833969D01*
X180888286Y-55038286D01*
X180683969Y-55287249D01*
X180532148Y-55571286D01*
X180438657Y-55879485D01*
X180415000Y-56119679D01*
X180415001Y-58280322D01*
X180438658Y-58520516D01*
X180532149Y-58828715D01*
X180683970Y-59112752D01*
X180888287Y-59361714D01*
X181137249Y-59566031D01*
X181421286Y-59717852D01*
X181729485Y-59811343D01*
X182050000Y-59842911D01*
X182370516Y-59811343D01*
X182678715Y-59717852D01*
X182940001Y-59578192D01*
X182940001Y-62059184D01*
X182908317Y-62036843D01*
X182596622Y-61898469D01*
X182446122Y-61860825D01*
X182177000Y-61978875D01*
X182177000Y-64323000D01*
X182197000Y-64323000D01*
X182197000Y-64577000D01*
X182177000Y-64577000D01*
X182177000Y-66921125D01*
X182446122Y-67039175D01*
X182596622Y-67001531D01*
X182908317Y-66863157D01*
X182940001Y-66840816D01*
X182940001Y-69040000D01*
X127894429Y-69040000D01*
X127984668Y-68902880D01*
X128087534Y-68649540D01*
X128139000Y-68381000D01*
X128139000Y-67627000D01*
X126877000Y-67627000D01*
X126877000Y-67647000D01*
X126623000Y-67647000D01*
X126623000Y-67627000D01*
X125361000Y-67627000D01*
X125361000Y-68381000D01*
X125412466Y-68649540D01*
X125515332Y-68902880D01*
X125605571Y-69040000D01*
X124632734Y-69040000D01*
X124685870Y-68914215D01*
X124700286Y-68841814D01*
X124577677Y-68627000D01*
X122727000Y-68627000D01*
X122727000Y-68647000D01*
X122473000Y-68647000D01*
X122473000Y-68627000D01*
X120622323Y-68627000D01*
X120499714Y-68841814D01*
X120514130Y-68914215D01*
X120567266Y-69040000D01*
X84260000Y-69040000D01*
X84260000Y-60087499D01*
X85317106Y-60087499D01*
X85533228Y-60454258D01*
X85993105Y-60694938D01*
X86491098Y-60841275D01*
X87008071Y-60887648D01*
X87524159Y-60832273D01*
X88019526Y-60677279D01*
X88436772Y-60454258D01*
X88652894Y-60087499D01*
X86985000Y-58419605D01*
X85317106Y-60087499D01*
X84260000Y-60087499D01*
X84260000Y-58263071D01*
X84337352Y-58263071D01*
X84392727Y-58779159D01*
X84547721Y-59274526D01*
X84770742Y-59691772D01*
X85137501Y-59907894D01*
X86805395Y-58240000D01*
X87164605Y-58240000D01*
X88832499Y-59907894D01*
X89199258Y-59691772D01*
X89439938Y-59231895D01*
X89586275Y-58733902D01*
X89624253Y-58310512D01*
X94344783Y-58310512D01*
X94386213Y-58590130D01*
X94481397Y-58856292D01*
X94548329Y-58981514D01*
X94792298Y-59053097D01*
X95605395Y-58240000D01*
X94792298Y-57426903D01*
X94548329Y-57498486D01*
X94427429Y-57753996D01*
X94358700Y-58028184D01*
X94344783Y-58310512D01*
X89624253Y-58310512D01*
X89632648Y-58216929D01*
X89577273Y-57700841D01*
X89422279Y-57205474D01*
X89199258Y-56788228D01*
X88832499Y-56572106D01*
X87164605Y-58240000D01*
X86805395Y-58240000D01*
X85137501Y-56572106D01*
X84770742Y-56788228D01*
X84530062Y-57248105D01*
X84383725Y-57746098D01*
X84337352Y-58263071D01*
X84260000Y-58263071D01*
X84260000Y-56392501D01*
X85317106Y-56392501D01*
X86985000Y-58060395D01*
X88652894Y-56392501D01*
X88436772Y-56025742D01*
X87976895Y-55785062D01*
X87927381Y-55770512D01*
X93199783Y-55770512D01*
X93241213Y-56050130D01*
X93336397Y-56316292D01*
X93403329Y-56441514D01*
X93647298Y-56513097D01*
X94460395Y-55700000D01*
X93647298Y-54886903D01*
X93403329Y-54958486D01*
X93282429Y-55213996D01*
X93213700Y-55488184D01*
X93199783Y-55770512D01*
X87927381Y-55770512D01*
X87478902Y-55638725D01*
X86961929Y-55592352D01*
X86445841Y-55647727D01*
X85950474Y-55802721D01*
X85533228Y-56025742D01*
X85317106Y-56392501D01*
X84260000Y-56392501D01*
X84260000Y-54707298D01*
X93826903Y-54707298D01*
X94640000Y-55520395D01*
X95453097Y-54707298D01*
X95381514Y-54463329D01*
X95126004Y-54342429D01*
X94851816Y-54273700D01*
X94569488Y-54259783D01*
X94289870Y-54301213D01*
X94023708Y-54396397D01*
X93898486Y-54463329D01*
X93826903Y-54707298D01*
X84260000Y-54707298D01*
X84260000Y-49579872D01*
X87765000Y-49579872D01*
X87765000Y-50020128D01*
X87850890Y-50451925D01*
X88019369Y-50858669D01*
X88263962Y-51224729D01*
X88575271Y-51536038D01*
X88941331Y-51780631D01*
X89348075Y-51949110D01*
X89779872Y-52035000D01*
X90220128Y-52035000D01*
X90651925Y-51949110D01*
X91058669Y-51780631D01*
X91424729Y-51536038D01*
X91736038Y-51224729D01*
X91980631Y-50858669D01*
X92149110Y-50451925D01*
X92235000Y-50020128D01*
X92235000Y-49579872D01*
X92149110Y-49148075D01*
X91980631Y-48741331D01*
X91736038Y-48375271D01*
X91424729Y-48063962D01*
X91058669Y-47819369D01*
X90651925Y-47650890D01*
X90220128Y-47565000D01*
X89779872Y-47565000D01*
X89348075Y-47650890D01*
X88941331Y-47819369D01*
X88575271Y-48063962D01*
X88263962Y-48375271D01*
X88019369Y-48741331D01*
X87850890Y-49148075D01*
X87765000Y-49579872D01*
X84260000Y-49579872D01*
X84260000Y-45460000D01*
X164567581Y-45460000D01*
X164600000Y-45463193D01*
X164632419Y-45460000D01*
X164729383Y-45450450D01*
X164853793Y-45412710D01*
X164968450Y-45351425D01*
X165068948Y-45268948D01*
X165151425Y-45168450D01*
X165212710Y-45053793D01*
X165250450Y-44929383D01*
X165263193Y-44800000D01*
X165260000Y-44767581D01*
X165260000Y-26360000D01*
X166159428Y-26360000D01*
X166159428Y-28841780D01*
G36*
X179915011Y-48510187D02*
G01*
X174039003Y-54386196D01*
X174009999Y-54409999D01*
X173978144Y-54448815D01*
X173915026Y-54525724D01*
X173871179Y-54607755D01*
X173844454Y-54657754D01*
X173820754Y-54735883D01*
X173637248Y-54833969D01*
X173388286Y-55038286D01*
X173183969Y-55287249D01*
X173032148Y-55571286D01*
X172938657Y-55879485D01*
X172915000Y-56119679D01*
X172915001Y-58280322D01*
X172938658Y-58520516D01*
X173032149Y-58828715D01*
X173183970Y-59112752D01*
X173388287Y-59361714D01*
X173637249Y-59566031D01*
X173790000Y-59647678D01*
X173790001Y-61935197D01*
X169610855Y-66114344D01*
X169726886Y-65813041D01*
X169785000Y-65477000D01*
X169785000Y-64577000D01*
X168177000Y-64577000D01*
X168177000Y-64597000D01*
X167923000Y-64597000D01*
X167923000Y-64577000D01*
X166315000Y-64577000D01*
X166315000Y-65477000D01*
X166373114Y-65813041D01*
X166495670Y-66131288D01*
X166677958Y-66419511D01*
X166912973Y-66666633D01*
X167191683Y-66863157D01*
X167503378Y-67001531D01*
X167653878Y-67039175D01*
X167922998Y-66921126D01*
X167922998Y-67040000D01*
X156507803Y-67040000D01*
X158536004Y-65011800D01*
X158565002Y-64988002D01*
X158588800Y-64959004D01*
X158659975Y-64872278D01*
X158730547Y-64740248D01*
X158739186Y-64711768D01*
X160027954Y-63423000D01*
X166315000Y-63423000D01*
X166315000Y-64323000D01*
X167923000Y-64323000D01*
X167923000Y-61978875D01*
X168177000Y-61978875D01*
X168177000Y-64323000D01*
X169785000Y-64323000D01*
X169785000Y-63423000D01*
X169726886Y-63086959D01*
X169604330Y-62768712D01*
X169422042Y-62480489D01*
X169187027Y-62233367D01*
X168908317Y-62036843D01*
X168596622Y-61898469D01*
X168446122Y-61860825D01*
X168177000Y-61978875D01*
X167923000Y-61978875D01*
X167653878Y-61860825D01*
X167503378Y-61898469D01*
X167191683Y-62036843D01*
X166912973Y-62233367D01*
X166677958Y-62480489D01*
X166495670Y-62768712D01*
X166373114Y-63086959D01*
X166315000Y-63423000D01*
X160027954Y-63423000D01*
X166415000Y-57035954D01*
X166415001Y-58280322D01*
X166438658Y-58520516D01*
X166532149Y-58828715D01*
X166683970Y-59112752D01*
X166888287Y-59361714D01*
X167137249Y-59566031D01*
X167421286Y-59717852D01*
X167729485Y-59811343D01*
X168050000Y-59842911D01*
X168370516Y-59811343D01*
X168678715Y-59717852D01*
X168962752Y-59566031D01*
X169211714Y-59361714D01*
X169416031Y-59112752D01*
X169567852Y-58828715D01*
X169661343Y-58520516D01*
X169685000Y-58280322D01*
X169685000Y-56119678D01*
X169661343Y-55879484D01*
X169567852Y-55571285D01*
X169416031Y-55287248D01*
X169211714Y-55038286D01*
X168962751Y-54833969D01*
X168883300Y-54791501D01*
X179915011Y-43759791D01*
X179915011Y-48510187D01*
X179915011Y-48510187D01*
G37*
X179915011Y-48510187D02*
X174039003Y-54386196D01*
X174009999Y-54409999D01*
X173978144Y-54448815D01*
X173915026Y-54525724D01*
X173871179Y-54607755D01*
X173844454Y-54657754D01*
X173820754Y-54735883D01*
X173637248Y-54833969D01*
X173388286Y-55038286D01*
X173183969Y-55287249D01*
X173032148Y-55571286D01*
X172938657Y-55879485D01*
X172915000Y-56119679D01*
X172915001Y-58280322D01*
X172938658Y-58520516D01*
X173032149Y-58828715D01*
X173183970Y-59112752D01*
X173388287Y-59361714D01*
X173637249Y-59566031D01*
X173790000Y-59647678D01*
X173790001Y-61935197D01*
X169610855Y-66114344D01*
X169726886Y-65813041D01*
X169785000Y-65477000D01*
X169785000Y-64577000D01*
X168177000Y-64577000D01*
X168177000Y-64597000D01*
X167923000Y-64597000D01*
X167923000Y-64577000D01*
X166315000Y-64577000D01*
X166315000Y-65477000D01*
X166373114Y-65813041D01*
X166495670Y-66131288D01*
X166677958Y-66419511D01*
X166912973Y-66666633D01*
X167191683Y-66863157D01*
X167503378Y-67001531D01*
X167653878Y-67039175D01*
X167922998Y-66921126D01*
X167922998Y-67040000D01*
X156507803Y-67040000D01*
X158536004Y-65011800D01*
X158565002Y-64988002D01*
X158588800Y-64959004D01*
X158659975Y-64872278D01*
X158730547Y-64740248D01*
X158739186Y-64711768D01*
X160027954Y-63423000D01*
X166315000Y-63423000D01*
X166315000Y-64323000D01*
X167923000Y-64323000D01*
X167923000Y-61978875D01*
X168177000Y-61978875D01*
X168177000Y-64323000D01*
X169785000Y-64323000D01*
X169785000Y-63423000D01*
X169726886Y-63086959D01*
X169604330Y-62768712D01*
X169422042Y-62480489D01*
X169187027Y-62233367D01*
X168908317Y-62036843D01*
X168596622Y-61898469D01*
X168446122Y-61860825D01*
X168177000Y-61978875D01*
X167923000Y-61978875D01*
X167653878Y-61860825D01*
X167503378Y-61898469D01*
X167191683Y-62036843D01*
X166912973Y-62233367D01*
X166677958Y-62480489D01*
X166495670Y-62768712D01*
X166373114Y-63086959D01*
X166315000Y-63423000D01*
X160027954Y-63423000D01*
X166415000Y-57035954D01*
X166415001Y-58280322D01*
X166438658Y-58520516D01*
X166532149Y-58828715D01*
X166683970Y-59112752D01*
X166888287Y-59361714D01*
X167137249Y-59566031D01*
X167421286Y-59717852D01*
X167729485Y-59811343D01*
X168050000Y-59842911D01*
X168370516Y-59811343D01*
X168678715Y-59717852D01*
X168962752Y-59566031D01*
X169211714Y-59361714D01*
X169416031Y-59112752D01*
X169567852Y-58828715D01*
X169661343Y-58520516D01*
X169685000Y-58280322D01*
X169685000Y-56119678D01*
X169661343Y-55879484D01*
X169567852Y-55571285D01*
X169416031Y-55287248D01*
X169211714Y-55038286D01*
X168962751Y-54833969D01*
X168883300Y-54791501D01*
X179915011Y-43759791D01*
X179915011Y-48510187D01*
G36*
X159862575Y-54713529D02*
G01*
X159637248Y-54833969D01*
X159388286Y-55038286D01*
X159183969Y-55287249D01*
X159032148Y-55571286D01*
X158938657Y-55879485D01*
X158915000Y-56119679D01*
X158915001Y-58280322D01*
X158938658Y-58520516D01*
X159032149Y-58828715D01*
X159183970Y-59112752D01*
X159388287Y-59361714D01*
X159637249Y-59566031D01*
X159790001Y-59647679D01*
X159790001Y-60135197D01*
X157060199Y-62865000D01*
X156998061Y-62865000D01*
X156798102Y-62904774D01*
X156609744Y-62982795D01*
X156440226Y-63096063D01*
X156296063Y-63240226D01*
X156182795Y-63409744D01*
X156104774Y-63598102D01*
X156065000Y-63798061D01*
X156065000Y-64001939D01*
X156104774Y-64201898D01*
X156182795Y-64390256D01*
X156296063Y-64559774D01*
X156440226Y-64703937D01*
X156592510Y-64805690D01*
X155756521Y-65641680D01*
X155785000Y-65477000D01*
X155785000Y-64577000D01*
X154177000Y-64577000D01*
X154177000Y-64597000D01*
X153923000Y-64597000D01*
X153923000Y-64577000D01*
X152315000Y-64577000D01*
X152315000Y-65477000D01*
X152373114Y-65813041D01*
X152495670Y-66131288D01*
X152627671Y-66340000D01*
X142436790Y-66340000D01*
X142529013Y-66290706D01*
X142755134Y-66105134D01*
X142940706Y-65879014D01*
X143078599Y-65621034D01*
X143163513Y-65341111D01*
X143185000Y-65122950D01*
X143185000Y-63579104D01*
X143320987Y-63690706D01*
X143578967Y-63828599D01*
X143858890Y-63913513D01*
X144150000Y-63942185D01*
X144441111Y-63913513D01*
X144721034Y-63828599D01*
X144979014Y-63690706D01*
X145205134Y-63505134D01*
X145272539Y-63423000D01*
X152315000Y-63423000D01*
X152315000Y-64323000D01*
X153923000Y-64323000D01*
X153923000Y-61978875D01*
X154177000Y-61978875D01*
X154177000Y-64323000D01*
X155785000Y-64323000D01*
X155785000Y-63423000D01*
X155726886Y-63086959D01*
X155604330Y-62768712D01*
X155422042Y-62480489D01*
X155187027Y-62233367D01*
X154908317Y-62036843D01*
X154596622Y-61898469D01*
X154446122Y-61860825D01*
X154177000Y-61978875D01*
X153923000Y-61978875D01*
X153653878Y-61860825D01*
X153503378Y-61898469D01*
X153191683Y-62036843D01*
X152912973Y-62233367D01*
X152677958Y-62480489D01*
X152495670Y-62768712D01*
X152373114Y-63086959D01*
X152315000Y-63423000D01*
X145272539Y-63423000D01*
X145390706Y-63279014D01*
X145528599Y-63021034D01*
X145613513Y-62741111D01*
X145635000Y-62522950D01*
X145635000Y-59564185D01*
X145637249Y-59566031D01*
X145921286Y-59717852D01*
X146229485Y-59811343D01*
X146550000Y-59842911D01*
X146870516Y-59811343D01*
X147178715Y-59717852D01*
X147462752Y-59566031D01*
X147711714Y-59361714D01*
X147916031Y-59112752D01*
X148067852Y-58828715D01*
X148161343Y-58520516D01*
X148185000Y-58280322D01*
X148185000Y-56119678D01*
X148161343Y-55879484D01*
X148067852Y-55571285D01*
X147916031Y-55287248D01*
X147711714Y-55038286D01*
X147555409Y-54910011D01*
X149435210Y-54910011D01*
X152236201Y-57711003D01*
X152259999Y-57740001D01*
X152375724Y-57834974D01*
X152415001Y-57855968D01*
X152415001Y-58280322D01*
X152438658Y-58520516D01*
X152532149Y-58828715D01*
X152683970Y-59112752D01*
X152888287Y-59361714D01*
X153137249Y-59566031D01*
X153421286Y-59717852D01*
X153729485Y-59811343D01*
X154050000Y-59842911D01*
X154370516Y-59811343D01*
X154678715Y-59717852D01*
X154962752Y-59566031D01*
X155211714Y-59361714D01*
X155416031Y-59112752D01*
X155567852Y-58828715D01*
X155661343Y-58520516D01*
X155685000Y-58280322D01*
X155685000Y-56119678D01*
X155661343Y-55879484D01*
X155567852Y-55571285D01*
X155416031Y-55287248D01*
X155211714Y-55038286D01*
X154962751Y-54833969D01*
X154678714Y-54682148D01*
X154370515Y-54588657D01*
X154050000Y-54557089D01*
X153729484Y-54588657D01*
X153421285Y-54682148D01*
X153137248Y-54833969D01*
X152888286Y-55038286D01*
X152683969Y-55287249D01*
X152532148Y-55571286D01*
X152465569Y-55790767D01*
X151134801Y-54460000D01*
X159609046Y-54460000D01*
X159862575Y-54713529D01*
X159862575Y-54713529D01*
G37*
X159862575Y-54713529D02*
X159637248Y-54833969D01*
X159388286Y-55038286D01*
X159183969Y-55287249D01*
X159032148Y-55571286D01*
X158938657Y-55879485D01*
X158915000Y-56119679D01*
X158915001Y-58280322D01*
X158938658Y-58520516D01*
X159032149Y-58828715D01*
X159183970Y-59112752D01*
X159388287Y-59361714D01*
X159637249Y-59566031D01*
X159790001Y-59647679D01*
X159790001Y-60135197D01*
X157060199Y-62865000D01*
X156998061Y-62865000D01*
X156798102Y-62904774D01*
X156609744Y-62982795D01*
X156440226Y-63096063D01*
X156296063Y-63240226D01*
X156182795Y-63409744D01*
X156104774Y-63598102D01*
X156065000Y-63798061D01*
X156065000Y-64001939D01*
X156104774Y-64201898D01*
X156182795Y-64390256D01*
X156296063Y-64559774D01*
X156440226Y-64703937D01*
X156592510Y-64805690D01*
X155756521Y-65641680D01*
X155785000Y-65477000D01*
X155785000Y-64577000D01*
X154177000Y-64577000D01*
X154177000Y-64597000D01*
X153923000Y-64597000D01*
X153923000Y-64577000D01*
X152315000Y-64577000D01*
X152315000Y-65477000D01*
X152373114Y-65813041D01*
X152495670Y-66131288D01*
X152627671Y-66340000D01*
X142436790Y-66340000D01*
X142529013Y-66290706D01*
X142755134Y-66105134D01*
X142940706Y-65879014D01*
X143078599Y-65621034D01*
X143163513Y-65341111D01*
X143185000Y-65122950D01*
X143185000Y-63579104D01*
X143320987Y-63690706D01*
X143578967Y-63828599D01*
X143858890Y-63913513D01*
X144150000Y-63942185D01*
X144441111Y-63913513D01*
X144721034Y-63828599D01*
X144979014Y-63690706D01*
X145205134Y-63505134D01*
X145272539Y-63423000D01*
X152315000Y-63423000D01*
X152315000Y-64323000D01*
X153923000Y-64323000D01*
X153923000Y-61978875D01*
X154177000Y-61978875D01*
X154177000Y-64323000D01*
X155785000Y-64323000D01*
X155785000Y-63423000D01*
X155726886Y-63086959D01*
X155604330Y-62768712D01*
X155422042Y-62480489D01*
X155187027Y-62233367D01*
X154908317Y-62036843D01*
X154596622Y-61898469D01*
X154446122Y-61860825D01*
X154177000Y-61978875D01*
X153923000Y-61978875D01*
X153653878Y-61860825D01*
X153503378Y-61898469D01*
X153191683Y-62036843D01*
X152912973Y-62233367D01*
X152677958Y-62480489D01*
X152495670Y-62768712D01*
X152373114Y-63086959D01*
X152315000Y-63423000D01*
X145272539Y-63423000D01*
X145390706Y-63279014D01*
X145528599Y-63021034D01*
X145613513Y-62741111D01*
X145635000Y-62522950D01*
X145635000Y-59564185D01*
X145637249Y-59566031D01*
X145921286Y-59717852D01*
X146229485Y-59811343D01*
X146550000Y-59842911D01*
X146870516Y-59811343D01*
X147178715Y-59717852D01*
X147462752Y-59566031D01*
X147711714Y-59361714D01*
X147916031Y-59112752D01*
X148067852Y-58828715D01*
X148161343Y-58520516D01*
X148185000Y-58280322D01*
X148185000Y-56119678D01*
X148161343Y-55879484D01*
X148067852Y-55571285D01*
X147916031Y-55287248D01*
X147711714Y-55038286D01*
X147555409Y-54910011D01*
X149435210Y-54910011D01*
X152236201Y-57711003D01*
X152259999Y-57740001D01*
X152375724Y-57834974D01*
X152415001Y-57855968D01*
X152415001Y-58280322D01*
X152438658Y-58520516D01*
X152532149Y-58828715D01*
X152683970Y-59112752D01*
X152888287Y-59361714D01*
X153137249Y-59566031D01*
X153421286Y-59717852D01*
X153729485Y-59811343D01*
X154050000Y-59842911D01*
X154370516Y-59811343D01*
X154678715Y-59717852D01*
X154962752Y-59566031D01*
X155211714Y-59361714D01*
X155416031Y-59112752D01*
X155567852Y-58828715D01*
X155661343Y-58520516D01*
X155685000Y-58280322D01*
X155685000Y-56119678D01*
X155661343Y-55879484D01*
X155567852Y-55571285D01*
X155416031Y-55287248D01*
X155211714Y-55038286D01*
X154962751Y-54833969D01*
X154678714Y-54682148D01*
X154370515Y-54588657D01*
X154050000Y-54557089D01*
X153729484Y-54588657D01*
X153421285Y-54682148D01*
X153137248Y-54833969D01*
X152888286Y-55038286D01*
X152683969Y-55287249D01*
X152532148Y-55571286D01*
X152465569Y-55790767D01*
X151134801Y-54460000D01*
X159609046Y-54460000D01*
X159862575Y-54713529D01*
G36*
X172957000Y-27173000D02*
G01*
X172977000Y-27173000D01*
X172977000Y-27427000D01*
X172957000Y-27427000D01*
X172957000Y-29318030D01*
X173115750Y-29476780D01*
X173782500Y-29479852D01*
X173906982Y-29467592D01*
X174026680Y-29431282D01*
X174100000Y-29392091D01*
X174173320Y-29431282D01*
X174293018Y-29467592D01*
X174417500Y-29479852D01*
X174715674Y-29479852D01*
X174735026Y-29516056D01*
X174806201Y-29602782D01*
X174830000Y-29631781D01*
X174858998Y-29655579D01*
X179140000Y-33936583D01*
X179140001Y-42248793D01*
X178995494Y-42152237D01*
X178807136Y-42074216D01*
X178607177Y-42034442D01*
X178545040Y-42034442D01*
X171050000Y-34539403D01*
X171050000Y-29479852D01*
X171242500Y-29479852D01*
X171366982Y-29467592D01*
X171486680Y-29431282D01*
X171560000Y-29392091D01*
X171633320Y-29431282D01*
X171753018Y-29467592D01*
X171877500Y-29479852D01*
X172544250Y-29476780D01*
X172703000Y-29318030D01*
X172703000Y-27427000D01*
X172683000Y-27427000D01*
X172683000Y-27173000D01*
X172703000Y-27173000D01*
X172703000Y-27153000D01*
X172957000Y-27153000D01*
X172957000Y-27173000D01*
X172957000Y-27173000D01*
G37*
X172957000Y-27173000D02*
X172977000Y-27173000D01*
X172977000Y-27427000D01*
X172957000Y-27427000D01*
X172957000Y-29318030D01*
X173115750Y-29476780D01*
X173782500Y-29479852D01*
X173906982Y-29467592D01*
X174026680Y-29431282D01*
X174100000Y-29392091D01*
X174173320Y-29431282D01*
X174293018Y-29467592D01*
X174417500Y-29479852D01*
X174715674Y-29479852D01*
X174735026Y-29516056D01*
X174806201Y-29602782D01*
X174830000Y-29631781D01*
X174858998Y-29655579D01*
X179140000Y-33936583D01*
X179140001Y-42248793D01*
X178995494Y-42152237D01*
X178807136Y-42074216D01*
X178607177Y-42034442D01*
X178545040Y-42034442D01*
X171050000Y-34539403D01*
X171050000Y-29479852D01*
X171242500Y-29479852D01*
X171366982Y-29467592D01*
X171486680Y-29431282D01*
X171560000Y-29392091D01*
X171633320Y-29431282D01*
X171753018Y-29467592D01*
X171877500Y-29479852D01*
X172544250Y-29476780D01*
X172703000Y-29318030D01*
X172703000Y-27427000D01*
X172683000Y-27427000D01*
X172683000Y-27173000D01*
X172703000Y-27173000D01*
X172703000Y-27153000D01*
X172957000Y-27153000D01*
X172957000Y-27173000D01*
G36*
X179253320Y-29431282D02*
G01*
X179373018Y-29467592D01*
X179497500Y-29479852D01*
X179795674Y-29479852D01*
X179815026Y-29516056D01*
X179886201Y-29602782D01*
X179910000Y-29631781D01*
X179915010Y-29635893D01*
X179915010Y-32561987D01*
X176815212Y-29462191D01*
X176833018Y-29467592D01*
X176957500Y-29479852D01*
X178862500Y-29479852D01*
X178986982Y-29467592D01*
X179106680Y-29431282D01*
X179180000Y-29392091D01*
X179253320Y-29431282D01*
X179253320Y-29431282D01*
G37*
X179253320Y-29431282D02*
X179373018Y-29467592D01*
X179497500Y-29479852D01*
X179795674Y-29479852D01*
X179815026Y-29516056D01*
X179886201Y-29602782D01*
X179910000Y-29631781D01*
X179915010Y-29635893D01*
X179915010Y-32561987D01*
X176815212Y-29462191D01*
X176833018Y-29467592D01*
X176957500Y-29479852D01*
X178862500Y-29479852D01*
X178986982Y-29467592D01*
X179106680Y-29431282D01*
X179180000Y-29392091D01*
X179253320Y-29431282D01*
M02*
