M48
; DRILL file {KiCad (5.1.0)-1} date 7/6/2019 1:04:16 PM
; FORMAT={-:-/ absolute / inch / decimal}
; #@! TF.CreationDate,2019-07-06T13:04:16-04:00
; #@! TF.GenerationSoftware,Kicad,Pcbnew,(5.1.0)-1
FMAT,2
INCH
T1C0.0157
T2C0.0276
T3C0.0354
T4C0.0394
T5C0.0512
T6C0.0591
T7C0.1260
T8C0.0669
T9C0.1260
T10C0.2165
%
G90
G05
T1
X3.3465Y-1.9685
X3.3465Y-2.1654
X3.3465Y-2.5591
X3.5433Y-2.1654
X3.5433Y-2.5591
X3.7402Y-1.9685
X3.7402Y-2.5591
X3.937Y-2.5591
X4.1339Y-2.5591
X4.3307Y-1.9685
X4.3307Y-2.5591
X4.5276Y-1.9685
X4.5276Y-2.5591
X4.7244Y-1.9685
X4.9213Y-1.9685
X4.9213Y-2.5591
X5.5118Y-1.9685
X5.6535Y-2.2165
X5.7087Y-1.9685
X5.7087Y-2.5591
X5.9055Y-1.9685
X5.9055Y-2.2835
X5.9055Y-2.5591
X6.185Y-2.5157
X6.2047Y-2.248
X6.2992Y-1.9685
X6.2992Y-2.5591
X6.4252Y-2.1969
X6.437Y-2.1142
X6.4961Y-2.5591
X6.5354Y-2.3031
X6.5472Y-1.4134
X6.6457Y-1.7598
X6.6575Y-1.4409
X6.6929Y-2.5591
X6.7047Y-1.8898
X6.7205Y-2.1811
X6.7835Y-2.3031
X6.7874Y-1.5394
X6.7913Y-1.752
X6.8898Y-1.7205
X6.8898Y-2.5591
X6.9882Y-1.874
X7.0278Y-1.6956
X7.0354Y-2.2362
X7.0394Y-1.4449
X7.0591Y-1.2008
X7.0866Y-2.5591
X7.1811Y-1.9331
T3
X5.189Y-2.311
X5.189Y-2.4094
X5.4567Y-2.311
X5.4567Y-2.4094
T4
X3.726Y-2.1929
X3.726Y-2.3929
X3.7711Y-2.2929
X3.8161Y-2.1929
X3.8161Y-2.3929
X3.8612Y-2.2929
X3.9063Y-2.1929
X3.9063Y-2.3929
X3.9514Y-2.2929
X3.9965Y-2.1929
X3.9965Y-2.3929
X4.0415Y-2.2929
X4.0866Y-2.1929
X4.0866Y-2.3929
X4.1317Y-2.2929
T5
X5.7697Y-2.252
X6.065Y-2.252
X6.3209Y-2.252
X6.6161Y-2.252
X6.872Y-2.252
X7.1673Y-2.252
T6
X6.065Y-2.5374
X6.6161Y-2.5374
X7.1673Y-2.5374
T7
X3.4246Y-2.2929
X4.4089Y-2.2929
T9
X3.5433Y-1.9606
X6.1339Y-1.9606
T10
X5.2598Y-1.9606
T2
G00X5.0669Y-2.5571
M15
G01X5.0669Y-2.498
M16
G05
G00X5.2933Y-2.563
M15
G01X5.3524Y-2.563
M16
G05
G00X5.5787Y-2.498
M15
G01X5.5787Y-2.5571
M16
G05
T4
G00X4.6516Y-2.2874
M15
G01X4.6516Y-2.3268
M16
G05
G00X4.7677Y-2.3819
M15
G01X4.7283Y-2.3819
M16
G05
G00X4.7677Y-2.5984
M15
G01X4.7283Y-2.5984
M16
G05
G00X4.8465Y-2.2402
M15
G01X4.8071Y-2.2402
M16
G05
G00X4.8465Y-2.4567
M15
G01X4.8071Y-2.4567
M16
G05
G00X4.8465Y-2.6969
M15
G01X4.8071Y-2.6969
M16
G05
G00X4.9902Y-2.2874
M15
G01X4.9902Y-2.3268
M16
G05
G00X4.9902Y-2.6378
M15
G01X4.9902Y-2.6772
M16
G05
T8
G00X5.6752Y-2.3406
M15
G01X5.6752Y-2.4587
M16
G05
T0
M30
